<?xml version="1.0" encoding="UTF-8" standalone="no"?>
<svg xmlns="http://www.w3.org/2000/svg" viewBox="0 0 16 16" version="1.1">
 <path d="m7.9355 0.99414c-0.1693-0.00936-0.5864 0.05086-0.871 0.24806-0.28462 0.19722-0.47056 0.44614-0.65625 0.76562-0.00535 0.00903-0.010561 0.018147-0.015625 0.027344l-6.1817 11.473h0.001953c-0.32014 0.57887-0.28809 1.0866-0.048828 1.6191 0.083245 0.18528 0.19176 0.38935 0.42188 0.58008 0.23011 0.19073 0.58238 0.28906 0.80664 0.28906h13.041c0.34225 0 0.54676-0.09845 0.75391-0.22266 0.20714-0.1242 0.40485-0.29439 0.5625-0.55274 0.09854-0.16148 0.23515-0.44507 0.24414-0.78516 0.009-0.33943-0.1058-0.6586-0.25977-0.92578v-0.002l-6.233-11.397c-0.0094-0.0156-0.0191-0.0312-0.0293-0.0465-0.0564-0.0908-0.1269-0.1719-0.209-0.2403-0.2342-0.3121-0.5092-0.5249-0.8184-0.6523-0.1503-0.1051-0.3267-0.1666-0.5098-0.17776z" stroke-width=".99160" fill="#333"/>
 <path stroke-width=".99160" fill="#c00" d="m7.8807 1.9883c-0.139-0.0077-0.3234 0.0241-0.6113 0.5195l-6.1816 11.472a0.88722 0.88786 0 0 1 -0.00391 0.0098c-0.11185 0.202-0.11034 0.509-0.0118 0.729 0.0986 0.219 0.1923 0.281 0.3203 0.281h13.041c0.13746 0 0.3548-0.11334 0.4668-0.29688s0.16265-0.36815-0.02734-0.69727a0.88722 0.88786 0 0 1 -0.0098 -0.01758l-6.2332-11.398h-0.00195c-0.2823-0.4555-0.5907-0.5935-0.7441-0.6017a0.88722 0.88786 0 0 1 -0.00195 0zm0.089844 3.041c0.544-0.017 1.0482 0.4882 1.0312 1.0332v3.9375c0.007 0.528-0.471 1-1 1-0.528 0-1.007-0.472-1-1v-3.9375a1.033 1.033 0 0 1 0.8125 -1 1 1 0 0 1 0.15625 -0.03125zm-0.0117 6.9707a1 1 0 0 1 0.041016 0 1 1 0 0 1 0 2 1.0002 1.0002 0 0 1 -0.041016 -2z"/>
</svg>
