<?xml version="1.0" encoding="UTF-8" standalone="no"?>
<svg xmlns="http://www.w3.org/2000/svg" version="1.1" viewBox="0 0 16 16">
 <path d="m7 2a1.0001 1.0001 0 0 0 -1 1v3l-3 0.00391a1.0001 1.0001 0 0 0 -1 1v1.9961a1.0001 1.0001 0 0 0 1 1l3-0.00391v3.0039a1.0001 1.0001 0 0 0 1 1h2a1.0001 1.0001 0 0 0 1 -1v-3.0039l3 0.0039a1.0001 1.0001 0 0 0 1 -1v-1.9961a1.0001 1.0001 0 0 0 -1 -1l-3-0.0039v-3a1.0001 1.0001 0 0 0 -1 -1z" fill="#333"/>
 <path d="m7 3v4l-4 0.003v1.997l4-0.003v4.003h2l3e-7 -4.003 4 0.003v-1.997l-4-0.003v-4z" fill="#690"/>
</svg>
