<?xml version="1.0" encoding="UTF-8" standalone="no"?>
<svg xmlns="http://www.w3.org/2000/svg" version="1.1" viewBox="0 0 16 16">
 <path style="text-decoration-line:none;text-transform:none;text-indent:0" font-family="Sans" d="m6.406 6a0.5 0.5 0 0 0 -0.406 0.5v2.5h-1.5a0.5 0.5 0 1 0 0 1h2a0.5 0.5 0 0 0 0.5 -0.5v-3a0.5 0.5 0 0 0 -0.594 -0.5z" overflow="visible" font-weight="400" fill="#f1f2f2"/>
 <path style="text-decoration-line:none;text-transform:none;text-indent:0" font-weight="400" d="m6.5 3c-3.578 0-6.5 2.922-6.5 6.5s2.922 6.5 6.5 6.5 6.5-2.922 6.5-6.5c0-0.516-0.073-1.018-0.187-1.5h-2.094c0.167 0.473 0.281 0.967 0.281 1.5 0 2.497-2.003 4.5-4.5 4.5a4.485 4.485 0 0 1 -4.5 -4.5c0-2.497 2.003-4.5 4.5-4.5 0.932 0 1.79 0.27 2.5 0.75v-2.25a6.442 6.442 0 0 0 -2.5 -0.5z" font-size="xx-small" overflow="visible" font-family="Sans" fill="#f1f2f2"/>
 <path fill="#333" d="m11-0.006a1.0099 1.0099 0 0 0 -1.0098 1.0098v0.9863h-0.9902a1.0099 1.0099 0 0 0 -1.0098 1.0098v1.998a1.0099 1.0099 0 0 0 1.0098 1.0098h0.9902v0.9863a1.0099 1.0099 0 0 0 1.0098 1.0098h2a1.0099 1.0099 0 0 0 1.01 -1.0098v-0.9863h0.99a1.0099 1.0099 0 0 0 1.01 -1.0098v-1.998a1.0099 1.0099 0 0 0 -1.01 -1.0098h-0.99v-0.9863a1.0099 1.0099 0 0 0 -1.01 -1.0098z"/>
 <path fill="#690" d="m11 1.004v1.996h-2v1.997h2v1.997h2v-1.997h2v-1.997h-2v-1.996z"/>
</svg>
