<?xml version="1.0" encoding="UTF-8" standalone="no"?>
<svg xmlns="http://www.w3.org/2000/svg" version="1.1" viewBox="0 0 16 16">
 <g fill="#c00">
  <path style="text-decoration-line:none;text-transform:none;text-indent:0" d="m8.0176 1c-2.5999-0.00355-5.1543 1.2118-7.4238 3.4707a1.0002 1.0002 0 0 0 -0.019531 0.019531l-0.019531 0.019531c-0.00050807 0.0005037 0.00050723 0.00145 0 0.00195-0.42586 0.4232-0.55609 0.9404-0.55474 1.4239 0.001348 0.4841 0.13144 0.9953 0.55469 1.4161l1.9355 2.0039a1.0002 1.0002 0 0 0 0.00586 0.00586c0.73772 0.75056 1.9771 0.75056 2.7148 0l1.2793-1.2812 0.00195-0.00195c0.4699-0.4691 0.5297-1.1069 0.4005-1.7208 0.3619-0.126 0.8697-0.373 1.1094-0.373 0.23968 0 0.74747 0.24698 1.1094 0.37305-0.1293 0.6139-0.0695 1.2517 0.4003 1.7207l1.2871 1.2871c0.7385 0.74085 1.9674 0.74019 2.7051-0.00195a1.0002 1.0002 0 0 0 0.0098 -0.00977l1.9297-1.998a1.0002 1.0002 0 0 0 0.02149 -0.023438c0.37314-0.41178 0.51595-0.89493 0.52734-1.377 0.0114-0.48202-0.11347-1.0158-0.54102-1.4434a1.0002 1.0002 0 0 0 -0.01953 -0.021484c-2.264-2.2644-4.814-3.4866-7.4134-3.4901zm-3.0176 9a1.0002 1.0002 0 0 0 -1 1v1c0 0.50411 0.19614 1.0675 0.56055 1.4453a1.0002 1.0002 0 0 0 0.021484 0.01953l2.7207 2.6562a1.0002 1.0002 0 0 0 1.3984 0l2.7168-2.6562a1.0002 1.0002 0 0 0 0.02148 -0.02149c0.362-0.377 0.561-0.938 0.561-1.444v-1a1.0002 1.0002 0 0 0 -1 -1h-1c-0.59297 0-1.0484 0.24327-1.4102 0.58984a1.0002 1.0002 0 0 0 -0.015625 0.01563l-0.5742 0.574-0.5742-0.575a1.0002 1.0002 0 0 0 -0.013672 -0.01367c-0.3634-0.349-0.8191-0.591-1.4121-0.591z" transform="matrix(1 0 0 .98235 0 .017651)" fill="#333"/>
  <path style="text-decoration-line:none;text-transform:none;text-indent:0" font-family="Bitstream Vera Sans" d="m11 11h-1c-0.257 0-0.528 0.13-0.719 0.313l-1.28 1.28-1.282-1.28c-0.19-0.183-0.462-0.313-0.719-0.313h-1v1c0 0.31 0.09 0.552 0.281 0.75l2.72 2.656 2.718-2.656c0.19-0.198 0.281-0.44 0.281-0.75v-1z" color="#f1f2f2" overflow="visible" font-weight="400"/>
  <path d="m1.2595 6.642c-0.344-0.342-0.35-1.075 0-1.422l0.04-0.04c4.267-4.247 9.167-4.24 13.425 0.018l0.02 0.02c0.35 0.35 0.318 1.07-0.02 1.443l-1.93 1.997c-0.35504 0.3572-0.93296 0.3572-1.288 0l-1.287-1.286c-0.35653-0.35492-0.35653-0.93208 0-1.287l0.302-0.301c-2.226-1.0642-2.814-1.0642-5.04 0l0.303 0.301c0.35653 0.35492 0.35653 0.93208 0 1.287l-1.2865 1.288c-0.35386 0.36002-0.93414 0.36002-1.288 0z"/>
 </g>
</svg>
