<?xml version="1.0" encoding="UTF-8" standalone="no"?>
<svg xmlns="http://www.w3.org/2000/svg" version="1.1" viewBox="0 0 16 16">
 <path style="color:#f1f2f2" d="m5 0c-1.645 0-3 1.355-3 3v3h2v-3c0-0.571 0.429-1 1-1h2c0.571 0 1 0.429 1 1v0.25c0.267-0.15 0.557-0.25 0.875-0.25h1.125c0-1.645-1.355-3-3-3zm-3.063 9c-0.554 0-1.064 0.45-1 1v5h10.063v-3h-2.125c-1.01 0-1.875-0.866-1.875-1.876v-1.124z" overflow="visible" fill="#f1f2f2"/>
 <rect ry="1" height="9" width="9" y="3" x="7" fill="#333"/>
 <path style="color:#f1f2f2" d="m8.8755 4.0615c-0.48317-0.0084-0.87844 0.38276-0.875 0.866v5.1955c-0.0046 0.48402 0.39104 0.87646 0.875 0.868h5.249c0.48396 0.0085 0.87958-0.38398 0.875-0.868v-5.1945c0.0046-0.48402-0.39104-0.87646-0.875-0.868zm2.1245 0.99h1v2.9665h-1zm0 3.9575h1v0.991h-1z" class="warning" overflow="visible" fill="#f60"/>
</svg>
