<?xml version="1.0" encoding="UTF-8" standalone="no"?>
<svg id="svg6" xmlns="http://www.w3.org/2000/svg" version="1.1" viewBox="-3 -3 22 22"><path id="path4" style="fill:#f1f2f2" d="m2.8 3c-0.4418 0-0.8 0.3582-0.8 0.8v8.4c0 0.442 0.3582 0.8 0.8 0.8h10.4c0.442 0 0.8-0.358 0.8-0.8v-8.4c0-0.4418-0.358-0.8-0.8-0.8zm1.2 2h8v5h-8z"/><path id="rect824" style="paint-order:fill markers stroke;fill:#f1f2f2" d="m1.0508 11c-0.0325 0.161-0.0508 0.329-0.0508 0.5 0 1.385 1.115 2.5 2.5 2.5h9c1.385 0 2.5-1.115 2.5-2.5 0-0.171-0.018-0.339-0.051-0.5z"/></svg>
