<?xml version="1.0" encoding="UTF-8" standalone="no"?>
<svg xmlns="http://www.w3.org/2000/svg" version="1.1" viewBox="0 0 16 16">
 <path d="m8.555 8.094c-0.706 0.623-1.54 0.906-2.555 0.906-1.016 0-1.853-0.29-2.559-0.914-1.109 0.363-2.436 1.288-2.437 2.902l-0.004 3.012c0 0.554 0.446 1 1 1h8c0.554 0 1-0.446 1-1v-3c0-1.387-1.102-2.556-2.445-2.906z" fill="#f1f2f2"/>
 <path d="m9 5a3 3 0 0 1 -3 3 3 3 0 0 1 -3 -3 3 3 0 0 1 3 -3 3 3 0 0 1 3 3z" color="#f1f2f2" overflow="visible" fill="#f1f2f2"/>
 <path d="m11 8a1.0099 1.0099 0 0 0 -1.0098 1.0098v0.9863h-0.9902a1.0099 1.0099 0 0 0 -1.0098 1.0098v1.998a1.0099 1.0099 0 0 0 1.0098 1.0098h0.9902v0.986a1.0099 1.0099 0 0 0 1.0098 1.01h2a1.0099 1.0099 0 0 0 1.01 -1.01v-0.986h0.99a1.0099 1.0099 0 0 0 1.01 -1.0098v-1.998a1.0099 1.0099 0 0 0 -1.01 -1.0099h-0.99v-0.9863a1.0099 1.0099 0 0 0 -1.01 -1.0098z" fill="#333"/>
 <path d="m11 9.01v1.996h-2v1.997h2v1.997h2v-1.997h2v-1.997h-2v-1.996z" fill="#690"/>
</svg>
