<?xml version="1.0" encoding="UTF-8"?>
<svg width="16" height="16" xmlns="http://www.w3.org/2000/svg" xmlns:svg="http://www.w3.org/2000/svg">
 <metadata>image/svg+xml</metadata>

 <g>
  <title>Layer 1</title>
  <rect id="svg_1" fill="#f1f2f2" stroke-width="3.7795" x="8" y="8.9997" width="3.9998" height="2" opacity="0.5"/>
  <path id="svg_2" d="m2,3l0,1.9999l0.99997,0l0,5.9999c0,1.108 0.89199,2 2,2l9,0l0,-8.0002c0,-1.1078 -0.891951,-1.9999 -2.0001,-1.9999l-5,0l-4.99987,0.0003zm2.9999,1.9999l1,0l0,2.6386l-0.00195,0l0,2.367499l5.006,0l0,-0.510099c0,0.0078 -0.0036,0.01383 -0.003901,0.02146l0,-0.6089c0.001201,-0.00042 0.002701,0.00043 0.003901,0l0,-1.4044c0,-0.29679 -0.211061,-0.50977 -0.50195,-0.50977c-0.28808,0 -0.497829,0.20962 -0.50195,0.50195c0,0.00133 0,0.00258 0,0.00389l0,1.4996l-1.0005,0l0,-1.4997c0,-0.00537 0.00189,-0.01028 0.00195,-0.01561c-0.00684,-0.28912 -0.213921,-0.49609 -0.49998,-0.49609c-0.29089,0 -0.50195,0.21296 -0.50195,0.50977l0,1.5016l-0.9996,0l0,-1.4997c0,-0.83099 0.669,-1.5 1.5,-1.5c0.38637,0 0.73461,0.14841 0.999969,0.38671c0.26532,-0.23811 0.61341,-0.38664 0.99967,-0.38664c0.8311,0 1.5001,0.66896 1.5001,1.5001l0,2.5c0,0.55399 -0.44598,0.99997 -0.99997,0.99997l-5.0002,0c-0.55399,0 -0.99997,-0.44598 -0.99997,-0.99997l0,-4l0.00033,-1.00027z" fill="#f1f2f2" stroke-width="3.7795"/>
 </g>
</svg>