<?xml version="1.0" encoding="UTF-8" standalone="no"?>
<svg xmlns:rdf="http://www.w3.org/1999/02/22-rdf-syntax-ns#" xmlns="http://www.w3.org/2000/svg" height="16" width="16" version="1.1" xmlns:cc="http://creativecommons.org/ns#" xmlns:dc="http://purl.org/dc/elements/1.1/" viewBox="0 0 16 16">
 <metadata>
  <rdf:RDF>
   <cc:Work rdf:about="">
    <dc:format>image/svg+xml</dc:format>
    <dc:type rdf:resource="http://purl.org/dc/dcmitype/StillImage"/>
    <dc:title/>
   </cc:Work>
  </rdf:RDF>
 </metadata>
 <rect opacity=".5" height="2" width="3.9998" y="8.9997" x="8" stroke-width="3.7795" fill="#f1f2f2"/>
 <path stroke-width="3.7795" fill="#f1f2f2" d="m2 3v1.9999h0.99997v5.9999c0 1.108 0.89199 2 2 2h9v-8.0002c0-1.1078-0.89195-1.9999-2.0001-1.9999h-5zm2.9999 1.9999h1v2.6386h-0.00195v2.3675h5.006v-0.5101c0 0.0078-0.0036 0.013834-0.0039 0.021463v-0.6089c0.0012-0.0004208 0.0027 0.0004243 0.0039 0v-1.4044c0-0.29679-0.21106-0.50977-0.50195-0.50977-0.28808 0-0.49783 0.20962-0.50195 0.50195 0.0000034 0.00133 0 0.00258 0 0.00389v1.4996h-1.0005v-1.4997c0-0.00537 0.00189-0.01028 0.00195-0.015609-0.00684-0.28912-0.21392-0.49609-0.49998-0.49609-0.29089 0-0.50195 0.21296-0.50195 0.50977v1.5016h-0.9996v-1.4997c0-0.83099 0.669-1.5 1.5-1.5 0.38637 0 0.73461 0.14841 0.99997 0.38671 0.26532-0.23811 0.61341-0.38664 0.99967-0.38664 0.8311 0 1.5001 0.66896 1.5001 1.5001v2.5c0 0.55399-0.44598 0.99997-0.99997 0.99997h-5.0002c-0.55399 0-0.99997-0.44598-0.99997-0.99997v-4z"/>
</svg>
