<?xml version="1.0" encoding="UTF-8" standalone="no"?>
<svg id="svg12" xmlns="http://www.w3.org/2000/svg" version="1.1" viewBox="0 0 16 16"><g id="g10" fill="#f1f2f2"><path id="path2" stroke-linejoin="round" stroke-linecap="round" d="m0.848 1a0.845 0.845 0 0 0 -0.848 0.848v12.304c0 0.47 0.378 0.848 0.848 0.848h14.304c0.47 0 0.848-0.378 0.848-0.848v-12.304a0.846 0.846 0 0 0 -0.848 -0.848h-14.304zm1.652 2h11c0.277 0 0.5 0.223 0.5 0.5v9c0 0.277-0.223 0.5-0.5 0.5h-11a0.499 0.499 0 0 1 -0.5 -0.5v-9c0-0.277 0.223-0.5 0.5-0.5z" stroke-width=".402"/><path id="rect830" style="opacity:.8;paint-order:fill markers stroke;fill:#f1f2f2" d="m8.5 4c-0.277 0-0.5 0.223-0.5 0.5v7c0 0.277 0.223 0.5 0.5 0.5h4c0.277 0 0.5-0.223 0.5-0.5v-7c0-0.277-0.223-0.5-0.5-0.5h-4zm0.5 1h3v6h-3v-6z"/><rect id="rect837" style="opacity:.3;paint-order:fill markers stroke;fill:#f1f2f2" height="6" width="3" y="5" x="9"/><rect id="rect846" style="opacity:.3;paint-order:fill markers stroke;fill:#f1f2f2" height="2" width="2" y="9" x="4"/><path id="rect848" style="opacity:.8;paint-order:fill markers stroke;fill:#f1f2f2" d="m3.5 8c-0.277 0-0.5 0.223-0.5 0.5v3c0 0.277 0.223 0.5 0.5 0.5h3c0.277 0 0.5-0.223 0.5-0.5v-3c0-0.277-0.223-0.5-0.5-0.5h-3zm0.5 1h2v2h-2v-2z"/></g></svg>
