<?xml version="1.0" encoding="UTF-8" standalone="no"?>
<svg xmlns="http://www.w3.org/2000/svg" viewBox="0 0 16 16" version="1.1">
 <g font-weight="400" font-family="Sans" fill="#f1f2f2">
  <path style="text-decoration-line:none;text-transform:none;text-indent:0" d="m3.4688 1a2.468 2.468 0 0 0 -2.4708 2.4688l0.00005 9.0622a2.468 2.468 0 0 0 2.4726 2.469h5.4161v-1h-5.416a1.443 1.443 0 0 1 -1.4707 -1.469v-9.0603c0-0.8323 0.6367-1.4697 1.4688-1.4707h9.0622c0.687 0 1.234 0.4375 1.407 1.0566l-5.438 5.3184-1.9375-1.9375-2.125 2.125 3 2.9995 1.0625 1.063 1.0625-1.063 0.3418-0.351c0.088-1.208 1.0577-2.1261 2.2287-2.2891l1.867-1.918v1.9316c0.363 0.0691 0.702 0.2149 1 0.4161v-5.8809a2.468 2.468 0 0 0 -2.471 -2.4707h-9.0602z"/>
 </g>
 <path style="color:#f1f2f2" fill="#333" d="m11.5 8c-1.33 0-2.5 1.0302-2.5 2.385v0.88476c-0.54 0.209-1 0.626-1 1.261v2.469a1.0001 1.0001 0 0 0 1 1h6a1.0001 1.0001 0 0 0 1 -1v-2.4688c0-0.63555-0.46001-1.0518-1-1.2617v-0.884c0-1.355-1.171-2.385-2.5-2.385z"/>
 <path style="color:#f1f2f2" d="m11.5 9c-0.822 0-1.5 0.626-1.5 1.385v1.685h-0.5c-0.277 0-0.5 0.205-0.5 0.461v2.469h6v-2.469c0-0.256-0.223-0.461-0.5-0.461h-0.5v-1.685c0-0.76-0.678-1.385-1.5-1.385zm0 0.923h1c0.286 0 0.5 0.198 0.5 0.462v1.685h-2v-1.685c0-0.264 0.214-0.462 0.5-0.462z" overflow="visible" fill="#f60"/>
</svg>
