<?xml version="1.0" encoding="UTF-8" standalone="no"?>
<svg xmlns:rdf="http://www.w3.org/1999/02/22-rdf-syntax-ns#" xmlns="http://www.w3.org/2000/svg" xml:space="preserve" viewBox="0.171 0.201 170.66667 170.66667" height="16" width="16" version="1.0" xmlns:cc="http://creativecommons.org/ns#" xmlns:xlink="http://www.w3.org/1999/xlink" xmlns:dc="http://purl.org/dc/elements/1.1/"><metadata><rdf:RDF><cc:Work rdf:about=""><dc:format>image/svg+xml</dc:format><dc:type rdf:resource="http://purl.org/dc/dcmitype/StillImage"/><dc:title/></cc:Work></rdf:RDF></metadata><!-- Gnu Emacs Icon
   Copyright (C) 2008-2017 Free Software Foundation, Inc.
   Author: Nicolas Petton <nicolas@petton.fr>
   This file is part of GNU Emacs.
   GNU Emacs is free software: you can redistribute it and/or modify
   it under the terms of the GNU General Public License as published by
   the Free Software Foundation; either version 3 of the License, or
   (at your option) any later version.
   GNU Emacs is distributed in the hope that it will be useful,
   but WITHOUT ANY WARRANTY; without even the implied warranty of
   MERCHANTABILITY or FITNESS FOR A PARTICULAR PURPOSE.  See the
   GNU General Public License for more details.
   You should have received a copy of the GNU General Public License
   along with GNU Emacs.  If not, see <http://www.gnu.org/licenses/>.
--><!-- Created with Inkscape (http://www.inkscape.org/) --><rect display="none" height="512" width="512" y="-341.13" x=".171" fill="none"/><g display="none" transform="translate(0 -341.33)"/><g display="none" transform="translate(0 -341.33)"><g display="inline"><path display="none" fill="#050505" d="m349.1 256.65c-0.265-0.254 37.637 27.605 39.421 25.012 6.362-9.252 82.046-93.137 84.784-116.24 0.242-2.003-0.516-4.096-0.516-4.096s-1.19-0.144-6.325-4.314c-2.692-2.192-5.483-4.581-5.483-4.581-16.054 0.998-57.885 41.559-111.06 103.57"/></g></g><path d="m54.004 160.2s8.8116 0.61387 20.147-0.36999c4.5907-0.39843 22.02-2.0844 35.051-4.8987 0 0 15.888-3.3485 24.388-6.4332 8.8938-3.2277 13.733-5.9671 15.912-9.8487-0.0949-0.79532 0.67071-3.6157-3.4307-5.3098-10.486-4.3312-22.647-3.5478-46.711-4.0502-26.684-0.9-38.759-5.3-43.488-8.84-4.534-3.6 0.943-13.54 20.374-22.3 9.787-4.664 51.924-12.616 51.924-12.616-12.92-6.29-40.785-18.002-45.738-20.39-4.344-2.094-15.565-8.446-17.072-12.261-1.7085-3.6625 4.0349-6.8174 7.2431-7.7209 10.332-2.935 29.187-1.5602 42.462-1.765 6.6727-0.10295 7.7558-0.52574 7.7558-0.52574 9.2071-1.504 18.467-7.7074 15.942-17.532-2.267-10.028-17.423-15.921-28.785-13.881-10.7 1.921-35.14 10.076-35.14 10.076 31.878-0.2717 35.864-0.52518 38.247 2.7557 1.4072 1.9376-0.63945 4.5944-9.1411 5.9618-9.2556 1.4886-28.495 3.2814-28.495 3.2814-18.457 1.0795-27.191 1.1517-31.09 9.2819-2.5475 5.3116 2.7166 10.007 5.0239 12.947 9.7501 10.678 19.566 16.437 28.631 20.678 3.4109 1.5957 13.419 4.6091 13.419 4.6091-29.409-1.5929-50.624 7.3002-63.068 17.539-14.075 12.821-8.8298 31.945 20.987 37.512 14.82 2.7671 25.478 6.0376 50.884 3.7847 14.964-0.79429 17.323-0.32161 17.472 0.88757 0.21004 1.7024-16.621 8.065-21.216 9.3703-11.69 3.3205-42.333 10.025-42.486 10.058z" fill-rule="evenodd" fill="#f1f2f2"/></svg>
