<?xml version="1.0" encoding="UTF-8" standalone="no"?>
<svg xmlns="http://www.w3.org/2000/svg" version="1.1" viewBox="0 0 16 16">
 <g fill="#fff">
  <path d="m2 2c-0.554 0-1 0.446-1 1v11c0 0.554 0.446 1 1 1h12c0.554 0 1-0.446 1-1v-9c0-0.554-0.446-1.0039-1-1h-3.77l-2.23-2h-6zm1 3h10c0.554 0 1 0.446 1 1v7c0 0.554-0.446 1-1 1h-10c-0.554 0-1-0.446-1-1v-7c0-0.554 0.446-1 1-1z"/>
  <g fill-opacity=".99237">
   <rect ry=".5" height="1" width="6" y="12" x="5"/>
   <rect ry=".5" height="5" width="1" y="8" x="10"/>
   <rect ry=".5" height="5" width="1" y="8" x="5"/>
  </g>
 </g>
 <path stroke-linejoin="round" d="m4 9.5 4-3 4 3" stroke="#fff" stroke-linecap="round" fill="none"/>
 <g fill-opacity=".99237" fill="#fff">
  <rect ry="0.35" height="3" width="1" y="10" x="7"/>
  <rect height="1" width="1" y="9" x="4"/>
  <rect height="1" width="1" y="9" x="11"/>
 </g>
</svg>
