<?xml version="1.0" encoding="UTF-8" standalone="no"?>
<svg xmlns="http://www.w3.org/2000/svg" viewBox="0 0 16 16" version="1.1">
 <path style="color:#f1f2f2" fill="#f1f2f2" d="m7.5 0c-0.277 0-0.5 0.223-0.5 0.5v2a0.499 0.499 0 0 0 0.5 0.5h1c0.277 0 0.5-0.223 0.5-0.5v-2c0-0.277-0.223-0.5-0.5-0.5h-1zm5.455 1.8418a0.499 0.499 0 0 0 -0.359 0.1465l-1.414 1.416a0.499 0.499 0 0 0 0 0.707l0.707 0.7071a0.499 0.499 0 0 0 0.707 0l1.414-1.4141a0.499 0.499 0 0 0 0 -0.707l-0.707-0.709a0.499 0.499 0 0 0 -0.348 -0.1465zm-9.8984 0.002a0.499 0.499 0 0 0 -0.3593 0.1464l-0.709 0.7071a0.499 0.499 0 0 0 0 0.707l1.416 1.4141a0.499 0.499 0 0 0 0.707 0l0.7071-0.7071a0.499 0.499 0 0 0 0 -0.707l-1.4141-1.4141a0.499 0.499 0 0 0 -0.3477 -0.1464zm4.9317 2.164a3.98 3.98 0 0 0 -3.9785 3.9785c0 2.1967 1.7805 4.0097 3.9785 4.0097 0.7342 0 1.4169-0.217 2.0117-0.568v-1.428h1.428c0.352-0.5955 0.568-1.2788 0.568-2.0137 0-2.197-1.811-3.9785-4.0077-3.9785zm0 1.9883v0.0019c1.116 0 2.0197 0.8723 2.0197 1.9883a2.017 2.017 0 0 1 -2.0197 2.0197c-1.117 0-1.9903-0.9037-1.9903-2.0197s0.8733-1.9902 1.9903-1.9902zm-7.4883 1.0039c-0.277 0-0.5 0.223-0.5 0.5v1a0.499 0.499 0 0 0 0.5 0.5h2c0.277 0 0.5-0.223 0.5-0.5v-1c0-0.277-0.223-0.5-0.5-0.5h-2zm13 0c-0.277 0-0.5 0.223-0.5 0.5v1a0.499 0.499 0 0 0 0.5 0.5h2c0.277 0 0.5-0.223 0.5-0.5v-1c0-0.277-0.223-0.5-0.5-0.5h-2zm-9.7363 4.035a0.499 0.499 0 0 0 -0.3594 0.147l-1.4141 1.414a0.499 0.499 0 0 0 0 0.707l0.7071 0.707a0.499 0.499 0 0 0 0.707 0l1.4141-1.414a0.499 0.499 0 0 0 0 -0.707l-0.7071-0.707a0.499 0.499 0 0 0 -0.3476 -0.147zm3.7363 1.965c-0.277 0-0.5 0.223-0.5 0.5v2a0.499 0.499 0 0 0 0.5 0.5h1c0.277 0 0.5-0.223 0.5-0.5v-2c0-0.277-0.223-0.5-0.5-0.5h-1z"/>
 <path style="color:#f1f2f2" fill="#333" d="m10 9a1.0001 1.0001 0 0 0 -1 1v1.4707a1.0001 1.0001 0 0 0 0.29297 0.70703l0.35547 0.35352-0.35547 0.35547a1.0001 1.0001 0 0 0 -0.293 0.707v1.406a1.0001 1.0001 0 0 0 1 1h1.4375a1.0001 1.0001 0 0 0 0.70703 -0.29297l0.355-0.355 0.355 0.355a1.0001 1.0001 0 0 0 0.707 0.293h1.438a1.0001 1.0001 0 0 0 1 -1v-1.406a1.0001 1.0001 0 0 0 -0.303 -0.717l-0.355-0.346 0.355-0.345a1.0001 1.0001 0 0 0 0.303 -0.717v-1.469a1.0001 1.0001 0 0 0 -1 -1h-1.407a1.0001 1.0001 0 0 0 -0.707 0.2927l-0.396 0.3965-0.418-0.4062a1.0001 1.0001 0 0 0 -0.698 -0.283z"/>
 <path style="color:#f1f2f2" d="m10 10h1.375l1.125 1.094 1.094-1.094h1.406v1.469l-1.094 1.062 1.094 1.063v1.406h-1.438l-1.062-1.063-1.063 1.063h-1.437v-1.406l1.063-1.063-1.063-1.061z" overflow="visible" fill="#c00"/>
</svg>
