<?xml version="1.0" encoding="UTF-8" standalone="no"?>
<svg xmlns="http://www.w3.org/2000/svg" version="1.1" viewBox="0 0 16 16">
 <g fill="#f1f2f2">
  <path style="text-decoration-line:none;text-transform:none;text-indent:0" d="m5.008 1.824a1 1 0 0 0 -0.168 0.014 1 1 0 0 0 -0.348 0.133 6.956 6.956 0 0 0 -2.545 2.517c-1.94 3.33-0.811 7.65 2.518 9.59a6.98 6.98 0 0 0 4.535 0.871v-2.031a4.973 4.973 0 0 1 -3.518 -0.58 4.982 4.982 0 0 1 -1.82 -6.805l0.028-0.027a5.041 5.041 0 0 1 1.82 -1.82 1 1 0 0 0 -0.502 -1.862zm6.047 0.008a1.009 1.009 0 0 0 -0.537 1.88 4.975 4.975 0 0 1 2.062 6.288h2.135c0.88-3.017-0.352-6.381-3.18-8.03a1.009 1.009 0 0 0 -0.48 -0.138z"/>
  <path style="text-decoration-line:none;text-transform:none;text-indent:0" font-family="Sans" d="m10.98 7.806a0.853 1 0 0 0 -0.853 -0.782h-4.262a0.853 1 0 1 0 0 2h4.262a0.853 1 0 0 0 0.852 -1.218z" overflow="visible" font-weight="400"/>
  <path style="text-decoration-line:none;text-transform:none;text-indent:0" d="m7.773 1.027a6.964 6.964 0 0 0 -3.308 0.946c-3.33 1.94-4.458 6.26-2.518 9.589a6.956 6.956 0 0 0 2.545 2.518 1 1 0 0 0 0.348 0.135 1 1 0 0 0 0.67 -1.85 5.041 5.041 0 0 1 -1.82 -1.82l-0.028-0.027a4.982 4.982 0 0 1 1.82 -6.803 4.973 4.973 0 0 1 6.829 1.795 4.975 4.975 0 0 1 0.277 4.49h2.121a7.007 7.007 0 0 0 -0.656 -5.51c-1.333-2.29-3.792-3.536-6.28-3.463z"/>
 </g>
 <circle cx="11.5" cy="11.5" r="4.5" fill="#333"/>
 <path style="color:#f1f2f2" d="m11.5 8a3.5 3.5 0 1 0 0 7 3.5 3.5 0 0 0 0 -7zm-2.5 2.969h5v1.031h-5z" class="error" overflow="visible" fill="#c00"/>
</svg>
