<?xml version="1.0" encoding="UTF-8" standalone="no"?>
<svg id="svg12" xmlns="http://www.w3.org/2000/svg" version="1" viewBox="-3 -3 22 22"><g id="g8" fill="#f1f2f2"><path id="path2" d="m11.062 1a3.938 3.938 0 0 0 -3.937 3.938c0.002 0.283 0.034 0.565 0.096 0.841l-0.721 0.721-2.5-2.5h-3v3l2.611 2.389-2.611 2.611v3h3l1-1h1v-1l0.746-0.746 2.254 2.06v-1.314h-1v-1h-1v-1h-1v1h-1v1h-1v1h-2v-2h1v-1h1v-1h1v-1h-1v-1h-1v-1h-1v-2h2v1h1v1h1v1h1v-1h1v-1h0.174a3 3 0 0 1 -0.174 -1 3 3 0 0 1 3 -3 3 3 0 0 1 3 3 3 3 0 0 1 -3 3 3 3 0 0 1 -1 -0.176v0.176h-1v1h1l0.219-0.219a3.937 3.937 0 1 0 0.843 -7.781zm-2.062 8h-1v1h1v-1z"/><path id="path4" style="opacity:.2;stroke-linejoin:round;stroke-linecap:round;stroke-dasharray:3, 1" d="m11 2c-1.6569 0-3 1.3431-3 3 0.0008 0.3408 0.0596 0.679 0.174 1h-0.174v1h-1v1h-1v-1h-1v-1h-1v-1h-2v2h1v1h1v1h1v1h-1v1h-1v1h-1v2h2v-1h1v-1h1v-1h1v1h1v1h1v1-2h1v-1h-1v-1h-1v-1h1v-1h1v-0.176c0.321 0.1151 0.659 0.1746 1 0.176 1.657 0 3-1.3431 3-3s-1.343-3-3-3z"/><circle id="circle6" stroke-linejoin="round" stroke-width="2.875" stroke-linecap="round" cy="5" cx="11" stroke-dasharray="8.625 2.875" r="1"/></g><path id="path10" color="#f1f2f2" overflow="visible" d="m12.5 9.93c-0.822 0-1.5 0.626-1.5 1.385v1.685h-0.5c-0.277 0-0.5 0.205-0.5 0.461v2.469h6v-2.469c0-0.256-0.223-0.461-0.5-0.461h-0.5v-1.685c0-0.76-0.678-1.385-1.5-1.385zm0 0.923h1c0.286 0 0.5 0.198 0.5 0.462v1.685h-2v-1.685c0-0.264 0.214-0.462 0.5-0.462z" fill="#f60"/></svg>
