<?xml version="1.0" encoding="UTF-8" standalone="no"?>
<svg xmlns="http://www.w3.org/2000/svg" version="1.1" viewBox="0 0 16 16">
 <path d="m8 1c-2.7614 0-5 2.2386-5 5 0 5.437-1.4877 6.023-2 9h4c0.28384-1.7207 1.0131-2.9983 3-3 1.9869 0.0017 2.7162 1.2793 3 3h4c-0.512-2.977-2-3.563-2-9 0-2.7614-2.239-5-5-5zm-2 3c0.5523 0 1 0.6716 1 1.5s-0.4477 1.5-1 1.5-1-0.6716-1-1.5 0.4477-1.5 1-1.5zm4 0c0.55228 0 1 0.67157 1 1.5 0 0.8284-0.448 1.5-1 1.5-0.5523 0-1-0.6716-1-1.5s0.4477-1.5 1-1.5zm-2 3 2 2-2 1-2-1z" fill="#f1f2f2"/>
 <path opacity=".2" d="m8 12c-1.9869 0.002-2.7162 1.279-3 3h6c-0.284-1.721-1.0131-2.998-3-3z" fill="#f1f2f2"/>
 <path style="color:#f1f2f2" d="m11 10a1.0001 1.0001 0 0 0 -1 1v1.4707a1.0001 1.0001 0 0 0 0.29297 0.70703l0.35547 0.35352-0.35547 0.35547a1.0001 1.0001 0 0 0 -0.293 0.707v1.406a1.0001 1.0001 0 0 0 1 1h1.4375a1.0001 1.0001 0 0 0 0.70703 -0.29297l0.355-0.355 0.355 0.355a1.0001 1.0001 0 0 0 0.707 0.293h1.438a1.0001 1.0001 0 0 0 1 -1v-1.406a1.0001 1.0001 0 0 0 -0.303 -0.717l-0.355-0.346 0.355-0.345a1.0001 1.0001 0 0 0 0.303 -0.717v-1.469a1.0001 1.0001 0 0 0 -1 -1h-1.4062a1.0001 1.0001 0 0 0 -0.70703 0.29297l-0.39648 0.39648-0.41797-0.40625a1.0001 1.0001 0 0 0 -0.698 -0.283z" transform="translate(-1,-1)" fill="#333"/>
 <path style="color:#f1f2f2" d="m10 10h1.375l1.125 1.094 1.094-1.094h1.406v1.469l-1.094 1.062 1.094 1.063v1.406h-1.438l-1.062-1.063-1.063 1.063h-1.437v-1.406l1.062-1.063-1.062-1.061z" overflow="visible" fill="#c00"/>
</svg>
