<?xml version="1.0" encoding="UTF-8" standalone="no"?>
<svg xmlns="http://www.w3.org/2000/svg" version="1.1" viewBox="0 0 16 16">
 <path opacity=".5" d="m1.4551 1c-0.80502 0-1.4551 0.6529-1.4551 1.4629v13.537l4.0723-3.99h5.9277v-1.51c0-0.277 0.223-0.5 0.5-0.5h5c0.277 0 0.5 0.223 0.5 0.5v-8.0371c0-0.81-0.649-1.4629-1.455-1.4629h-13.09zm4.5449 2h1v1h-1v5h1v1h-1c-1 0-1 0-1-1v-5c0-1 0-1 1-1zm2.1992 2h2.6018c0.111 0 0.197 0.0872 0.197 0.1992v0.6016c0 0.112-0.086 0.1992-0.197 0.1992h-2.6018c-0.109 0-0.1992-0.0872-0.1992-0.1992v-0.6016c0-0.112 0.0872-0.1992 0.1992-0.1992zm0 2h2.6018c0.111 0 0.197 0.0872 0.197 0.1992v0.6016c0 0.112-0.086 0.1992-0.197 0.1992h-2.6018c-0.109 0-0.1992-0.0872-0.1992-0.1992v-0.6016c0-0.112 0.0872-0.1992 0.1992-0.1992z" fill="#f1f2f2"/>
 <path style="color:#f1f2f2" d="m11 10a1.0001 1.0001 0 0 0 -1 1v1.4707a1.0001 1.0001 0 0 0 0.29297 0.70703l0.35547 0.35352-0.35547 0.35547a1.0001 1.0001 0 0 0 -0.293 0.707v1.406a1.0001 1.0001 0 0 0 1 1h1.4375a1.0001 1.0001 0 0 0 0.70703 -0.29297l0.355-0.355 0.355 0.355a1.0001 1.0001 0 0 0 0.707 0.293h1.438a1.0001 1.0001 0 0 0 1 -1v-1.406a1.0001 1.0001 0 0 0 -0.303 -0.717l-0.355-0.346 0.355-0.345a1.0001 1.0001 0 0 0 0.303 -0.717v-1.469a1.0001 1.0001 0 0 0 -1 -1h-1.4062a1.0001 1.0001 0 0 0 -0.70703 0.29297l-0.39648 0.39648-0.41797-0.40625a1.0001 1.0001 0 0 0 -0.698 -0.283z" transform="translate(-1,-1)" fill="#333"/>
 <path style="color:#f1f2f2" fill="#c00" overflow="visible" d="m10 10h1.375l1.125 1.094 1.093-1.094h1.407v1.469l-1.094 1.062 1.094 1.063v1.406h-1.438l-1.062-1.063-1.063 1.063h-1.437v-1.406l1.062-1.063-1.062-1.061z"/>
</svg>
