<?xml version="1.0" encoding="UTF-8" standalone="no"?>
<svg id="svg4" xmlns="http://www.w3.org/2000/svg" viewBox="0 0 16 16" version="1.1"><path id="path2" style="stroke-width:1.1667;fill:#f1f2f2" d="m2.3848 1c-0.7747 0-1.3848 0.6402-1.3848 1.4219v11.156c0 0.782 0.6113 1.422 1.3848 1.422h11.228c0.775 0 1.387-0.64 1.387-1.422v-11.154c0-0.7832-0.612-1.424-1.387-1.424h-11.228zm0.1152 1h1c0.277 0 0.5 0.223 0.5 0.5v1c0 0.277-0.223 0.5-0.5 0.5h-1c-0.277 0-0.5-0.223-0.5-0.5v-1c0-0.277 0.223-0.5 0.5-0.5zm10 0h1c0.277 0 0.5 0.223 0.5 0.5v1c0 0.277-0.223 0.5-0.5 0.5h-1c-0.277 0-0.5-0.223-0.5-0.5v-1c0-0.277 0.223-0.5 0.5-0.5zm-4.5 2a4 4 0 0 1 3.459 2h-3.4414c-0.006-0.0001-0.0116-0.002-0.0176-0.002s-0.0116 0.0019-0.0176 0.002h-1.2636c-0.2708-0.5469-0.7277-0.9856-1.3633-0.9961a4 4 0 0 1 2.6445 -1.0039zm-1.2812 6h1.2636c0.006 0 0.0116 0.002 0.0176 0.002s0.0116-0.002 0.0176-0.002h3.4414a4 4 0 0 1 -3.459 2 4 4 0 0 1 -2.6426 -1.004c0.6346-0.011 1.0909-0.45 1.3614-0.996zm-4.2188 2h1c0.277 0 0.5 0.223 0.5 0.5v1c0 0.277-0.223 0.5-0.5 0.5h-1c-0.277 0-0.5-0.223-0.5-0.5v-1c0-0.277 0.223-0.5 0.5-0.5zm10 0h1c0.277 0 0.5 0.223 0.5 0.5v1c0 0.277-0.223 0.5-0.5 0.5h-1c-0.277 0-0.5-0.223-0.5-0.5v-1c0-0.277 0.223-0.5 0.5-0.5z"/><path id="rect817" style="paint-order:fill markers stroke;fill:#333333" d="m2.666 6c-0.3693 0-0.666 0.2967-0.666 0.666v2.668c0 0.3693 0.2967 0.666 0.666 0.666h2.668c0.3693 0 0.666-0.2967 0.666-0.666v-0.334h7c0.554 0 1-0.446 1-1s-0.446-1-1-1h-7v-0.334c0-0.3693-0.2967-0.666-0.666-0.666z"/></svg>
