<?xml version="1.0" encoding="UTF-8" standalone="no"?>
<svg xmlns="http://www.w3.org/2000/svg" version="1.1" viewBox="0 0 16 16">
 <path d="m8.0293 0c-0.2902-0.0081609-0.5696 0.11015-0.7656 0.32422l-1.8262 1.9922-2.7969-0.9414c-0.7824-0.2616-1.5272 0.4832-1.2656 1.2656l0.9414 2.7969-1.9922 1.8262c-0.4311 0.39623-0.4311 1.0764 0 1.4727l1.9922 1.8256-0.9414 2.797c-0.2616 0.783 0.4832 1.528 1.2656 1.266l2.7969-0.941 1.8262 1.992c0.39639 0.43252 1.0782 0.43252 1.4746 0l1.8227-1.992 2.798 0.941c0.783 0.262 1.528-0.483 1.266-1.266l-0.941-2.797 1.992-1.8257c0.4311-0.39623 0.4311-1.0764 0-1.4727l-1.992-1.8261 0.941-2.7969c0.262-0.7824-0.483-1.5272-1.266-1.2656l-2.798 0.9414-1.8227-1.9922c-0.1828-0.19951-0.4385-0.31648-0.709-0.3242z" fill-rule="evenodd" fill="#333"/>
 <path d="m8 1-2.265 2.471-3.412-1.148 1.147 3.412-2.47 2.265 2.47 2.265-1.147 3.412 3.412-1.148 2.265 2.471 2.264-2.471 3.413 1.148-1.148-3.412 2.471-2.265-2.471-2.265 1.148-3.412-3.413 1.148zm-0.993 3.091h1.986v4.933h-1.986zm1.024 5.646c1.696 0 1.696 2.544 0 2.544s-1.696-2.544 0-2.544z" fill-rule="evenodd" class="warning" fill="#f60"/>
</svg>
