<?xml version="1.0" encoding="UTF-8" standalone="no"?>
<svg xmlns="http://www.w3.org/2000/svg" viewBox="0 0 16 16" version="1.1">
 <path fill="#f1f2f2" d="m1 3v6h2v-6h-2zm4 0v10h2v-8h2v2h2v-2h2v2h2v-4h-10zm-4 8v2h2v-2h-2z"/>
 <rect ry="1" height="9" width="9" y="7" x="7" fill="#333"/>
 <path style="color:#f1f2f2" d="m8.8755 8.0615c-0.48317-0.0084-0.87844 0.38276-0.875 0.866v5.1955c-0.0046 0.48402 0.39104 0.87646 0.875 0.868h5.249c0.48396 0.0085 0.87958-0.38398 0.875-0.868v-5.1945c0.0046-0.48402-0.39104-0.87646-0.875-0.868zm2.1245 0.99h1v2.9665h-1zm0 3.9575h1v0.991h-1z" class="warning" overflow="visible" fill="#5e86d7"/>
</svg>
