<?xml version="1.0" encoding="UTF-8" standalone="no"?>
<svg xmlns="http://www.w3.org/2000/svg" version="1.1" viewBox="0 0 16 16">
 <path style="text-decoration-line:none;text-transform:none;text-indent:0" d="m3.469 1c-1.3646-0.00166-2.4716 1.1044-2.471 2.469v9.062c-0.00056 1.365 1.1076 2.472 2.473 2.469h7.529v-1h-7.53c-0.8178 0.015-1.4849-0.651-1.47-1.469v-9.06c0-0.833 0.637-1.471 1.469-1.471h9.061c0.687 0 1.234 0.437 1.406 1.057l-5.436 5.318-1.938-1.938-2.124 2.126 3 3 1.062 1.063 1.063-1.063 0.437-0.449 1.084-1.114 2.916-2.996v3.996h1v-7.53c0.001-1.3646-1.105-2.4711-2.47-2.47h-9.062z" overflow="visible" font-weight="400" fill="#f1f2f2"/>
 <path d="m13 10a1.0001 1.0001 0 0 0 -1 1v1h-1a1.0001 1.0001 0 0 0 -0.83203 1.5547l2 3a1.0001 1.0001 0 0 0 0.832 0.445h1a1.0001 1.0001 0 0 0 0.83203 -0.44531l2-3a1.0001 1.0001 0 0 0 -0.832 -1.555h-1v-1a1.0001 1.0001 0 0 0 -1 -1z" transform="translate(-1,-1)" fill="#333"/>
 <path fill="#c00" d="m15 12-2 3h-1l-2-3h2v-2h1v2z"/>
</svg>
