<?xml version="1.0" encoding="UTF-8" standalone="no"?>
<svg xmlns="http://www.w3.org/2000/svg" version="1.1" viewBox="0 0 16 16">
 <path style="text-decoration-line:none;text-transform:none;text-indent:0" fill="#f1f2f2" d="m3.4688 1c-1.3646-0.00166-2.4714 1.1042-2.4708 2.4688l0.00005 9.0622c-0.00056 1.365 1.1072 2.472 2.4726 2.469h7.5294v-1h-7.5293c-0.8178 0.015-1.4856-0.651-1.4707-1.469v-9.0603c0-0.833 0.6368-1.4707 1.4688-1.4707h9.0602c0.687 0 1.235 0.4366 1.407 1.0566l-0.088 0.086c0.093 0.0907 0.152 0.2163 0.152 0.3574v3.5039 3.9961h1v-7.5293c0.001-1.3646-1.106-2.4718-2.471-2.4707h-9.0602z"/>
 <path fill="#333" d="m12 15.999a1.0001 1.0001 0 0 1 -1 -1v-1h-1a1.0001 1.0001 0 0 1 -0.83203 -1.5547l2-3a1.0001 1.0001 0 0 1 0.832 -0.445h1a1.0001 1.0001 0 0 1 0.832 0.4457l2 3a1.0001 1.0001 0 0 1 -0.832 1.555h-1v1a1.0001 1.0001 0 0 1 -1 1z"/>
 <path fill="#690" d="m15 12.999-2-3h-1l-2 3h2v2h1v-2z"/>
</svg>
