<?xml version="1.0" encoding="UTF-8" standalone="no"?>
<svg xmlns="http://www.w3.org/2000/svg" version="1.1" viewBox="0 0 16 16">
 <path style="color:#000000;text-decoration-line:none;text-transform:none;text-indent:0" d="m3.4375 0c-1.9075 0-3.5 1.5515-3.5 3.4688v9.0625c0 1.9178 1.593 3.4688 3.5 3.4688h9.125c1.9075 0 3.5-1.5515 3.5-3.4688v-9.0603c0-1.9184-1.592-3.4707-3.5-3.4707zm0.033203 3h9.0913c0.33867 0 0.5 0.16729 0.5 0.46875v9.0625c0 0.29982-0.16212 0.46875-0.5 0.46875h-9.125c-0.33707 0-0.5-0.1681-0.5-0.46875v-9.0603c0-0.29901 0.16372-0.46875 0.5-0.46875a1.0001 1.0001 0 0 0 0.0337 -0.002z" fill="#333"/>
 <path style="text-decoration-line:none;text-transform:none;text-indent:0" font-family="Sans" d="m3.437 1c-1.373 0-2.5 1.101-2.5 2.469v9.062c0 1.369 1.127 2.469 2.5 2.469h9.125c1.373 0 2.5-1.101 2.5-2.469v-9.061c0-1.37-1.127-2.47-2.5-2.47zm0 1h9.125c0.844 0 1.5 0.64 1.5 1.469v9.062c0 0.828-0.656 1.469-1.5 1.469h-9.125c-0.843 0-1.5-0.64-1.5-1.469v-9.061c0-0.828 0.657-1.469 1.5-1.469z" overflow="visible" font-weight="400" fill="#5e86d7"/>
</svg>
