<?xml version="1.0" encoding="UTF-8" standalone="no"?>
<svg
   xmlns:dc="http://purl.org/dc/elements/1.1/"
   xmlns:cc="http://creativecommons.org/ns#"
   xmlns:rdf="http://www.w3.org/1999/02/22-rdf-syntax-ns#"
   xmlns:svg="http://www.w3.org/2000/svg"
   xmlns="http://www.w3.org/2000/svg"
   id="svg6"
   viewBox="0 0 16 16"
   version="1.1">
  <metadata
     id="metadata12">
    <rdf:RDF>
      <cc:Work
         rdf:about="">
        <dc:format>image/svg+xml</dc:format>
        <dc:type
           rdf:resource="http://purl.org/dc/dcmitype/StillImage" />
        <dc:title></dc:title>
      </cc:Work>
    </rdf:RDF>
  </metadata>
  <defs
     id="defs10" />
  <path
     style="fill:#f1f2f2"
     id="path2"
     d="M 2.5,1 C 1.669,1 1,1.669 1,2.5 v 11 C 1,14.331 1.669,15 2.5,15 h 11 C 14.331,15 15,14.331 15,13.5 V 2.5 C 15,1.669 14.331,1 13.5,1 Z m 0,1 h 11 C 13.794,2 14,2.2057 14,2.5 v 11 C 14,13.794 13.794,14 13.5,14 H 2.5 C 2.2057,14 2,13.794 2,13.5 V 2.5 C 2,2.2057 2.2057,2 2.5,2 Z" />
  <rect
     style="fill:#f1f2f2"
     id="rect4"
     x="4"
     y="4"
     width="8"
     height="8"
     ry="1" />
</svg>
