<?xml version="1.0" encoding="UTF-8" standalone="no"?>
<svg xmlns="http://www.w3.org/2000/svg" version="1.1" xmlns:xlink="http://www.w3.org/1999/xlink" viewBox="0 0 16 16">
 <defs>
  <linearGradient id="linearGradient872" y2="8" gradientUnits="userSpaceOnUse" x2="14" y1="8" x1="2">
   <stop stop-color="#f1f2f2" offset="0"/>
   <stop stop-color="#f1f2f2" stop-opacity="0" offset="1"/>
  </linearGradient>
 </defs>
 <path d="m2.5 1c-0.831 0-1.5 0.669-1.5 1.5v11c0 0.831 0.669 1.5 1.5 1.5h11c0.831 0 1.5-0.669 1.5-1.5v-11c0-0.831-0.669-1.5-1.5-1.5h-11zm0 1h11c0.294 0 0.5 0.2057 0.5 0.5v11c0 0.294-0.206 0.5-0.5 0.5h-11c-0.2943 0-0.5-0.206-0.5-0.5v-11c0-0.2943 0.2057-0.5 0.5-0.5z" fill="#f1f2f2"/>
 <path opacity=".5" d="m2.5 2c-0.2943 0-0.5 0.2057-0.5 0.5v11c0 0.294 0.2057 0.5 0.5 0.5h11c0.294 0 0.5-0.206 0.5-0.5v-11c0-0.2943-0.206-0.5-0.5-0.5z" fill="url(#linearGradient872)"/>
</svg>
