<?xml version="1.0" encoding="UTF-8" standalone="no"?>
<svg xmlns="http://www.w3.org/2000/svg" viewBox="0 0 16 16" version="1.1">
 <path d="m2 1c-0.554 0-1 0.446-1 1v12c0 0.554 0.446 1 1 1h12c0.554 0 1-0.446 1-1v-12c0-0.554-0.446-1-1-1h-12zm4 2l5 3-5 3v-6zm-2.334 8h8.668c0.369 0 0.666 0.297 0.666 0.666v0.668c0 0.369-0.297 0.666-0.666 0.666h-8.668c-0.3693 0-0.666-0.297-0.666-0.666v-0.668c0-0.369 0.2967-0.666 0.666-0.666z" fill="#f1f2f2"/>
 <rect opacity=".7" ry=".66667" height="2" width="6" y="11" x="3" fill="#f1f2f2"/>
</svg>
