<?xml version="1.0" encoding="UTF-8" standalone="no"?>
<svg id="svg4" xmlns="http://www.w3.org/2000/svg" version="1.1" viewBox="0 0 16 16"><path id="path2" style="text-decoration-color:#000;isolation:auto;mix-blend-mode:normal;text-indent:0;text-decoration-line:none;text-transform:none;text-decoration-style:solid" font-family="sans-serif" d="m2.06 1.02c-1.123 0-2.06 0.936-2.06 2.06v11.197c0 0.448 0.36 0.743 0.809 0.743h14.381c0.449 0 0.809-0.295 0.809-0.743v-2.277h0.025v-8.92c0-1.124-0.936-2.06-2.06-2.06h-5.79zm7.95 2.074h3.976v0.927h-3.976zm-7.95 1.926h11.905c0.05 0 0.06 0.01 0.06 0.06v7.94h-12.025v-0.684h0.025c-0.005-0.043-0.025-0.08-0.025-0.126v-7.13c0-0.05 0.01-0.06 0.06-0.06zm12.94 7.072v0.119c0 0.011-0.005 0.02-0.006 0.031z" white-space="normal" overflow="visible" font-weight="400" fill="#f1f2f2"/><rect id="rect819" style="paint-order:fill markers stroke;fill:#f1f2f2" height="6" width="4" y="6" x="3"/></svg>
