<?xml version="1.0" encoding="UTF-8" standalone="no"?>
<svg xmlns="http://www.w3.org/2000/svg" version="1.1" viewBox="0 0 16 16">
 <g fill="#f1f2f2">
  <path d="m1.332 1c-0.1845 0-0.332 0.1475-0.332 0.332v13.336c0 0.184 0.1475 0.332 0.332 0.332h13.336c0.184 0 0.332-0.148 0.332-0.332v-13.336c0-0.1845-0.148-0.332-0.332-0.332h-1.668v1.668c0 0.1845-0.148 0.332-0.332 0.332h-1.336c-0.184 0-0.332-0.1475-0.332-0.332v-1.668h-6v1.668c0 0.1845-0.1475 0.332-0.332 0.332h-1.336c-0.1845 0-0.332-0.1475-0.332-0.332v-1.668h-1.668zm1 3h11.336c0.184 0 0.332 0.1475 0.332 0.332v9.336c0 0.184-0.148 0.332-0.332 0.332h-11.336c-0.1845 0-0.332-0.148-0.332-0.332v-9.336c0-0.1845 0.1475-0.332 0.332-0.332z"/>
  <path stroke-width=".5" d="m7 11h5v1h-5z"/>
  <circle cx="4.5" cy="6.5" r="1.5" stroke-width=".86603"/>
  <circle cx="4.5" cy="11.5" stroke-width=".86603" r="1.5"/>
  <path stroke-width=".5" d="m7 6h5v1h-5z"/>
 </g>
 <rect ry="1" height="9" width="9" y="6.982" x="7" fill="#333"/>
 <path style="color:#f1f2f2" d="m8.8755 8.0435c-0.4832-0.0084-0.8784 0.3828-0.875 0.866v5.1955c-0.0046 0.48402 0.39104 0.87646 0.875 0.868h5.249c0.48396 0.0085 0.87958-0.38398 0.875-0.868v-5.1945c0.005-0.484-0.391-0.8765-0.875-0.868zm2.1245 0.99h1v2.9665h-1zm0 3.9575h1v0.991h-1z" class="warning" overflow="visible" fill="#f60"/>
</svg>
