<?xml version="1.0" encoding="UTF-8" standalone="no"?>
<svg xmlns="http://www.w3.org/2000/svg" version="1.1" viewBox="0 0 16 16">
 <g fill="#f1f2f2">
  <path d="m4.031 5.031-0.031 7.969h4l4-4v-4z"/>
  <path d="m5.53 0h5.002c0.29271 0 0.53 0.23729 0.53 0.53v2.94c0 0.2927-0.237 0.53-0.53 0.53h-5.002c-0.2927 0-0.53-0.2373-0.53-0.53v-2.94c0-0.29271 0.2373-0.53 0.53-0.53z"/>
  <path stroke-width=".92582" d="m2.5 1c-0.277 0-0.5 0.223-0.5 0.5v13c0 0.277 0.223 0.5 0.5 0.5h11c0.277 0 0.5-0.223 0.5-0.5v-13c0-0.277-0.223-0.5-0.5-0.5h-1.438v1h0.938v12h-10v-12h1v-1h-1.5z" fill="#f1f2f2"/>
 </g>
 <path style="color:#f1f2f2" fill="#333" d="m10 9a1.0001 1.0001 0 0 0 -1 1v1.4707a1.0001 1.0001 0 0 0 0.29297 0.70703l0.35547 0.35352-0.35547 0.35547a1.0001 1.0001 0 0 0 -0.293 0.707v1.406a1.0001 1.0001 0 0 0 1 1h1.4375a1.0001 1.0001 0 0 0 0.70703 -0.29297l0.355-0.355 0.355 0.355a1.0001 1.0001 0 0 0 0.707 0.293h1.438a1.0001 1.0001 0 0 0 1 -1v-1.406a1.0001 1.0001 0 0 0 -0.303 -0.717l-0.355-0.346 0.355-0.345a1.0001 1.0001 0 0 0 0.303 -0.717v-1.469a1.0001 1.0001 0 0 0 -1 -1h-1.407a1.0001 1.0001 0 0 0 -0.707 0.2927l-0.396 0.3965-0.418-0.4062a1.0001 1.0001 0 0 0 -0.698 -0.283z"/>
 <path style="color:#f1f2f2" d="m10 10h1.375l1.125 1.094 1.094-1.094h1.406v1.469l-1.094 1.062 1.094 1.063v1.406h-1.438l-1.062-1.063-1.063 1.063h-1.437v-1.406l1.063-1.063-1.063-1.061z" overflow="visible" fill="#c00"/>
</svg>
