<?xml version="1.0" encoding="UTF-8" standalone="no"?>
<svg xmlns="http://www.w3.org/2000/svg" version="1.1" xmlns:xlink="http://www.w3.org/1999/xlink" viewBox="0 0 16 16">
 <g fill="#f1f2f2">
  <path d="m15.219 1.4907s-4.2546 1.9177-6.1064 3.3065l-2.4534 1.84-1.1402 1.8256c-0.4355 0.151-0.519 0.9305-0.519 1.155 0 0.28359 0.2341 0.51848 0.51847 0.51848 0.22513 0 0.96142-0.0445 1.0874-0.4059l1.7682 0.1697 0.4744-0.3442 0.431 0.5171 1.1595-0.8993-0.422-0.5084 0.983-0.6653c1.9346-1.3092 4.7854-5.8493 4.7854-5.8493 0.3266-0.37991-0.09485-0.90453-0.56664-0.65997z"/>
  <path style="color-rendering:auto;text-decoration-color:#000000;color:#000000;font-variant-numeric:normal;shape-rendering:auto;font-variant-ligatures:normal;text-decoration-line:none;font-variant-position:normal;mix-blend-mode:normal;solid-color:#000000;font-feature-settings:normal;shape-padding:0;font-variant-alternates:normal;text-indent:0;dominant-baseline:auto;font-variant-caps:normal;image-rendering:auto;white-space:normal;text-decoration-style:solid;text-orientation:mixed;isolation:auto;text-transform:none" d="m15.023 8.9766c-0.45845 0.00303-0.90923 0.13608-1.2969 0.38086-0.38765 0.24477-0.70058 0.59324-0.90039 1.0059-0.25183 0.52005-0.30176 0.99481-0.45117 1.3047-0.07329 0.15199-0.16655 0.27097-0.25977 0.33398-0.0458 0.03098-0.09398 0.05036-0.13476 0.05859-0.03911 0.0079-0.07841 0.0054-0.10352-0.002-0.02698-0.0079-0.06805-0.03069-0.10742-0.06836-0.04077-0.03897-0.08334-0.0964-0.12305-0.16992-0.08014-0.14838-0.14227-0.36484-0.24219-0.625-0.14499-0.37748-0.34565-0.73146-0.59375-1.0508l-0.78906 0.61328c0.18758 0.24142 0.3396 0.51147 0.44922 0.79688 0.07576 0.19724 0.14416 0.45749 0.29688 0.74023 0.07671 0.14204 0.17618 0.28764 0.3125 0.41797 0.13771 0.13174 0.30942 0.2438 0.51758 0.30469 0.19594 0.05726 0.39341 0.06114 0.58008 0.02344 0.185-0.03736 0.35304-0.11284 0.49805-0.21094 0.2884-0.19496 0.47479-0.46363 0.60156-0.72656 0.25071-0.51998 0.29952-0.99556 0.44922-1.3047 0.11693-0.24146 0.30832-0.45443 0.53516-0.59766 0.22684-0.14324 0.4993-0.22284 0.76758-0.22461z"/>
  <g fill-rule="evenodd">
   <rect opacity=".5" style="color:#000000;enable-background:new" height="1" width="1" y="10" x="4"/>
   <rect opacity=".4" style="color:#000000;enable-background:new" height="1" width="1" y="11" x="3"/>
   <rect opacity=".3" style="color:#000000;enable-background:new" height="1" width="1" y="12" x="4"/>
   <rect opacity=".1" style="color:#000000;enable-background:new" height="1" width="1" y="13" x="3"/>
   <rect opacity=".28395" style="color:#000000;enable-background:new" height="1" width="1" y="12" x="2"/>
   <rect opacity=".23868" style="color:#000000;enable-background:new" height="1" width="1" y="13" x="1"/>
   <rect opacity=".05" style="color:#000000;enable-background:new" height="1" width="1" y="12" x="0"/>
   <rect opacity=".05" style="color:#000000;enable-background:new" height="1" width="1" y="11" x="1"/>
   <rect opacity=".05" style="color:#000000;enable-background:new" height="1" width="1" y="14" x="2"/>
   <rect opacity=".05" style="color:#000000;enable-background:new" height="1" width="1" y="14" x="0"/>
   <rect opacity=".05" style="color:#000000;enable-background:new" height="1" width="1" y="15" x="1"/>
   <rect opacity=".05" style="color:#000000;enable-background:new" height="1" width="1" y="15" x="3"/>
  </g>
 </g>
</svg>
