<?xml version="1.0" encoding="UTF-8" standalone="no"?>
<svg id="svg7384" xmlns="http://www.w3.org/2000/svg" viewBox="0 0 16 16" version="1.1"><title id="title9167">Gnome Symbolic Icon Theme</title><g id="g4147" style="fill:#bebebe" transform="matrix(1.3889 0 0 1.3889 -3.0104 -3.5159)"><g id="flowRoot4140" style="fill:#f1f2f2" transform="matrix(.74209 0 0 1.0714 2.47 -1.0056)"><path id="path4160" style="fill:#f1f2f2" d="m6.3839 12.037-0.5822-2.016h-2.7166l-0.58214 2.016h-1.9405l2.8345-6.7197h2.0819l2.8455 6.72zm-0.9702-3.3598l-0.97023-2.016-0.97023 2.016z"/></g><g id="flowRoot4148" style="fill:#bebebe" transform="matrix(1.0956 0 0 1.2544 -.50361 -2.1427)"><path id="path4157" style="stroke-width:1.6282px;fill:#f1f2f2" d="m12.201 6c-0.943 0-1.802 0.3485-2.201 1l1 1h1c1 0 1 1e-7 1 1h-1c-0.81019 0.040441-1.8504 1.0526-2 2.5605 0 0.78094 0.18363 1.3821 0.55273 1.8047 0.373 0.423 0.883 0.635 1.529 0.635 0.918 0 1.304 0 1.918-1v1h1v-5.2715c0-0.9187-0.241-1.6025-0.723-2.0527-0.481-0.4502-1.173-0.6758-2.076-0.6758zm0.299 4h0.5v1.5c0 0.831 0.054 1.5-0.5 1.5s-1-0.669-1-1.5 0.446-1.5 1-1.5z" transform="matrix(.65720 0 0 .57398 2.4381 3.1523)"/></g></g></svg>
