/* XPM */
static char * desktop_xpm[] = {
"32 32 28 1",
" 	c None",
".	c #141313",
"+	c #828282",
"@	c #EEEFEF",
"#	c #F1F2F2",
"$	c #848484",
"%	c #868585",
"&	c #EFEFEF",
"*	c #807F7F",
"=	c #EEEEEE",
"-	c #2D2C2C",
";	c #8B8B8B",
">	c #666666",
",	c #656464",
"'	c #898B8B",
")	c #959595",
"!	c #8C8E8E",
"~	c #909292",
"{	c #212020",
"]	c #5E5E5E",
"^	c #606060",
"/	c #242323",
"(	c #898989",
"_	c #828181",
":	c #969696",
"<	c #8D8F8F",
"[	c #2C2C2C",
"}	c #7F7E7E",
"................................",
"................................",
"................................",
"................................",
"..+@####@$............%@####&*..",
"..&######@............@######=..",
"..#######@.-########-.@#######..",
"..#######;.>########,.'#######..",
"..######)..............!######..",
"..#####)................!#####..",
"..@###~..................~###@..",
"..$@&;....................;@@+..",
"................................",
"....->....................>-....",
"....##....................##....",
"....##....................##....",
"....##....................##....",
"....##....................##....",
"....{]....................^/....",
"................................",
"..*=@(....................(=&_..",
"..&###~..................~###=..",
"..#####:................<#####..",
"..######:..............<######..",
"..#######'.>########,.'#######..",
"..#######@.-########[.@#######..",
"..&######@............@######=..",
"..*&####@+............$@####=}..",
"................................",
"................................",
"................................",
"................................"};
