/* XPM */
static char * restoreI_xpm[] = {
"32 48 7 1",
" 	c None",
".	c #323131",
"+	c #656666",
"@	c #141313",
"#	c #4d4b4b",
"$	c #F1F2F2",
"%	c #F2F2F2",
"................................",
"................................",
"................................",
"................................",
"..................++..++........",
"..................++.+++........",
"..................+++++.........",
"..................++++..........",
"..................++++++........",
"..................++++++........",
"........++++++++++..............",
"........++++++++++..............",
"........++++++++++..............",
"........++++++++++..............",
"........++......++..............",
"........++......++..............",
"........++......++..............",
"........++......++..............",
"........++++++++++..............",
"........++++++++++..............",
"................................",
"................................",
"................................",
"@@@@@@@@@@@@@@@@@@@@@@@@@@@@@@@@",
"################################",
"################################",
"################################",
"################################",
"##################$$##$$########",
"##################$$#$$%########",
"##################$$$$$#########",
"##################$$$$##########",
"##################$$$$$$########",
"##################$$$$$$########",
"########$$$$$$$$$$##############",
"########$$$$$$$$$$##############",
"########$$$$$$$$$$##############",
"########$$$$$$$$$$##############",
"########$$######$$##############",
"########$$######$$##############",
"########$$######$$##############",
"########$$######$$##############",
"########$$$$$$$$$$##############",
"########$$$$$$$$$$##############",
"################################",
"################################",
"################################",
"@@@@@@@@@@@@@@@@@@@@@@@@@@@@@@@@"};
