/* XPM */
static char * rolldownA_xpm[] = {
"32 48 6 1",
" 	c None",
".	c #323131",
"+	c #F1F2F2",
"@	c #F2F2F2",
"#	c #141313",
"$	c #4d4b4b",
"................................",
"................................",
"................................",
"................................",
"..................++..++........",
"..................++.++@........",
"..................+++++.........",
"..................++++..........",
"..................++++++........",
"..................++++++........",
"........++++++++++..............",
"........++++++++++..............",
"........++++++++++..............",
"........++++++++++..............",
"........++......++..............",
"........++......++..............",
"........++......++..............",
"........++......++..............",
"........++++++++++..............",
"........++++++++++..............",
"................................",
"................................",
"................................",
"################################",
"$$$$$$$$$$$$$$$$$$$$$$$$$$$$$$$$",
"$$$$$$$$$$$$$$$$$$$$$$$$$$$$$$$$",
"$$$$$$$$$$$$$$$$$$$$$$$$$$$$$$$$",
"$$$$$$$$$$$$$$$$$$$$$$$$$$$$$$$$",
"$$$$$$$$$$$$$$$$$$++$$++$$$$$$$$",
"$$$$$$$$$$$$$$$$$$++$++@$$$$$$$$",
"$$$$$$$$$$$$$$$$$$+++++$$$$$$$$$",
"$$$$$$$$$$$$$$$$$$++++$$$$$$$$$$",
"$$$$$$$$$$$$$$$$$$++++++$$$$$$$$",
"$$$$$$$$$$$$$$$$$$++++++$$$$$$$$",
"$$$$$$$$++++++++++$$$$$$$$$$$$$$",
"$$$$$$$$++++++++++$$$$$$$$$$$$$$",
"$$$$$$$$++++++++++$$$$$$$$$$$$$$",
"$$$$$$$$++++++++++$$$$$$$$$$$$$$",
"$$$$$$$$++$$$$$$++$$$$$$$$$$$$$$",
"$$$$$$$$++$$$$$$++$$$$$$$$$$$$$$",
"$$$$$$$$++$$$$$$++$$$$$$$$$$$$$$",
"$$$$$$$$++$$$$$$++$$$$$$$$$$$$$$",
"$$$$$$$$++++++++++$$$$$$$$$$$$$$",
"$$$$$$$$++++++++++$$$$$$$$$$$$$$",
"$$$$$$$$$$$$$$$$$$$$$$$$$$$$$$$$",
"$$$$$$$$$$$$$$$$$$$$$$$$$$$$$$$$",
"$$$$$$$$$$$$$$$$$$$$$$$$$$$$$$$$",
"################################"};
