/* XPM */
static char * maximizeA_xpm[] = {
"64 96 5 1",
" 	c None",
".	c #323131",
"+	c #FFFFFF",
"@	c #141313",
"#	c #4D4B4B",
"................................................................",
"................................................................",
"................................................................",
"................................................................",
"................................................................",
"................................................................",
"................................................................",
"................................................................",
"................................................................",
"................................................................",
"................................................................",
"................................................................",
"....................++++++++++++++++++++++++....................",
"....................++++++++++++++++++++++++....................",
"....................++++++++++++++++++++++++....................",
"....................++++++++++++++++++++++++....................",
"....................++++++++++++++++++++++++....................",
"....................++++++++++++++++++++++++....................",
"....................++++++............++++++....................",
"....................++++++............++++++....................",
"....................++++++............++++++....................",
"....................++++++............++++++....................",
"....................++++++............++++++....................",
"....................++++++............++++++....................",
"....................++++++............++++++....................",
"....................++++++............++++++....................",
"....................++++++............++++++....................",
"....................++++++............++++++....................",
"....................++++++............++++++....................",
"....................++++++............++++++....................",
"....................++++++++++++++++++++++++....................",
"....................++++++++++++++++++++++++....................",
"....................++++++++++++++++++++++++....................",
"....................++++++++++++++++++++++++....................",
"....................++++++++++++++++++++++++....................",
"....................++++++++++++++++++++++++....................",
"................................................................",
"................................................................",
"................................................................",
"................................................................",
"................................................................",
"................................................................",
"................................................................",
"................................................................",
"................................................................",
"................................................................",
"@@@@@@@@@@@@@@@@@@@@@@@@@@@@@@@@@@@@@@@@@@@@@@@@@@@@@@@@@@@@@@@@",
"@@@@@@@@@@@@@@@@@@@@@@@@@@@@@@@@@@@@@@@@@@@@@@@@@@@@@@@@@@@@@@@@",
"################################################################",
"################################################################",
"################################################################",
"################################################################",
"################################################################",
"################################################################",
"################################################################",
"################################################################",
"################################################################",
"################################################################",
"################################################################",
"################################################################",
"####################++++++++++++++++++++++++####################",
"####################++++++++++++++++++++++++####################",
"####################++++++++++++++++++++++++####################",
"####################++++++++++++++++++++++++####################",
"####################++++++++++++++++++++++++####################",
"####################++++++++++++++++++++++++####################",
"####################++++++############++++++####################",
"####################++++++############++++++####################",
"####################++++++############++++++####################",
"####################++++++############++++++####################",
"####################++++++############++++++####################",
"####################++++++############++++++####################",
"####################++++++############++++++####################",
"####################++++++############++++++####################",
"####################++++++############++++++####################",
"####################++++++############++++++####################",
"####################++++++############++++++####################",
"####################++++++############++++++####################",
"####################++++++++++++++++++++++++####################",
"####################++++++++++++++++++++++++####################",
"####################++++++++++++++++++++++++####################",
"####################++++++++++++++++++++++++####################",
"####################++++++++++++++++++++++++####################",
"####################++++++++++++++++++++++++####################",
"################################################################",
"################################################################",
"################################################################",
"################################################################",
"################################################################",
"################################################################",
"################################################################",
"################################################################",
"################################################################",
"################################################################",
"@@@@@@@@@@@@@@@@@@@@@@@@@@@@@@@@@@@@@@@@@@@@@@@@@@@@@@@@@@@@@@@@",
"@@@@@@@@@@@@@@@@@@@@@@@@@@@@@@@@@@@@@@@@@@@@@@@@@@@@@@@@@@@@@@@@"};
