/* XPM */
static char * closeA_xpm[] = {
"64 96 39 1",
" 	c None",
".	c #323131",
"+	c #5F5F5F",
"@	c #CACACA",
"#	c #3F3E3E",
"$	c #3D3C3C",
"%	c #C8C8C8",
"&	c #636363",
"*	c #F3F3F3",
"=	c #FFFFFF",
"-	c #D6D5D5",
";	c #D1D1D1",
">	c #F6F6F6",
",	c #C5C5C5",
"'	c #D1D0D0",
")	c #3A3939",
"!	c #CDCCCC",
"~	c #5B5A5A",
"{	c #F1F1F1",
"]	c #5F5E5E",
"^	c #141313",
"/	c #CC0000",
"(	c #D73939",
"_	c #F2BEBE",
":	c #CF1111",
"<	c #CE0E0E",
"[	c #F1BBBB",
"}	c #D83E3E",
"|	c #FCF1F1",
"1	c #F4CCCC",
"2	c #F3C7C7",
"3	c #FCF4F4",
"4	c #F0B8B8",
"5	c #F3C6C6",
"6	c #CE0B0B",
"7	c #F2C1C1",
"8	c #D63333",
"9	c #FBEEEE",
"0	c #D73838",
"................................................................",
"................................................................",
"................................................................",
"................................................................",
"................................................................",
"................................................................",
"................................................................",
"................................................................",
"................................................................",
"................................................................",
"......................+@#..............$%&......................",
".....................+*=-#............$;=>&.....................",
"....................+*===-#..........$;===>&....................",
"...................+*=====-#........$;=====>&...................",
"...................,======='$......$'=======,...................",
"...................)!=======-#....$;======='$...................",
"....................)!=======-#..$;======='$....................",
".....................)!=======-#$;======='$.....................",
"......................$'=======''======='$......................",
".......................)!=============='$.......................",
"........................)!============'$........................",
".........................)!=========='$.........................",
"..........................)!========'$..........................",
"..........................$;========-#..........................",
".........................$;==========-#.........................",
"........................$;============-#........................",
".......................$;==============-#.......................",
"......................$'=======''======='$......................",
".....................$;======='$)!=======-#.....................",
"....................$;======='$..)!=======-#....................",
"...................$;======='$....)!=======-#...................",
"...................,======='$......$'=======,...................",
"...................~{====='$........)!=====*]...................",
"....................~{==='$..........)!===*]....................",
".....................~{='$............)!=*].....................",
"......................+,$..............$,+......................",
"................................................................",
"................................................................",
"................................................................",
"................................................................",
"................................................................",
"................................................................",
"................................................................",
"................................................................",
"................................................................",
"................................................................",
"^^^^^^^^^^^^^^^^^^^^^^^^^^^^^^^^^^^^^^^^^^^^^^^^^^^^^^^^^^^^^^^^",
"^^^^^^^^^^^^^^^^^^^^^^^^^^^^^^^^^^^^^^^^^^^^^^^^^^^^^^^^^^^^^^^^",
"////////////////////////////////////////////////////////////////",
"////////////////////////////////////////////////////////////////",
"////////////////////////////////////////////////////////////////",
"////////////////////////////////////////////////////////////////",
"////////////////////////////////////////////////////////////////",
"////////////////////////////////////////////////////////////////",
"////////////////////////////////////////////////////////////////",
"////////////////////////////////////////////////////////////////",
"////////////////////////////////////////////////////////////////",
"////////////////////////////////////////////////////////////////",
"//////////////////////(_://////////////<[}//////////////////////",
"/////////////////////(|=1:////////////<2=3}/////////////////////",
"////////////////////(|===1://////////<2===3}////////////////////",
"///////////////////(|=====1:////////<2=====3}///////////////////",
"///////////////////4=======5<//////<5=======4///////////////////",
"///////////////////67=======1:////<2=======5<///////////////////",
"////////////////////67=======1://<2=======5<////////////////////",
"/////////////////////67=======1:<2=======5</////////////////////",
"//////////////////////<5=======55=======5<//////////////////////",
"///////////////////////67==============5<///////////////////////",
"////////////////////////67============5<////////////////////////",
"/////////////////////////67==========5</////////////////////////",
"//////////////////////////67========5<//////////////////////////",
"//////////////////////////<2========1://////////////////////////",
"/////////////////////////<2==========1://///////////////////////",
"////////////////////////<2============1:////////////////////////",
"///////////////////////<2==============1:///////////////////////",
"//////////////////////<5=======55=======5<//////////////////////",
"/////////////////////<2=======5<67=======1://///////////////////",
"////////////////////<2=======5<//67=======1:////////////////////",
"///////////////////<2=======5<////67=======1:///////////////////",
"///////////////////4=======5<//////<5=======4///////////////////",
"///////////////////89=====5<////////67=====|0///////////////////",
"////////////////////89===5<//////////67===|0////////////////////",
"/////////////////////89=5<////////////67=|0/////////////////////",
"//////////////////////(4<//////////////<4(//////////////////////",
"////////////////////////////////////////////////////////////////",
"////////////////////////////////////////////////////////////////",
"////////////////////////////////////////////////////////////////",
"////////////////////////////////////////////////////////////////",
"////////////////////////////////////////////////////////////////",
"////////////////////////////////////////////////////////////////",
"////////////////////////////////////////////////////////////////",
"////////////////////////////////////////////////////////////////",
"////////////////////////////////////////////////////////////////",
"////////////////////////////////////////////////////////////////",
"^^^^^^^^^^^^^^^^^^^^^^^^^^^^^^^^^^^^^^^^^^^^^^^^^^^^^^^^^^^^^^^^",
"^^^^^^^^^^^^^^^^^^^^^^^^^^^^^^^^^^^^^^^^^^^^^^^^^^^^^^^^^^^^^^^^"};
