/* XPM */
static char * closeI_xpm[] = {
"64 96 38 1",
" 	c None",
".	c #323131",
"+	c #484747",
"@	c #7E7D7D",
"#	c #383737",
"$	c #373636",
"%	c #7C7C7C",
"&	c #4A4A4A",
"*	c #929191",
"=	c #989797",
"-	c #848383",
";	c #818080",
">	c #949393",
",	c #7B7B7B",
"'	c #363535",
")	c #7F7E7E",
"!	c #464545",
"~	c #919191",
"{	c #141313",
"]	c #CC0000",
"^	c #D73939",
"/	c #F2BEBE",
"(	c #CF1111",
"_	c #CE0E0E",
":	c #F1BBBB",
"<	c #D83E3E",
"[	c #FCF1F1",
"}	c #FFFFFF",
"|	c #F4CCCC",
"1	c #F3C7C7",
"2	c #FCF4F4",
"3	c #F0B8B8",
"4	c #F3C6C6",
"5	c #CE0B0B",
"6	c #F2C1C1",
"7	c #D63333",
"8	c #FBEEEE",
"9	c #D73838",
"................................................................",
"................................................................",
"................................................................",
"................................................................",
"................................................................",
"................................................................",
"................................................................",
"................................................................",
"................................................................",
"................................................................",
"......................+@#..............$%&......................",
".....................+*=-#............$;=>&.....................",
"....................+*===-#..........$;===>&....................",
"...................+*=====-#........$;=====>&...................",
"...................,=======;$......$;=======,...................",
"...................')=======-#....$;=======;$...................",
"....................')=======-#..$;=======;$....................",
".....................')=======-#$;=======;$.....................",
"......................$;=======;;=======;$......................",
".......................')==============;$.......................",
"........................')============;$........................",
".........................')==========;$.........................",
"..........................')========;$..........................",
"..........................$;========-#..........................",
".........................$;==========-#.........................",
"........................$;============-#........................",
".......................$;==============-#.......................",
"......................$;=======;;=======;$......................",
".....................$;=======;$')=======-#.....................",
"....................$;=======;$..')=======-#....................",
"...................$;=======;$....')=======-#...................",
"...................,=======;$......$;=======,...................",
"...................!~=====;$........')=====*+...................",
"....................!~===;$..........')===*+....................",
".....................!~=;$............')=*+.....................",
"......................+,$..............$,+......................",
"................................................................",
"................................................................",
"................................................................",
"................................................................",
"................................................................",
"................................................................",
"................................................................",
"................................................................",
"................................................................",
"................................................................",
"{{{{{{{{{{{{{{{{{{{{{{{{{{{{{{{{{{{{{{{{{{{{{{{{{{{{{{{{{{{{{{{{",
"{{{{{{{{{{{{{{{{{{{{{{{{{{{{{{{{{{{{{{{{{{{{{{{{{{{{{{{{{{{{{{{{",
"]]]]]]]]]]]]]]]]]]]]]]]]]]]]]]]]]]]]]]]]]]]]]]]]]]]]]]]]]]]]]]]]",
"]]]]]]]]]]]]]]]]]]]]]]]]]]]]]]]]]]]]]]]]]]]]]]]]]]]]]]]]]]]]]]]]",
"]]]]]]]]]]]]]]]]]]]]]]]]]]]]]]]]]]]]]]]]]]]]]]]]]]]]]]]]]]]]]]]]",
"]]]]]]]]]]]]]]]]]]]]]]]]]]]]]]]]]]]]]]]]]]]]]]]]]]]]]]]]]]]]]]]]",
"]]]]]]]]]]]]]]]]]]]]]]]]]]]]]]]]]]]]]]]]]]]]]]]]]]]]]]]]]]]]]]]]",
"]]]]]]]]]]]]]]]]]]]]]]]]]]]]]]]]]]]]]]]]]]]]]]]]]]]]]]]]]]]]]]]]",
"]]]]]]]]]]]]]]]]]]]]]]]]]]]]]]]]]]]]]]]]]]]]]]]]]]]]]]]]]]]]]]]]",
"]]]]]]]]]]]]]]]]]]]]]]]]]]]]]]]]]]]]]]]]]]]]]]]]]]]]]]]]]]]]]]]]",
"]]]]]]]]]]]]]]]]]]]]]]]]]]]]]]]]]]]]]]]]]]]]]]]]]]]]]]]]]]]]]]]]",
"]]]]]]]]]]]]]]]]]]]]]]]]]]]]]]]]]]]]]]]]]]]]]]]]]]]]]]]]]]]]]]]]",
"]]]]]]]]]]]]]]]]]]]]]]^/(]]]]]]]]]]]]]]_:<]]]]]]]]]]]]]]]]]]]]]]",
"]]]]]]]]]]]]]]]]]]]]]^[}|(]]]]]]]]]]]]_1}2<]]]]]]]]]]]]]]]]]]]]]",
"]]]]]]]]]]]]]]]]]]]]^[}}}|(]]]]]]]]]]_1}}}2<]]]]]]]]]]]]]]]]]]]]",
"]]]]]]]]]]]]]]]]]]]^[}}}}}|(]]]]]]]]_1}}}}}2<]]]]]]]]]]]]]]]]]]]",
"]]]]]]]]]]]]]]]]]]]3}}}}}}}4_]]]]]]_4}}}}}}}3]]]]]]]]]]]]]]]]]]]",
"]]]]]]]]]]]]]]]]]]]56}}}}}}}|(]]]]_1}}}}}}}4_]]]]]]]]]]]]]]]]]]]",
"]]]]]]]]]]]]]]]]]]]]56}}}}}}}|(]]_1}}}}}}}4_]]]]]]]]]]]]]]]]]]]]",
"]]]]]]]]]]]]]]]]]]]]]56}}}}}}}|(_1}}}}}}}4_]]]]]]]]]]]]]]]]]]]]]",
"]]]]]]]]]]]]]]]]]]]]]]_4}}}}}}}44}}}}}}}4_]]]]]]]]]]]]]]]]]]]]]]",
"]]]]]]]]]]]]]]]]]]]]]]]56}}}}}}}}}}}}}}4_]]]]]]]]]]]]]]]]]]]]]]]",
"]]]]]]]]]]]]]]]]]]]]]]]]56}}}}}}}}}}}}4_]]]]]]]]]]]]]]]]]]]]]]]]",
"]]]]]]]]]]]]]]]]]]]]]]]]]56}}}}}}}}}}4_]]]]]]]]]]]]]]]]]]]]]]]]]",
"]]]]]]]]]]]]]]]]]]]]]]]]]]56}}}}}}}}4_]]]]]]]]]]]]]]]]]]]]]]]]]]",
"]]]]]]]]]]]]]]]]]]]]]]]]]]_1}}}}}}}}|(]]]]]]]]]]]]]]]]]]]]]]]]]]",
"]]]]]]]]]]]]]]]]]]]]]]]]]_1}}}}}}}}}}|(]]]]]]]]]]]]]]]]]]]]]]]]]",
"]]]]]]]]]]]]]]]]]]]]]]]]_1}}}}}}}}}}}}|(]]]]]]]]]]]]]]]]]]]]]]]]",
"]]]]]]]]]]]]]]]]]]]]]]]_1}}}}}}}}}}}}}}|(]]]]]]]]]]]]]]]]]]]]]]]",
"]]]]]]]]]]]]]]]]]]]]]]_4}}}}}}}44}}}}}}}4_]]]]]]]]]]]]]]]]]]]]]]",
"]]]]]]]]]]]]]]]]]]]]]_1}}}}}}}4_56}}}}}}}|(]]]]]]]]]]]]]]]]]]]]]",
"]]]]]]]]]]]]]]]]]]]]_1}}}}}}}4_]]56}}}}}}}|(]]]]]]]]]]]]]]]]]]]]",
"]]]]]]]]]]]]]]]]]]]_1}}}}}}}4_]]]]56}}}}}}}|(]]]]]]]]]]]]]]]]]]]",
"]]]]]]]]]]]]]]]]]]]3}}}}}}}4_]]]]]]_4}}}}}}}3]]]]]]]]]]]]]]]]]]]",
"]]]]]]]]]]]]]]]]]]]78}}}}}4_]]]]]]]]56}}}}}[9]]]]]]]]]]]]]]]]]]]",
"]]]]]]]]]]]]]]]]]]]]78}}}4_]]]]]]]]]]56}}}[9]]]]]]]]]]]]]]]]]]]]",
"]]]]]]]]]]]]]]]]]]]]]78}4_]]]]]]]]]]]]56}[9]]]]]]]]]]]]]]]]]]]]]",
"]]]]]]]]]]]]]]]]]]]]]]^3_]]]]]]]]]]]]]]_3^]]]]]]]]]]]]]]]]]]]]]]",
"]]]]]]]]]]]]]]]]]]]]]]]]]]]]]]]]]]]]]]]]]]]]]]]]]]]]]]]]]]]]]]]]",
"]]]]]]]]]]]]]]]]]]]]]]]]]]]]]]]]]]]]]]]]]]]]]]]]]]]]]]]]]]]]]]]]",
"]]]]]]]]]]]]]]]]]]]]]]]]]]]]]]]]]]]]]]]]]]]]]]]]]]]]]]]]]]]]]]]]",
"]]]]]]]]]]]]]]]]]]]]]]]]]]]]]]]]]]]]]]]]]]]]]]]]]]]]]]]]]]]]]]]]",
"]]]]]]]]]]]]]]]]]]]]]]]]]]]]]]]]]]]]]]]]]]]]]]]]]]]]]]]]]]]]]]]]",
"]]]]]]]]]]]]]]]]]]]]]]]]]]]]]]]]]]]]]]]]]]]]]]]]]]]]]]]]]]]]]]]]",
"]]]]]]]]]]]]]]]]]]]]]]]]]]]]]]]]]]]]]]]]]]]]]]]]]]]]]]]]]]]]]]]]",
"]]]]]]]]]]]]]]]]]]]]]]]]]]]]]]]]]]]]]]]]]]]]]]]]]]]]]]]]]]]]]]]]",
"]]]]]]]]]]]]]]]]]]]]]]]]]]]]]]]]]]]]]]]]]]]]]]]]]]]]]]]]]]]]]]]]",
"]]]]]]]]]]]]]]]]]]]]]]]]]]]]]]]]]]]]]]]]]]]]]]]]]]]]]]]]]]]]]]]]",
"{{{{{{{{{{{{{{{{{{{{{{{{{{{{{{{{{{{{{{{{{{{{{{{{{{{{{{{{{{{{{{{{",
"{{{{{{{{{{{{{{{{{{{{{{{{{{{{{{{{{{{{{{{{{{{{{{{{{{{{{{{{{{{{{{{{"};
