/* XPM */
static char * frameABL_xpm[] = {
"10 10 3 1",
" 	c None",
".	c #141313",
"+	c #323131",
"..........",
"..........",
"..++++++++",
"..++++++++",
"..++++++++",
"..++++++++",
"..++++++++",
"..++++++++",
"..........",
".........."};
