/* XPM */
static char * menuButtonA_xpm[] = {
"64 96 5 1",
" 	c None",
".	c #323131",
"+	c #F1F2F2",
"@	c #141313",
"#	c #4D4B4B",
"................................................................",
"................................................................",
"................................................................",
"................................................................",
"................................................................",
"................................................................",
"................................................................",
"................................................................",
"................................................................",
"................................................................",
"................................................................",
"................................................................",
"................................................................",
"................................................................",
"......................++++++++++++++++++++......................",
"......................++++++++++++++++++++......................",
"......................++++++++++++++++++++......................",
"......................++++++++++++++++++++......................",
"................................................................",
"................................................................",
"................................................................",
"................................................................",
"......................++++++++++++++++++++......................",
"......................++++++++++++++++++++......................",
"......................++++++++++++++++++++......................",
"......................++++++++++++++++++++......................",
"................................................................",
"................................................................",
"................................................................",
"................................................................",
"......................++++++++++++++++++++......................",
"......................++++++++++++++++++++......................",
"......................++++++++++++++++++++......................",
"......................++++++++++++++++++++......................",
"................................................................",
"................................................................",
"................................................................",
"................................................................",
"................................................................",
"................................................................",
"................................................................",
"................................................................",
"................................................................",
"................................................................",
"................................................................",
"................................................................",
"@@@@@@@@@@@@@@@@@@@@@@@@@@@@@@@@@@@@@@@@@@@@@@@@@@@@@@@@@@@@@@@@",
"@@@@@@@@@@@@@@@@@@@@@@@@@@@@@@@@@@@@@@@@@@@@@@@@@@@@@@@@@@@@@@@@",
"################################################################",
"################################################################",
"################################################################",
"################################################################",
"################################################################",
"################################################################",
"################################################################",
"################################################################",
"################################################################",
"################################################################",
"################################################################",
"################################################################",
"################################################################",
"################################################################",
"######################++++++++++++++++++++######################",
"######################++++++++++++++++++++######################",
"######################++++++++++++++++++++######################",
"######################++++++++++++++++++++######################",
"################################################################",
"################################################################",
"################################################################",
"################################################################",
"######################++++++++++++++++++++######################",
"######################++++++++++++++++++++######################",
"######################++++++++++++++++++++######################",
"######################++++++++++++++++++++######################",
"################################################################",
"################################################################",
"################################################################",
"################################################################",
"######################++++++++++++++++++++######################",
"######################++++++++++++++++++++######################",
"######################++++++++++++++++++++######################",
"######################++++++++++++++++++++######################",
"################################################################",
"################################################################",
"################################################################",
"################################################################",
"################################################################",
"################################################################",
"################################################################",
"################################################################",
"################################################################",
"################################################################",
"################################################################",
"################################################################",
"@@@@@@@@@@@@@@@@@@@@@@@@@@@@@@@@@@@@@@@@@@@@@@@@@@@@@@@@@@@@@@@@",
"@@@@@@@@@@@@@@@@@@@@@@@@@@@@@@@@@@@@@@@@@@@@@@@@@@@@@@@@@@@@@@@@"};
