/* XPM */
static char * rolldownI_xpm[] = {
"64 96 7 1",
" 	c None",
".	c #323131",
"+	c #656666",
"@	c #141313",
"#	c #4D4B4B",
"$	c #F1F2F2",
"%	c #F2F2F2",
"................................................................",
"................................................................",
"................................................................",
"................................................................",
"................................................................",
"................................................................",
"................................................................",
"................................................................",
"....................................++++....++++................",
"....................................++++....++++................",
"....................................++++..++++++................",
"....................................++++..++++++................",
"....................................++++++++++..................",
"....................................++++++++++..................",
"....................................++++++++....................",
"....................................++++++++....................",
"....................................++++++++++++................",
"....................................++++++++++++................",
"....................................++++++++++++................",
"....................................++++++++++++................",
"................++++++++++++++++++++............................",
"................++++++++++++++++++++............................",
"................++++++++++++++++++++............................",
"................++++++++++++++++++++............................",
"................++++++++++++++++++++............................",
"................++++++++++++++++++++............................",
"................++++++++++++++++++++............................",
"................++++++++++++++++++++............................",
"................++++............++++............................",
"................++++............++++............................",
"................++++............++++............................",
"................++++............++++............................",
"................++++............++++............................",
"................++++............++++............................",
"................++++............++++............................",
"................++++............++++............................",
"................++++++++++++++++++++............................",
"................++++++++++++++++++++............................",
"................++++++++++++++++++++............................",
"................++++++++++++++++++++............................",
"................................................................",
"................................................................",
"................................................................",
"................................................................",
"................................................................",
"................................................................",
"@@@@@@@@@@@@@@@@@@@@@@@@@@@@@@@@@@@@@@@@@@@@@@@@@@@@@@@@@@@@@@@@",
"@@@@@@@@@@@@@@@@@@@@@@@@@@@@@@@@@@@@@@@@@@@@@@@@@@@@@@@@@@@@@@@@",
"################################################################",
"################################################################",
"################################################################",
"################################################################",
"################################################################",
"################################################################",
"################################################################",
"################################################################",
"####################################$$$$####$$$$################",
"####################################$$$$####$$$$################",
"####################################$$$$##$$$$%%################",
"####################################$$$$##$$$$%%################",
"####################################$$$$$$$$$$##################",
"####################################$$$$$$$$$$##################",
"####################################$$$$$$$$####################",
"####################################$$$$$$$$####################",
"####################################$$$$$$$$$$$$################",
"####################################$$$$$$$$$$$$################",
"####################################$$$$$$$$$$$$################",
"####################################$$$$$$$$$$$$################",
"################$$$$$$$$$$$$$$$$$$$$############################",
"################$$$$$$$$$$$$$$$$$$$$############################",
"################$$$$$$$$$$$$$$$$$$$$############################",
"################$$$$$$$$$$$$$$$$$$$$############################",
"################$$$$$$$$$$$$$$$$$$$$############################",
"################$$$$$$$$$$$$$$$$$$$$############################",
"################$$$$$$$$$$$$$$$$$$$$############################",
"################$$$$$$$$$$$$$$$$$$$$############################",
"################$$$$############$$$$############################",
"################$$$$############$$$$############################",
"################$$$$############$$$$############################",
"################$$$$############$$$$############################",
"################$$$$############$$$$############################",
"################$$$$############$$$$############################",
"################$$$$############$$$$############################",
"################$$$$############$$$$############################",
"################$$$$$$$$$$$$$$$$$$$$############################",
"################$$$$$$$$$$$$$$$$$$$$############################",
"################$$$$$$$$$$$$$$$$$$$$############################",
"################$$$$$$$$$$$$$$$$$$$$############################",
"################################################################",
"################################################################",
"################################################################",
"################################################################",
"################################################################",
"################################################################",
"@@@@@@@@@@@@@@@@@@@@@@@@@@@@@@@@@@@@@@@@@@@@@@@@@@@@@@@@@@@@@@@@",
"@@@@@@@@@@@@@@@@@@@@@@@@@@@@@@@@@@@@@@@@@@@@@@@@@@@@@@@@@@@@@@@@"};
