<?xml version="1.0" encoding="UTF-8" standalone="no"?>
<svg xmlns="http://www.w3.org/2000/svg" version="1.1" viewBox="-4 -4 24 24">
 <path d="m8 0c-3.3749 0.003142-6.3848 2.1238-7.5234 5.3008-0.003059 0.00828-0.004777 0.0171-0.007813 0.025391-0.044749 0.12395-0.086428 0.24899-0.125 0.375-0.009097 0.030239-0.020559 0.059499-0.029297 0.089844-0.010641 0.033785-0.021058 0.06764-0.03125 0.10156-0.19813 0.6816-0.31449 1.3958-0.31449 2.1386 0 4.4064 3.6149 8 8.0312 8 4.4164 0 8.0312-3.5936 8.0312-8 0-0.80582-0.13703-1.5775-0.36719-2.3105l-0.002-0.00781c-0.0014-0.00453-0.0025-0.00915-0.0039-0.013672-0.0019-0.00782-0.0039-0.015628-0.0059-0.023438l-0.002-0.00586c-0.0019-0.00977-0.0039-0.019535-0.0059-0.029297-0.000428-0.00139-0.0015-0.00252-0.002-0.00391l-0.0059-0.013672c-0.04128-0.12346-0.08556-0.24589-0.13281-0.36719-0.014-0.040479-0.02832-0.080845-0.04297-0.12109-1.184-3.0901-4.15-5.1312-7.46-5.1347zm0 4c0.38155 0.0006584 0.76105 0.055906 1.127 0.16406 0.29534 0.10254 0.2427 0.073722 0 0l-4.918 5.0957c0.16343 0.40887 0.11396 0.33819 0 0-0.1367-0.4061-0.2072-0.8314-0.209-1.2598 0-2.2091 1.7909-4 4-4zm-7.7324 1.9688c-0.007357 0.031857-0.014518 0.063758-0.021484 0.095703 0.006966-0.031945 0.014127-0.063846 0.021484-0.095703zm11.644 1.2167c-7.9414 5.8763-3.9707 2.9382 0 0zm0.0059 0.027344c0.053 0.2591 0.081 0.5228 0.082 0.7872 0 2.2091-1.7909 4-4 4-0.30054-0.0015-0.59996-0.03689-0.89258-0.10547zm4.0605 0.34766c0.012 0.1463 0.019 0.2928 0.022 0.4395-0.003-0.1467-0.01-0.2932-0.021-0.4395zm-15.755 2.2715c0.0251 0.108 0.05245 0.215 0.08203 0.322-0.02988-0.106-0.05652-0.2135-0.08203-0.322zm6.7871 2.039c-4.6732 2.7526-2.3366 1.3763 0 0zm3.1445 3.8242c-0.1067 0.02988-0.21381 0.05652-0.32227 0.08203 0.10798-0.02511 0.21542-0.05246 0.32227-0.08203z" fill="#333"/>
 <path style="text-decoration-line:none;text-transform:none;text-indent:0" font-family="Sans" d="m8 1.031c-3.86 0-7 3.156-7 7 0 3.845 3.14 6.969 7 6.969s7-3.124 7-6.969c0-3.844-3.14-7-7-7zm0 2c1.073 0 2.062 0.37 2.875 0.938l-6.938 6.937a4.88 4.88 0 0 1 -0.937 -2.875c0-2.765 2.223-5 5-5zm4.25 2.375c0.478 0.765 0.781 1.653 0.781 2.625 0 2.766-2.254 4.969-5.031 4.969-0.957 0-1.835-0.296-2.594-0.75z" overflow="visible" font-weight="400" fill="#c00"/>
 <path style="color:#000000;text-decoration-line:none;text-transform:none;text-indent:0" d="m8 1.031c-3.86 0-7 3.156-7 7 0 3.845 3.14 6.969 7 6.969s7-3.124 7-6.969c0-3.844-3.14-7-7-7zm0 2c1.073 0 2.062 0.37 2.875 0.938l-6.938 6.937a4.88 4.88 0 0 1 -0.937 -2.875c0-2.765 2.223-5 5-5zm4.25 2.375c0.478 0.765 0.781 1.653 0.781 2.625 0 2.766-2.254 4.969-5.031 4.969-0.957 0-1.835-0.296-2.594-0.75z" overflow="visible" font-weight="400" fill="#c00"/>
</svg>
