<?xml version="1.0" encoding="UTF-8" standalone="no"?>
<svg xmlns="http://www.w3.org/2000/svg" version="1.1" viewBox="-4 -4 24 24">
 <path style="color:#f1f2f2;text-decoration-line:none;text-transform:none;text-indent:0" d="m10.971 3c-0.438 0.0127-0.962 0.2529-1.3148 0.5605a0.99815 0.99815 0 0 0 -0.044922 0.041016l-1.6074 1.584-1.5684-1.5664c-0.3609-0.373-0.8291-0.5942-1.3613-0.6171a0.99815 0.99815 0 0 0 -0.042969 0h-1.0312a0.99815 0.99815 0 0 0 -0.998 0.998v1l0.00586-0.099609c-0.0576 0.5767 0.1652 1.1756 0.5859 1.5742l1.5527 1.5508-1.5664 1.5449a0.99815 0.99815 0 0 0 -0.00586 0.00781c-0.4003 0.4024-0.5722 0.9229-0.5722 1.4219v1a0.99815 0.99815 0 0 0 0.998 0.998h0.98242c0.52334 0.0089 1.0475-0.19686 1.4258-0.55859a0.99815 0.99815 0 0 0 0.015625 -0.01563l1.5762-1.575 1.5762 1.576a0.99815 0.99815 0 0 0 0.00195 0.002c0.4023 0.4 0.9228 0.572 1.4218 0.572h1a0.99815 0.99815 0 0 0 0.998 -0.998v-1c0-0.49913-0.17037-1.02-0.57422-1.4238l-1.543-1.545 1.547-1.5507c0.49896-0.462 0.57031-1.1173 0.57031-1.4824v-1a0.99815 0.99815 0 0 0 -0.998 -0.9981h-1a0.99815 0.99815 0 0 0 -0.0293 0z" fill="#333"/>
 <path style="text-decoration-line:none;text-transform:none;text-indent:0" font-family="Andale Mono" d="m4 4h1.031c0.255 0.011 0.51 0.129 0.688 0.313l2.281 2.279 2.313-2.28c0.265-0.231 0.446-0.306 0.687-0.313h1v1c0 0.286-0.034 0.55-0.25 0.75l-2.281 2.282 2.25 2.25c0.188 0.188 0.281 0.454 0.281 0.719v1h-1c-0.265 0-0.53-0.093-0.719-0.281l-2.281-2.281-2.281 2.28a1.015 1.015 0 0 1 -0.719 0.282h-1v-1c0-0.265 0.093-0.53 0.281-0.719l2.282-2.25-2.283-2.281a0.909 0.909 0 0 1 -0.28 -0.75z" color="#f1f2f2" overflow="visible" font-weight="400" fill="#c00"/>
</svg>
