<?xml version="1.0" encoding="UTF-8" standalone="no"?>
<svg xmlns="http://www.w3.org/2000/svg" version="1.1" viewBox="-4 -4 24 24">
 <g opacity=".5" transform="rotate(90,8,8)" fill="#f1f2f2">
  <path style="color:#000000" d="m1 2.998v10h9.1523c-0.099-0.158-0.151-0.341-0.152-0.527v-0.473h-8v-7.998l10-0.00195v2h2v4h-2v0.002h0.375c0.26043 0.000015 0.51058 0.10162 0.69727 0.2832l0.41797 0.40625 0.39648-0.39648c0.188-0.188 0.443-0.293 0.708-0.293h0.25977c0.07163-0.17803 0.11674-0.36801 0.11719-0.56445h0.029v-2.9688c0-0.49-0.22775-0.79625-0.46875-1.0312-0.24-0.235-0.527-0.4375-1-0.4375h-0.531v-2zm2 2v6h2v-6zm3 0v6h2v-6z" transform="rotate(-90,8,8)"/>
 </g>
 <path style="color:#f1f2f2" d="m11 11h1.375l1.125 1.094 1.094-1.094h1.406v1.469l-1.094 1.062 1.094 1.063v1.406h-1.437l-1.063-1.062-1.062 1.062h-1.438v-1.406l1.063-1.063-1.063-1.061z" overflow="visible" fill="#c00"/>
</svg>
