<?xml version="1.0" encoding="UTF-8" standalone="no"?>
<svg xmlns="http://www.w3.org/2000/svg" version="1.1" viewBox="-4 -4 24 24">
 <path fill="#f1f2f2" d="m2 0v13l4-4 4 4v-13z"/>
 <path d="m11 0.99a1.0099 1.0099 0 0 0 -1.0098 1.0098v0.9863h-0.9902a1.0099 1.0099 0 0 0 -1.0098 1.0098v1.998a1.0099 1.0099 0 0 0 1.0098 1.0098h0.9902v0.9863a1.0099 1.0099 0 0 0 1.0098 1.0098h2a1.0099 1.0099 0 0 0 1.01 -1.0098v-0.9863h0.99a1.0099 1.0099 0 0 0 1.01 -1.0098v-1.998a1.0099 1.0099 0 0 0 -1.01 -1.0098h-0.99v-0.9863a1.0099 1.0099 0 0 0 -1.01 -1.0098z" fill="#333"/>
 <path d="m11 2v1.996h-2v1.997h2v1.997h2v-1.997h2v-1.997h-2v-1.996z" fill="#690"/>
</svg>
