<?xml version="1.0" encoding="UTF-8" standalone="no"?>
<svg xmlns="http://www.w3.org/2000/svg" viewBox="-4 -4 24 24" version="1.1">
 <path d="m7.9551 0c-0.7801 0.011665-1.5247 0.32725-2.0762 0.87891l-5 5c-0.91445 0.9151-1.078 2.2371-0.65038 3.2695 0.42761 1.0326 1.4778 1.8506 2.7715 1.8516h1v2c0.0001644 1.6451 1.3549 2.9999 3 3h2c1.6451-0.000164 2.9999-1.3549 3-3v-2h1c1.2937-0.000508 2.3439-0.81913 2.7715-1.8516 0.42762-1.0324 0.26407-2.3544-0.65039-3.2695l-5-5c-0.5729-0.57333-1.3535-0.89054-2.164-0.8789a1.0005 1.0005 0 0 0 -0.00195 0zm0.0449 3 5 5h-3a1.0005 1.0005 0 0 0 -1 1v4h-2v-4a1.0005 1.0005 0 0 0 -1 -1h-3z" fill="#333"/>
 <path fill="#f60" d="m7.9707 0.99998c-0.5202 0.00782-1.0169 0.21792-1.3848 0.58592l-5 5c-1.2591 1.26-0.36717 3.4134 1.4141 3.4141h2v3c0.0001104 1.1045 0.89548 1.9999 2 2h2c1.1045-0.00011 1.9999-0.89548 2-2v-3h2c1.7813-0.0006992 2.6732-2.1541 1.4141-3.4141l-5-5c-0.382-0.3823-0.9027-0.59364-1.4432-0.5859zm0.013672 1c0.2706-0.00414 0.53133 0.10156 0.72266 0.29297l5 5c0.63 0.63 0.184 1.7067-0.707 1.707h-3v4c-0.000055 0.55226-0.44774 0.99994-1 1h-1.9999c-0.5523 0-0.9999-0.448-1-1v-4h-3c-0.8906-0.0003-1.3366-1.077-0.707-1.707l5-5c0.1836-0.1838 0.4316-0.2889 0.6914-0.293z"/>
</svg>
