<?xml version="1.0" encoding="UTF-8" standalone="no"?>
<svg id="svg4" xmlns="http://www.w3.org/2000/svg" version="1.1" viewBox="-4 -4 24 24"><path id="path866" style="fill:#ff6600" d="m7.9707 0c-0.5202 0.0077789-1.0169 0.21796-1.3848 0.58594l-6 5c-1.2591 1.26-0.36717 3.4134 1.4141 3.4141h2v5c0.0001104 1.1045 0.89548 1.9999 2 2h4c1.1045-0.00011 1.9999-0.89548 2-2v-5h2c1.7813-0.0006992 2.6732-2.1541 1.4141-3.4141l-6-5c-0.3821-0.3823-0.9028-0.59366-1.4433-0.5859zm0.013672 1c0.2706-0.004144 0.53133 0.10156 0.72266 0.29297l6 5c0.63 0.63 0.184 1.7067-0.707 1.707h-3v6c-0.000055 0.55226-0.44774 0.99994-1 1h-4c-0.5523 0-0.9999-0.448-1-1v-6h-3c-0.8906-0.0003-1.3366-1.077-0.707-1.707l6-5c0.1836-0.1838 0.4316-0.2889 0.6914-0.293z"/></svg>
