<?xml version="1.0" encoding="UTF-8" standalone="no"?>
<svg xmlns="http://www.w3.org/2000/svg" version="1.1" viewBox="-4 -4 24 24">
 <path style="text-decoration-line:none;text-transform:none;text-indent:0" fill="#f1f2f2" d="m2.8126-0.000448c-0.1139 0.0226-0.2229 0.0649-0.3223 0.125-0.0043 0.0026-0.00947 0.003159-0.013672 0.005859-0.0958 0.0588-0.18095 0.1335-0.25195 0.2207-0.0708 0.0877-0.12626 0.18677-0.16406 0.29297-0.0014 0.0041-0.00251 0.00772-0.00391 0.011719-0.0388 0.1104-0.058 0.2268-0.0566 0.3438v13c-0.00016 0.133 0.026425 0.26567 0.078125 0.38867 0.05 0.118 0.12229 0.22541 0.21289 0.31641 0.0013 0.001 0.00261 0.0029 0.00391 0.0039 0.089 0.088 0.19369 0.15803 0.30859 0.20703 0.0055 0.002 0.010225 0.0058 0.015625 0.0078 0.1208 0.05 0.25016 0.07617 0.38086 0.07617h7.1425c-0.087-0.152-0.1327-0.325-0.1328-0.5v-0.5h-6.4103c-0.3324 0-0.59961-0.26661-0.59961-0.59961v-6.8004c0-0.0353 0.0137-0.066 0.0195-0.0996-0.0058-0.0336-0.0195-0.0643-0.0195-0.0996v-4.8008c0-0.3324 0.2672-0.5996 0.5996-0.5996h4.8008c0.3324 0 0.59961 0.26721 0.59961 0.59961v2.9512h0.00977c0.0245 0.2343 0.20515 0.41495 0.43945 0.43945v0.0098h3.9512c0.333 0 0.59961 0.26721 0.59961 0.59961-0.01439 1.4811 0 0 0.0292 4.4004h0.97l0.000101-5.4374c0.002-0.1309-0.02136-0.26091-0.06836-0.38281v-0.004c-0.001-0.0014-0.002-0.00261-0.002-0.00391-0.048-0.1222-0.11994-0.23372-0.21094-0.32812l-3.5625-3.5645c-0.095-0.0916-0.20843-0.16334-0.33203-0.21094-0.124-0.0482-0.256-0.07136-0.388-0.06836h-7.4372c-0.0312-0.00147-0.06235-0.00147-0.09375 0-0.0312-0.00147-0.06255-0.00147-0.09375 0zm7.1875 1 3 3h-2c-1 0.0001-1 0-1-1z"/>
 <path fill="#333" d="m11 0a1.0099 1.0099 0 0 0 -1.0098 1.0098v0.9863h-0.9902a1.0099 1.0099 0 0 0 -1.0098 1.0098v1.998a1.0099 1.0099 0 0 0 1.0098 1.0098h0.9902v0.9863a1.0099 1.0099 0 0 0 1.0098 1.0098h2a1.0099 1.0099 0 0 0 1.01 -1.0098v-0.9863h0.99a1.0099 1.0099 0 0 0 1.01 -1.0098v-1.998a1.0099 1.0099 0 0 0 -1.01 -1.0098h-0.99v-0.9863a1.0099 1.0099 0 0 0 -1.01 -1.0098z" transform="translate(0,8)"/>
 <path d="m11 9.01v1.996h-2v1.997h2v1.997h2v-1.997h2v-1.997h-2v-1.996z" fill="#690"/>
</svg>
