<?xml version="1.0" encoding="UTF-8" standalone="no"?>
<svg id="svg4" xmlns="http://www.w3.org/2000/svg" viewBox="-3 -3 22 22" version="1.1"><path id="path2" style="opacity:.5;fill:#f1f2f2" d="m0.81445 3c-0.451 0-0.81445 0.3824-0.81445 0.8594v8.2816c0 0.477 0.36345 0.859 0.81445 0.859h9.1856v-1h-6v-2h12v-6.1406c0-0.477-0.363-0.8594-0.814-0.8594h-14.372zm0.18555 1h2v2h-2v-2zm3 0h2v2h-2v-2zm3 0h2v2h-2v-2zm3 0h2v2h-2v-2zm3 0h2v2h-2v-2zm-12 3h2v2h-2v-2zm3 0h2v2h-2v-2zm3 0h2v2h-2v-2zm3 0h2v2h-2v-2zm3 0h2v2h-2v-2zm-12 3h2v2h-2v-2z"/><path id="path4560" style="color:#f1f2f2;fill:#cc0000" overflow="visible" d="m11 11h1.375l1.125 1.094 1.094-1.094h1.406v1.469l-1.094 1.062 1.094 1.063v1.406h-1.437l-1.063-1.062-1.062 1.062h-1.438v-1.406l1.063-1.063-1.063-1.061z"/></svg>
