<?xml version="1.0" encoding="UTF-8" standalone="no"?>
<svg xmlns="http://www.w3.org/2000/svg" version="1.1" viewBox="-4 -4 24 24">
 <path style="text-decoration-line:none;text-transform:none;text-indent:0" d="m1 5a1.0626 1.0626 0 0 0 -1.0625 1.0625v7.9688a1.0626 1.0626 0 0 0 1.0625 1.063h8a1.0626 1.0626 0 0 0 1.0625 -1.0625v-7.9695a1.0626 1.0626 0 0 0 -1.062 -1.0625h-7.5z" fill="#333"/>
 <path d="m3 3h10v2h-10zm7 4h3v2h-3zm0 4h3v2h-3z" color="#f1f2f2" overflow="visible" fill="#f1f2f2"/>
 <g fill="#c00">
  <path style="text-decoration-line:none;text-transform:none;text-indent:0" font-family="Sans" d="m1 6.063v7.968h8v-7.969h-7.5zm1 1h6v5.968h-6z" overflow="visible" font-weight="400"/>
  <path d="m6 12h1v-1l-3-3h-1v1z"/>
  <path d="m4 12h-1v-1l3-3h1v1z"/>
 </g>
</svg>
