<?xml version="1.0" encoding="UTF-8" standalone="no"?>
<svg xmlns="http://www.w3.org/2000/svg" viewBox="-4 -4 24 24" version="1.1">
 <path style="color:#f1f2f2" fill="#f1f2f2" d="m7.5 3c-0.277 0-0.5 0.223-0.5 0.5v2a0.499 0.499 0 0 0 0.5 0.5h1c0.277 0 0.5-0.223 0.5-0.5v-2c0-0.277-0.223-0.5-0.5-0.5h-1zm-4.4453 1.8418a0.499 0.499 0 0 0 -0.3613 0.1465l-0.7071 0.707a0.499 0.499 0 0 0 0 0.707l1.4258 1.4258a0.499 0.499 0 0 0 0.707 0l0.7071-0.707a0.499 0.499 0 0 0 0 -0.707l-1.4258-1.4258a0.499 0.499 0 0 0 -0.3457 -0.1465zm9.9003 0.002a0.499 0.499 0 0 0 -0.359 0.1464l-1.426 1.4239a0.499 0.499 0 0 0 0 0.7089l0.707 0.7071a0.499 0.499 0 0 0 0.709 0l1.424-1.4258a0.499 0.499 0 0 0 0 -0.707l-0.707-0.7071a0.499 0.499 0 0 0 -0.348 -0.1464zm-6.7109 4.1562a0.428 0.428 0 0 0 -0.375 0.2617l-0.8359 2.2173c-0.101 0.234 0.1263 0.527 0.4043 0.521a25395 25395 0 0 0 4.5625 0v-2h0.418l-0.279-0.7383c-0.073-0.193-0.3362-0.3073-0.5472-0.2363-0.213 0.07-0.8199 0.2617-1.5859 0.2617a5.147 5.147 0 0 1 -1.5879 -0.2598 0.465 0.465 0 0 0 -0.1739 -0.0273zm-5.7714 1c-0.262 0-0.47266 0.223-0.47266 0.5v1a0.486 0.486 0 0 0 0.47266 0.5h2.0273c0.262 0 0.4727-0.223 0.4727-0.5v-1c0-0.277-0.2107-0.5-0.4727-0.5h-2.0273z"/>
 <path style="color:#f1f2f2" fill="#333" d="m10 9a1.0001 1.0001 0 0 0 -1 1v1.4707a1.0001 1.0001 0 0 0 0.29297 0.70703l0.35547 0.35352-0.35547 0.35547a1.0001 1.0001 0 0 0 -0.293 0.707v1.406a1.0001 1.0001 0 0 0 1 1h1.4375a1.0001 1.0001 0 0 0 0.70703 -0.29297l0.355-0.355 0.355 0.355a1.0001 1.0001 0 0 0 0.707 0.293h1.438a1.0001 1.0001 0 0 0 1 -1v-1.406a1.0001 1.0001 0 0 0 -0.303 -0.717l-0.355-0.346 0.355-0.345a1.0001 1.0001 0 0 0 0.303 -0.717v-1.469a1.0001 1.0001 0 0 0 -1 -1h-1.407a1.0001 1.0001 0 0 0 -0.707 0.2927l-0.396 0.3965-0.418-0.4062a1.0001 1.0001 0 0 0 -0.698 -0.283z"/>
 <path style="color:#f1f2f2" d="m10 10h1.375l1.125 1.094 1.094-1.094h1.406v1.469l-1.094 1.062 1.094 1.063v1.406h-1.438l-1.062-1.063-1.063 1.063h-1.437v-1.406l1.063-1.063-1.063-1.061z" overflow="visible" fill="#c00"/>
</svg>
