<?xml version="1.0" encoding="UTF-8" standalone="no"?>
<svg xmlns="http://www.w3.org/2000/svg" version="1.1" viewBox="-4 -4 24 24">
 <path style="color:#000000;text-decoration-line:none;text-transform:none;text-indent:0" d="m11.879 2.9941a1.0052 1.0052 0 0 0 -0.6875 0.29102l-4.1764 4.1348-1.207-1.1953a1.0052 1.0052 0 0 0 -1.4141 -0.0019l-2.1015 2.082a1.0052 1.0052 0 0 0 0 1.4297l2.9668 2.9375 1.0469 1.041a1.0052 1.0052 0 0 0 1.416 0.002l1.0527-1.041 5.9316-5.8771a1.0052 1.0052 0 0 0 0 -1.4297l-2.102-2.082a1.0052 1.0052 0 0 0 -0.726 -0.2911z" stroke-width=".98414" fill="#333"/>
 <path style="color:#000000;text-decoration-line:none;text-transform:none;text-indent:0" stroke-width=".98414" d="m11.899 4-4.8826 4.836-1.9153-1.8984-2.1011 2.0825 2.9663 2.9389 1.0501 1.041 1.051-1.041 5.9326-5.8775z" overflow="visible" font-weight="400" fill="#690"/>
</svg>
