<?xml version="1.0" encoding="UTF-8" standalone="no"?>
<svg xmlns="http://www.w3.org/2000/svg" viewBox="-4 -4 24 24" version="1.1">
 <path style="text-decoration-line:none;text-transform:none;text-indent:0" fill="#f1f2f2" d="m7.9883 0.99609c-3.842 0-6.9922 3.1492-6.9922 6.9922-0.00002 3.1517 2.1208 5.8497 5.0039 6.7187v-4.473c-0.6107-0.5473-0.9961-1.3416-0.9961-2.2457 0-1.68 1.3034-2.9844 2.9844-2.9844 0.9221 0 1.7283 0.401 2.2777 1.0332a1.0001 1.0001 0 0 1 0.002 0 1.0001 1.0001 0 0 1 0.732 0.9629h1a1.0001 1.0001 0 0 1 0 -0.002 1.004 1.004 0 0 1 -1.004 -1.0039v-0.9941h-0.996a1.004 1.004 0 0 1 -1.0039 -1.0039v-1.9961a1.004 1.004 0 0 1 0.4434 -0.832c-0.4708-0.1009-0.9523-0.17191-1.4512-0.17191zm-1.9883 6.9297c-0.001 0.0259-0.0078 0.05-0.0078 0.0762 0 0.0261 0.0068 0.0502 0.0078 0.0761v-0.1523z"/>
 <path style="color:#000000" fill="#f1f2f2" d="m7 7v9h3v-1h3v1h3v-9h-3v1h-3v-1h-2zm1 1h1v1h-1zm6 0h1v1h-1zm-4 1h3v2h-3zm-2 1h1zm6 0h1zm-6 0h1v1h-1zm6 0h1v1h-1zm-6 2h1v1h-1zm2 0h3v2h-3zm4 0h1v1h-1zm-6 1h1zm6 0h1zm-6 1h1v1h-1zm6 0h1v1h-1z"/>
 <path fill="#333" d="m11-0.0060004a1.0099 1.0099 0 0 0 -1.0098 1.0098v0.9863h-0.9902a1.0099 1.0099 0 0 0 -1.0098 1.0098v1.998a1.0099 1.0099 0 0 0 1.0098 1.0098h0.9902v0.9863a1.0099 1.0099 0 0 0 1.0098 1.0098h2a1.0099 1.0099 0 0 0 1.01 -1.0098v-0.9863h0.99a1.0099 1.0099 0 0 0 1.01 -1.0098v-1.998a1.0099 1.0099 0 0 0 -1.01 -1.0098h-0.99v-0.9863a1.0099 1.0099 0 0 0 -1.01 -1.0098z"/>
 <path fill="#690" d="m11 1.004v1.996h-2v1.997h2v1.997h2v-1.997h2v-1.997h-2v-1.996z"/>
</svg>
