<?xml version="1.0" encoding="UTF-8" standalone="no"?>
<svg
   xmlns:dc="http://purl.org/dc/elements/1.1/"
   xmlns:cc="http://creativecommons.org/ns#"
   xmlns:rdf="http://www.w3.org/1999/02/22-rdf-syntax-ns#"
   xmlns:svg="http://www.w3.org/2000/svg"
   xmlns="http://www.w3.org/2000/svg"
   height="16"
   width="16"
   version="1.1"
   viewBox="-4 -4 24 24"
   id="svg4512">
  <metadata
     id="metadata9">
    <rdf:RDF>
      <cc:Work
         rdf:about="">
        <dc:format>image/svg+xml</dc:format>
        <dc:type
           rdf:resource="http://purl.org/dc/dcmitype/StillImage" />
        <dc:title></dc:title>
      </cc:Work>
    </rdf:RDF>
  </metadata>
  <defs
     id="defs7" />
  <rect
     x="8"
     y="8.9996986"
     width="3.9997985"
     height="1.9999746"
     style="opacity:0.5;fill:#f1f2f2;stroke-width:3.77945638"
     id="rect4529" />
  <path
     d="m 2,3 v 1.9998993 h 0.9999685 v 5.9998867 c 0,1.107986 0.8919895,1.999975 1.9999749,1.999975 H 13.999962 V 4.9997859 c 0,-1.1077586 -0.891952,-1.9998992 -2.000088,-1.9998992 H 7.0000316 Z m 2.9998678,1.9998993 h 1.0000441 v 2.6386274 h -0.00195 V 10.005676 H 11.003847 V 9.4959026 c 0,0.0078 -0.0036,0.013834 -0.0039,0.021463 V 8.908495 c 0.0012,-4.208e-4 0.0027,4.243e-4 0.0039,0 V 7.5040536 c 0,-0.2967931 -0.211056,-0.509773 -0.50195,-0.509773 -0.288081,0 -0.497829,0.2096237 -0.5019489,0.5019495 3.4e-6,0.00133 0,0.00258 0,0.00389 V 8.9998096 H 8.9995276 V 7.5001215 c 0,-0.00537 0.00189,-0.01028 0.00195,-0.015609 -0.00684,-0.289117 -0.213921,-0.4960914 -0.4999843,-0.4960914 -0.2908858,0 -0.5019495,0.212961 -0.5019495,0.509773 V 8.9997719 H 6.9998808 V 7.5000835 c 0,-0.830989 0.6690016,-1.4999906 1.4999905,-1.4999906 0.3863739,0 0.734613,0.1484116 0.9999686,0.3867139 0.2653178,-0.2381057 0.6134061,-0.3866383 0.9996661,-0.3866383 0.831102,0 1.500066,0.6689637 1.500066,1.5000662 v 2.4999593 c 0,0.553992 -0.445976,0.999968 -0.999968,0.999968 H 5.999761 c -0.5539926,0 -0.9999685,-0.445976 -0.9999685,-0.999968 V 6.000019 Z"
     style="fill:#f1f2f2;stroke-width:3.77945638"
     id="rect4489" />
</svg>
