<?xml version="1.0" encoding="UTF-8" standalone="no"?>
<svg xmlns="http://www.w3.org/2000/svg" version="1.1" viewBox="-4 -4 24 24">
 <g fill="#f1f2f2">
  <path opacity=".35" d="m10 13a2 2 0 0 1 -2 2 2 2 0 0 1 -2 -2 2 2 0 0 1 2 -2 2 2 0 0 1 2 2z"/>
  <path opacity=".35" d="m8 2c-2.814 0-5.172 1-7 2.586v1.414h1.48c1.52-1.264 3.22-2 5.52-2s4 0.78 5.52 2h1.48v-1.38c-1.64-1.467-4.186-2.62-7-2.62z" overflow="visible"/>
  <path opacity=".35" d="m8 5c-2.167 0-4.02 0.739-5 2v1h2c0.789-0.606 1.759-1 3-1s2.22 0.394 3 1h2v-1c-0.995-1.223-2.873-2-5-2z" overflow="visible"/>
  <path opacity=".35" style="text-decoration-line:none;text-transform:none;text-indent:0" font-family="Sans" d="m8 8c-1.257 0-2.216 0.312-3 1v1h6v-1c-0.837-0.672-1.743-1-3-1z" overflow="visible" font-weight="400"/>
 </g>
 <path style="color:#f1f2f2" d="m11 10a1.0001 1.0001 0 0 0 -1 1v1.4707a1.0001 1.0001 0 0 0 0.29297 0.70703l0.35547 0.35352-0.35547 0.35547a1.0001 1.0001 0 0 0 -0.293 0.707v1.406a1.0001 1.0001 0 0 0 1 1h1.4375a1.0001 1.0001 0 0 0 0.70703 -0.29297l0.355-0.355 0.355 0.355a1.0001 1.0001 0 0 0 0.707 0.293h1.438a1.0001 1.0001 0 0 0 1 -1v-1.406a1.0001 1.0001 0 0 0 -0.303 -0.717l-0.355-0.346 0.355-0.345a1.0001 1.0001 0 0 0 0.303 -0.717v-1.469a1.0001 1.0001 0 0 0 -1 -1h-1.4062a1.0001 1.0001 0 0 0 -0.70703 0.29297l-0.39648 0.39648-0.41797-0.40625a1.0001 1.0001 0 0 0 -0.698 -0.283z" transform="translate(-1 -1)" fill="#333"/>
 <path style="color:#f1f2f2" d="m10 10h1.375l1.125 1.094 1.094-1.094h1.406v1.469l-1.094 1.062 1.094 1.063v1.406h-1.438l-1.062-1.063-1.063 1.063h-1.437v-1.406l1.063-1.063-1.063-1.061z" overflow="visible" fill="#c00"/>
</svg>
