<?xml version="1.0" encoding="UTF-8" standalone="no"?>
<svg xmlns="http://www.w3.org/2000/svg" version="1.1" viewBox="-4 -4 24 24">
 <path style="text-decoration-line:none;text-transform:none;text-indent:0" font-family="Sans" d="m3.469 1a2.468 2.468 0 0 0 -2.471 2.469v9.062a2.468 2.468 0 0 0 2.473 2.469h6.529v-1h-6.53a1.443 1.443 0 0 1 -1.47 -1.469v-9.06c0-0.833 0.637-1.471 1.469-1.471h9.061c0.687 0 1.234 0.437 1.406 1.057l-5.436 5.318-1.938-1.938-2.124 2.126 3 3 1.062 1.063 1.063-1.063 0.437-0.449v-1.114h1.084l2.916-2.996v2.996h1v-6.53a2.468 2.468 0 0 0 -2.47 -2.47h-9.062z" overflow="visible" font-weight="400" fill="#f1f2f2"/>
 <path style="color:#f1f2f2" d="m11 10a1.0001 1.0001 0 0 0 -1 1v1.4707a1.0001 1.0001 0 0 0 0.29297 0.70703l0.35547 0.35352-0.35547 0.35547a1.0001 1.0001 0 0 0 -0.293 0.707v1.406a1.0001 1.0001 0 0 0 1 1h1.4375a1.0001 1.0001 0 0 0 0.70703 -0.29297l0.355-0.355 0.355 0.355a1.0001 1.0001 0 0 0 0.707 0.293h1.438a1.0001 1.0001 0 0 0 1 -1v-1.406a1.0001 1.0001 0 0 0 -0.303 -0.717l-0.355-0.346 0.355-0.345a1.0001 1.0001 0 0 0 0.303 -0.717v-1.469a1.0001 1.0001 0 0 0 -1 -1h-1.4062a1.0001 1.0001 0 0 0 -0.70703 0.29297l-0.39648 0.39648-0.41797-0.40625a1.0001 1.0001 0 0 0 -0.698 -0.283z" transform="translate(-1,-1)" fill="#333"/>
 <path style="color:#f1f2f2" d="m10 10h1.375l1.125 1.094 1.094-1.094h1.406v1.469l-1.094 1.062 1.094 1.063v1.406h-1.438l-1.062-1.063-1.063 1.063h-1.437v-1.406l1.062-1.063-1.062-1.061z" overflow="visible" fill="#c00"/>
</svg>
