<?xml version="1.0" encoding="UTF-8" standalone="no"?>
<svg xmlns="http://www.w3.org/2000/svg" version="1.1" viewBox="-4 -4 24 24">
 <path fill="#f1f2f2" d="m13.5 1c0.831 0 1.5 0.669 1.5 1.5v11c0 0.831-0.669 1.5-1.5 1.5h-11c-0.831 0-1.5-0.669-1.5-1.5v-11c0-0.831 0.669-1.5 1.5-1.5zm0 1h-11c-0.294 0-0.5 0.2057-0.5 0.5v11c0 0.294 0.206 0.5 0.5 0.5h11c0.294 0 0.5-0.206 0.5-0.5v-11c0-0.2943-0.206-0.5-0.5-0.5z"/>
 <path opacity=".5" fill="#f1f2f2" d="m8 2v6h-6v-5.5c0-0.2943 0.206-0.5 0.5-0.5zm0 6h6v5.5c0 0.294-0.206 0.5-0.5 0.5h-5.5z"/>
</svg>
