<?xml version="1.0" encoding="UTF-8" standalone="no"?>
<svg xmlns="http://www.w3.org/2000/svg" viewBox="-4 -4 24 24" version="1.1">
 <path stroke-width="1.4443" fill="#f1f2f2" d="m7.085 1h0.6188c3.7522 3.3936 9.2962 7 4.2962 10-0.137-3.8024-1.346-4.1172-2.8453-4.456l-0.0894 0.056v5.9906h-0.01192c-0.1416 1.327-1.3883 2.409-3.3701 2.409-2.0711 0-3.6833-1.011-3.6833-2.425 0-1.417 0.5051-2.571 1.423-3.1851 0.8359-0.56 3.1733-0.2898 3.662-0.2898z"/>
 <path style="color:#f1f2f2" d="m11 10a1.0001 1.0001 0 0 0 -1 1v1.4707a1.0001 1.0001 0 0 0 0.29297 0.70703l0.35547 0.35352-0.35547 0.35547a1.0001 1.0001 0 0 0 -0.293 0.707v1.406a1.0001 1.0001 0 0 0 1 1h1.4375a1.0001 1.0001 0 0 0 0.70703 -0.29297l0.355-0.355 0.355 0.355a1.0001 1.0001 0 0 0 0.707 0.293h1.438a1.0001 1.0001 0 0 0 1 -1v-1.406a1.0001 1.0001 0 0 0 -0.303 -0.717l-0.355-0.346 0.355-0.345a1.0001 1.0001 0 0 0 0.303 -0.717v-1.469a1.0001 1.0001 0 0 0 -1 -1h-1.4062a1.0001 1.0001 0 0 0 -0.70703 0.29297l-0.39648 0.39648-0.41797-0.40625a1.0001 1.0001 0 0 0 -0.698 -0.283z" transform="translate(-1,-1)" fill="#333"/>
 <path style="color:#f1f2f2" fill="#c00" overflow="visible" d="m10 10h1.375l1.125 1.094 1.094-1.094h1.406v1.469l-1.094 1.062 1.094 1.063v1.406h-1.438l-1.062-1.063-1.063 1.063h-1.437v-1.406l1.062-1.063-1.062-1.061z"/>
</svg>
