<?xml version="1.0" encoding="UTF-8" standalone="no"?>
<svg xmlns="http://www.w3.org/2000/svg" version="1.1" viewBox="-4 -4 24 24">
 <path fill="#f1f2f2" d="m5 5s-2 0-2 2v4c0 0.5574-0.31091 0.80292-0.58594 0.91211-0.033271 0.009-0.066394 0.02238-0.097656 0.0293-0.041538 0.0122-0.083147 0.02422-0.11914 0.03125-0.1102 0.018-0.1973 0.027-0.1973 0.027h-1v2h14v-2h-1s-0.08706-0.0089-0.19727-0.02734c-0.03599-0.007-0.0776-0.01905-0.11914-0.03125-0.03126-0.0069-0.06438-0.02033-0.09766-0.0293-0.275-0.109-0.586-0.355-0.586-0.912v-4c0-2-2-2-2-2h-3z"/>
 <path d="m11 7.997a1.0099 1.0099 0 0 0 -1.0098 1.0098v0.9863h-0.9902a1.0099 1.0099 0 0 0 -1.0098 1.0098v1.998a1.0099 1.0099 0 0 0 1.0098 1.01h0.9902v0.986a1.0099 1.0099 0 0 0 1.0098 1.01h2a1.0099 1.0099 0 0 0 1.01 -1.01v-0.986h0.99a1.0099 1.0099 0 0 0 1.01 -1.0098v-1.998a1.0099 1.0099 0 0 0 -1.01 -1.0099h-0.99v-0.9863a1.0099 1.0099 0 0 0 -1.01 -1.0098z" fill="#333"/>
 <path d="m11 9.007v1.996h-2v1.997h2v1.997h2v-1.997h2v-1.997h-2v-1.996z" fill="#690"/>
</svg>
