<?xml version="1.0" encoding="UTF-8" standalone="no"?>
<svg id="svg6" xmlns="http://www.w3.org/2000/svg" viewBox="-4 -4 24 24" version="1.1"><path id="path943" style="fill:#f1f2f2;text-decoration-line:none;text-transform:none;text-indent:0" d="m7.9883 0.99609c-3.842 0-6.9922 3.1492-6.9922 6.9922-0.00001 3.8417 3.1492 7.0157 6.9922 7.0157h0.0117v-4.008a2.981 2.981 0 0 1 -0.0117 0c-1.68 0-2.9844-1.3277-2.9844-3.0077s1.3034-2.9844 2.9844-2.9844c0.3675 0 0.7093 0.0788 1.0312 0.1953-0.0066-0.0664-0.0195-0.131-0.0195-0.1992v-3c0-0.3224 0.0824-0.6214 0.2168-0.8906-0.3996-0.0718-0.8095-0.11331-1.2285-0.11331zm0.0176 5.0098c-1.099 0-2.0137 0.898-2.0137 1.9961 0 1.097 0.9115 1.9928 2.0078 1.996v-0.996a0.99 0.99 0 0 1 -0.9922 -1 0.99 0.99 0 0 1 0.9922 -0.9981v-0.0039a1.0001 1.0001 0 0 1 0.5781 -0.9062 2.002 2.002 0 0 0 -0.5722 -0.0879zm0.9941 0.9941v9h7v-7l-1.896-2h-0.104-3-2zm1 1h4v1h1v6h-5v-7z"/><path id="path880" style="fill:#669900" d="m12 0v1.996h-2v1.997h2v1.997h2v-1.997h2v-1.997h-2v-1.996z"/></svg>
