<?xml version="1.0" encoding="UTF-8" standalone="no"?>
<svg xmlns="http://www.w3.org/2000/svg" version="1.1" viewBox="-4 -4 24 24">
 <g fill="#f1f2f2">
  <path d="m4.031 5.031-0.031 7.969h4l4-4v-4z"/>
  <path d="m5.53 0h5.002c0.29271 0 0.53 0.23729 0.53 0.53v2.94c0 0.2927-0.237 0.53-0.53 0.53h-5.002c-0.2927 0-0.53-0.2373-0.53-0.53v-2.94c0-0.29271 0.2373-0.53 0.53-0.53z"/>
  <path stroke-width=".92582" d="m2.5 1c-0.277 0-0.5 0.223-0.5 0.5v13c0 0.277 0.223 0.5 0.5 0.5h11c0.277 0 0.5-0.223 0.5-0.5v-13c0-0.277-0.223-0.5-0.5-0.5h-1.438v1h0.938v12h-10v-12h1v-1h-1.5z" fill="#f1f2f2"/>
 </g>
 <rect ry="1" height="9" width="9" y="7" x="7" fill="#333"/>
 <path style="color:#f1f2f2" d="m8.8755 8.0615c-0.4832-0.0084-0.8784 0.3828-0.875 0.866v5.1955c-0.0046 0.48402 0.39104 0.87646 0.875 0.868h5.249c0.48396 0.0085 0.87958-0.38398 0.875-0.868v-5.1945c0.005-0.484-0.391-0.8765-0.875-0.868zm2.1245 0.99h1v2.9665h-1zm0 3.9575h1v0.991h-1z" overflow="visible" class="warning" fill="#f60"/>
</svg>
