<?xml version="1.0" encoding="UTF-8" standalone="no"?>
<svg xmlns="http://www.w3.org/2000/svg" version="1.1" viewBox="-4 -4 24 24">
 <path d="m9.5 2a2.49 2.49 0 0 0 -2.469 2.219c-0.327-0.122-0.661-0.219-1.031-0.219a3 3 0 0 0 -3 3c0 0.098 0.022 0.185 0.031 0.281a2.014 2.014 0 0 0 -1.031 -0.281 2 2 0 1 0 0 4h5v-2.125c0-1.01 0.865-1.875 1.875-1.875h5.062a2.499 2.499 0 0 0 -2 -1.938 2.5 2.5 0 0 0 -2.437 -3.062z" overflow="visible" fill="#f1f2f2"/>
 <rect ry="1" height="9" width="9" y="7" x="7" fill="#333"/>
 <path style="color:#f1f2f2" d="m8.8755 8.0615c-0.48317-0.0084-0.87844 0.38276-0.875 0.866v5.1955c-0.0046 0.48402 0.39104 0.87646 0.875 0.868h5.249c0.48396 0.0085 0.87958-0.38398 0.875-0.868v-5.1945c0.0046-0.48402-0.39104-0.87646-0.875-0.868zm2.1245 0.99h1v2.9665h-1zm0 3.9575h1v0.991h-1z" class="warning" overflow="visible" fill="#f60"/>
</svg>
