<?xml version="1.0" encoding="UTF-8" standalone="no"?>
<svg id="svg8" xmlns="http://www.w3.org/2000/svg" version="1.1" viewBox="-4 -4 24 24"><path id="path2" style="text-indent:0;text-decoration-line:none;text-transform:none;fill:#f1f2f2" d="m3.1875 0a2.197 2.197 0 0 0 -2.1875 2.1875v11.624c0 1.2 0.9855 2.188 2.1875 2.188h5.6992v-2h-5.6992c-0.125 0-0.1875-0.056-0.1875-0.188v-11.624c0-0.1325 0.0635-0.188 0.1875-0.188h9.6245c0.124 0 0.188 0.0565 0.188 0.1875v6.6992h0.5c0.548 0 1.068 0.1733 1.5 0.4649v-7.1641c0-1.2-0.986-2.1875-2.188-2.1875h-9.6245zm4.9375 2.998a3.985 3.985 0 0 0 -0.2812 0.002c-0.266 0.01-0.5446 0.059-0.8126 0.125a3.99 3.99 0 0 0 -2.9062 4.8438 3.985 3.985 0 0 0 4.373 2.9942l-0.3886-2.9806a0.39 0.39 0 0 1 -0.1094 0.0176 1 1 0 1 1 1 -1 0.797 0.797 0 0 1 -0.0723 0.3242l2.7013 1.3887c0.386-0.83 0.469-1.7817 0.246-2.6817a3.985 3.985 0 0 0 -3.75 -3.0332zm0.5352 5.002l1.2265 3.662v-0.277c0-0.579 0.2103-1.095 0.5453-1.51l-1.7718-1.875z"/><path id="path915" style="color:#f1f2f2;fill:#ff6600" overflow="visible" d="m12.5 10c-0.822 0-1.5 0.626-1.5 1.385v1.685h-0.5c-0.277 0-0.5 0.205-0.5 0.461v2.469h6v-2.469c0-0.256-0.223-0.461-0.5-0.461h-0.5v-1.685c0-0.76-0.678-1.385-1.5-1.385zm0 0.923h1c0.286 0 0.5 0.198 0.5 0.462v1.685h-2v-1.685c0-0.264 0.214-0.462 0.5-0.462z"/></svg>
