<?xml version="1.0" encoding="UTF-8" standalone="no"?>
<svg xmlns="http://www.w3.org/2000/svg" version="1.1" viewBox="-4 -4 24 24">
 <path opacity=".9314" d="m3.5 1c-1.3819-0.00277-2.5028 1.1181-2.5 2.5v5.5117c0.0195-0.0023 0.0365-0.0117 0.0566-0.0117h13.943v-5.5c0-1.385-1.115-2.5-2.5-2.5h-9zm-2.5 8.9883v1.5117c0 1.385 1.115 2.5 2.5 2.5h9c1.385 0 2.5-1.115 2.5-2.5v-1.5h-13.943c-0.0205 0-0.0375-0.0094-0.057-0.0117z" fill="#f1f2f2"/>
 <path style="color:#f1f2f2" fill="#333" d="m11.5 8c-1.33 0-2.5 1.0302-2.5 2.385v0.88476c-0.54 0.209-1 0.626-1 1.261v2.469a1.0001 1.0001 0 0 0 1 1h6a1.0001 1.0001 0 0 0 1 -1v-2.4688c0-0.63555-0.46001-1.0518-1-1.2617v-0.884c0-1.355-1.171-2.385-2.5-2.385z"/>
 <path style="color:#f1f2f2" d="m11.5 9c-0.822 0-1.5 0.626-1.5 1.385v1.685h-0.5c-0.277 0-0.5 0.205-0.5 0.461v2.469h6v-2.469c0-0.256-0.223-0.461-0.5-0.461h-0.5v-1.685c0-0.76-0.678-1.385-1.5-1.385zm0 0.923h1c0.286 0 0.5 0.198 0.5 0.462v1.685h-2v-1.685c0-0.264 0.214-0.462 0.5-0.462z" overflow="visible" fill="#f60"/>
</svg>
