/* XPM */
static char * linux_xpm[] = {
"70 48 6 1",
" 	c None",
".	c #141313",
"+	c #606060",
"@	c #BEBFBF",
"#	c #BDBEBE",
"$	c #BDBDBD",
"..............................................................++......",
"..............................................................++......",
"..............................................................++......",
"..............................................................++......",
"..............................................................++......",
"..............................................................++......",
"..............................................................++......",
"..............................................................++......",
"..............................................................++......",
"..............................................................++......",
"..............................................................++......",
"..............................................................++......",
"..............................................................++......",
"..............................................................++......",
"....................@@##....@@##....@@##......................++......",
"....................@@##....@@##....@@##......................++......",
"....................##$$....##$$....##$$......................++......",
"....................##$$....##$$....##$$......................++......",
"..............................................................++......",
"..............................................................++......",
"..............................................................++......",
"..............................................................++......",
"....................@@##....@@##....@@##......................++......",
"....................@@##....@@##....@@##......................++......",
"....................##$$....##$$....##$$......................++......",
"....................##$$....##$$....##$$......................++......",
"..............................................................++......",
"..............................................................++......",
"..............................................................++......",
"..............................................................++......",
"....................@@##....@@##....@@##......................++......",
"....................@@##....@@##....@@##......................++......",
"....................##$$....##$$....##$$......................++......",
"....................##$$....##$$....##$$......................++......",
"..............................................................++......",
"..............................................................++......",
"..............................................................++......",
"..............................................................++......",
"..............................................................++......",
"..............................................................++......",
"..............................................................++......",
"..............................................................++......",
"..............................................................++......",
"..............................................................++......",
"..............................................................++......",
"..............................................................++......",
"..............................................................++......",
"..............................................................++......"};
