/* XPM */
static char * errmail_xpm[] = {
"32 32 76 1",
" 	c None",
".	c #141313",
"+	c #575656",
"@	c #DCDDDD",
"#	c #F1F2F2",
"$	c #D9D9D9",
"%	c #535252",
"&	c #D8DADA",
"*	c #D7D7D7",
"=	c #B9B9B9",
"-	c #262525",
";	c #D7D8D8",
">	c #3F3E3E",
",	c #D4D5D5",
"'	c #EAEBEB",
")	c #686767",
"!	c #616060",
"~	c #E8EAEA",
"{	c #242323",
"]	c #B6B5B5",
"^	c #999898",
"/	c #181717",
"(	c #171616",
"_	c #8A8989",
":	c #BCBCBC",
"<	c #282727",
"[	c #161515",
"}	c #B6B6B6",
"|	c #646363",
"1	c #3D3D3D",
"2	c #414141",
"3	c #261111",
"4	c #760808",
"5	c #AB0303",
"6	c #C40000",
"7	c #C20000",
"8	c #D33030",
"9	c #DE7A7A",
"0	c #EDE0E0",
"a	c #580B0B",
"b	c #CC0000",
"c	c #CE1010",
"d	c #E6AAAA",
"e	c #590B0B",
"f	c #CC0202",
"g	c #480D0D",
"h	c #291010",
"i	c #C60000",
"j	c #BD0101",
"k	c #1E1111",
"l	c #7B0808",
"m	c #680A0A",
"n	c #B20202",
"o	c #CB0000",
"p	c #BF0101",
"q	c #CE0F0F",
"r	c #9F0404",
"s	c #CC0303",
"t	c #CD0B0B",
"u	c #EFE6E6",
"v	c #B90101",
"w	c #D12222",
"x	c #DB6A6A",
"y	c #281010",
"z	c #C50000",
"A	c #BC0101",
"B	c #1D1111",
"C	c #C90000",
"D	c #560C0C",
"E	c #490D0D",
"F	c #740909",
"G	c #AA0303",
"H	c #C10101",
"I	c #A60303",
"J	c #6D0909",
"K	c #201111",
"................................",
"................................",
"................................",
"................................",
"................................",
"................................",
"..+@########################$%..",
"..&##########################*..",
"..############################..",
"..############################..",
"..#######=-..........-=#######..",
"..########;>........>;########..",
"..####,####')......!~####$####..",
"..####{]#####^/..(_#####:<####..",
"..####.[_#####:<{}#####^/.####..",
"..####...|~####;;####~|...####..",
"..####....1,########$2....####..",
"..####.....{]######:<.....####..",
"..####......[_####^/.34567890#..",
"..####........!~')..a6bbbbbbcd..",
"..####.........>>..ebbbbbbbbbfg.",
"..####............hibbbbbbbbbbjk",
"..####............lbbbbbbbbbbbbm",
"..####............noppppppcccqbr",
"..################st#########ubv",
"..################st#########ubv",
"..$###############wbbbbbbbbbbbbr",
"..%$##############xbbbbbbbbbbbbm",
"..................yzbbbbbbbbbbAB",
"...................abbbbbbbbbCg.",
"....................D6bbbbbbpE..",
".....................3FG6HIJK..."};
