/* XPM */
static char * nomail_xpm[] = {
"32 32 28 1",
" 	c None",
".	c #141313",
"+	c #353434",
"@	c #777777",
"#	c #828282",
"$	c #767575",
"%	c #333232",
"&	c #767676",
"*	c #757575",
"=	c #666666",
"-	c #1C1B1B",
";	c #292828",
">	c #747474",
",	c #7E7E7E",
"'	c #3D3C3C",
")	c #3A3939",
"!	c #7D7E7E",
"~	c #1B1A1A",
"{	c #646363",
"]	c #565555",
"^	c #151414",
"/	c #4F4E4E",
"(	c #686767",
"_	c #1D1C1C",
":	c #656464",
"<	c #3B3B3B",
"[	c #282828",
"}	c #2A2929",
"................................",
"................................",
"................................",
"................................",
"................................",
"................................",
"..+@########################$%..",
"..&##########################*..",
"..############################..",
"..############################..",
"..#######=-..........-=#######..",
"..########*;........;*########..",
"..####>####,'......)!####$####..",
"..####~{#####]^..^/#####(_####..",
"..####../#####(_~:#####]^.####..",
"..####...<,####**####,<...####..",
"..####....[>########$}....####..",
"..####.....~{######(_.....####..",
"..####......./####]^......####..",
"..####........)!,'........####..",
"..####.........;;.........####..",
"..####....................####..",
"..####....................####..",
"..####....................####..",
"..############################..",
"..############################..",
"..$##########################*..",
"..%$########################*%..",
"................................",
"................................",
"................................",
"................................"};
