<?xml version="1.0" encoding="UTF-8" standalone="no"?>
<svg xmlns="http://www.w3.org/2000/svg" version="1.1" viewBox="-3 -3 22 22">
 <defs>
  <clipPath id="a">
   <path d="m26.85 220.75h3.825v6.375h-3.825z" color="#f1f2f2" overflow="visible" stroke-width="2" fill="#f1f2f2"/>
  </clipPath>
 </defs>
 <g opacity=".5" fill="#f1f2f2">
  <path opacity=".7" style="color:#000000;text-decoration-line:none;text-transform:none;text-indent:0" d="m3.8008 5.0508l-0.7774 0.7793 1.2735 1.2754a5.0532 4.6324 45.425 0 1 4.2285 3.2895 4.5 4.5 0 0 1 1.3789 -1.5649 7.1794 6.5817 45.425 0 0 -6.1035 -3.7793z"/>
  <path opacity=".9" style="color:#000000;text-decoration-line:none;text-transform:none;text-indent:0" d="m27.063 220.5a1.164 1.164 0 0 0 -0.688 2c0.8 0.8 0.8 2.075 0 2.875a1.164 1.164 0 1 0 1.625 1.62 4.334 4.334 0 0 0 0 -6.12 1.164 1.164 0 0 0 -0.938 -0.38z" clip-path="url(#a)" transform="matrix(.56001 -.56073 .67202 .67289 -160.36 -124.79)" overflow="visible"/>
  <path opacity=".269" style="color:#000000;text-decoration-line:none;text-transform:none;text-indent:0" d="m3.9727 2.0176l-0.9532 0.9551 1.0254 1.0273a8.1881 7.6119 45.507 0 1 6.7991 4.3184 4.5 4.5 0 0 1 1.656 -0.3184 4.5 4.5 0 0 1 0.359 0.0195 10.234 9.5142 45.507 0 0 -8.8863 -6.0019z"/>
  <path stroke-width="1.0104" d="m4.4476 14.408a2.0196 2.0222 0 0 1 -2.8561 0 2.0196 2.0222 0 0 1 0 -2.8598 2.0196 2.0222 0 0 1 2.8561 0 2.0196 2.0222 0 0 1 0 2.8598z"/>
 </g>
 <circle cx="11.5" cy="11.5" r="4.5" fill="#333"/>
 <path style="color:#f1f2f2" d="m11.5 8a3.5 3.5 0 1 0 0 7 3.5 3.5 0 0 0 0 -7zm-2.5 2.969h5v1.031h-5z" class="error" overflow="visible" fill="#c00"/>
</svg>
