<?xml version="1.0" encoding="UTF-8" standalone="no"?>
<svg xmlns="http://www.w3.org/2000/svg" version="1.1" viewBox="-3 -3 22 22">
 <path d="m0 5h2.484l2.97-3 0.546 0.016v12h-0.475l-3.04-3.016h-2.485z" color="#f1f2f2" overflow="visible" fill="#f1f2f2"/>
 <path opacity=".35" style="text-decoration-line:none;text-transform:none;text-indent:0" font-family="Sans" d="m11 1v1.438c1.832 2.095 2.41 4.954 1.781 7.562h1.938c0.596-3.14-0.203-6.512-2.406-9zm-2 2v1.813c1.41 1.843 1.41 4.531 0 6.375v1.812h1v-3h1.719c0.636-2.402 0.096-5.122-1.625-7z" overflow="visible" font-weight="400" fill="#f1f2f2"/>
 <path style="color:#f1f2f2" d="m11 10a1.0001 1.0001 0 0 0 -1 1v1.4707a1.0001 1.0001 0 0 0 0.29297 0.70703l0.35547 0.35352-0.35547 0.35547a1.0001 1.0001 0 0 0 -0.293 0.707v1.406a1.0001 1.0001 0 0 0 1 1h1.4375a1.0001 1.0001 0 0 0 0.70703 -0.29297l0.355-0.355 0.355 0.355a1.0001 1.0001 0 0 0 0.707 0.293h1.438a1.0001 1.0001 0 0 0 1 -1v-1.406a1.0001 1.0001 0 0 0 -0.303 -0.717l-0.355-0.346 0.355-0.345a1.0001 1.0001 0 0 0 0.303 -0.717v-1.469a1.0001 1.0001 0 0 0 -1 -1h-1.4062a1.0001 1.0001 0 0 0 -0.70703 0.29297l-0.39648 0.39648-0.41797-0.40625a1.0001 1.0001 0 0 0 -0.698 -0.283z" transform="translate(-1,-1)" fill="#333"/>
 <path opacity=".35" style="text-decoration-line:none;text-transform:none;text-indent:0" font-family="Sans" d="m9 8c0-1.257-0.312-2.216-1-3h-1v6h1c0.672-0.837 1-1.742 1-3z" overflow="visible" font-weight="400" fill="#f1f2f2"/>
 <path style="color:#f1f2f2" d="m10 10h1.375l1.125 1.094 1.093-1.094h1.407v1.469l-1.094 1.062 1.094 1.063v1.406h-1.438l-1.062-1.063-1.063 1.063h-1.437v-1.406l1.062-1.063-1.062-1.061z" overflow="visible" fill="#c00"/>
</svg>
