<?xml version="1.0" encoding="UTF-8" standalone="no"?>
<svg xmlns="http://www.w3.org/2000/svg" xml:space="preserve" viewBox="-3 -3 22 22" version="1.1" xmlns:xlink="http://www.w3.org/1999/xlink"><defs><linearGradient id="linearGradient147" x1="37.868" xlink:href="#SVGID_1_" gradientUnits="userSpaceOnUse" y1="-22.713" gradientTransform="matrix(1.0059 0 0 -.9942 9.9104 69.418)" x2="37.868" y2="62.786"/></defs><filter style="color-interpolation-filters:sRGB" height="1.384" width="1.384" y="-.192" x="-.192"><feGaussianBlur stdDeviation="5.28"/></filter><filter id="filter3218" style="color-interpolation-filters:sRGB"><feGaussianBlur stdDeviation="1.71"/></filter><path fill="#f1f2f2" d="m6.0508 0.90039c-0.0368 0.00946-0.0683 0.03602-0.084 0.07031l-5.9551 12.847c-0.037471 0.077 0.02582 0.18 0.11135 0.182h2.1094c0.0466-0.001 0.0925-0.029 0.1133-0.07l1.3496-2.918h4.3164l0.4922 2.883c0.0102 0.058 0.0671 0.105 0.127 0.105h1.3691v-4h0.562l-1.5932-8.9941c-0.0102-0.05861-0.0671-0.10569-0.127-0.10551h-2.7637c-0.0093-0.00103-0.018-0.00103-0.0273 0zm0.8301 2.7148l0.8711 5.4219h-3.17l2.2989-5.4219z"/><g display="none" transform="translate(0,-80)"><g opacity=".9" filter="url(#filter3218)" display="inline"><linearGradient id="SVGID_1_" y2="62.786" gradientUnits="userSpaceOnUse" x2="37.868" gradientTransform="matrix(1.0059 0 0 -.9942 9.9104 69.418)" y1="-22.713" x1="37.868"><stop offset="0"/><stop stop-opacity=".5882" offset="1"/></linearGradient><path fill="url(#SVGID_1_)" d="m12 7h72c3.866 0 7 3.134 7 7v71c0 3.866-3.134 7-7 7h-72c-3.866 0-7-3.134-7-7v-71c0-3.866 3.134-7 7-7z"/></g></g><g display="none" transform="translate(31.593 -80.61)"><g opacity=".9" filter="url(#filter3218-5)" display="inline"><path fill="url(#linearGradient147)" d="m12 7h72c3.866 0 7 3.134 7 7v71c0 3.866-3.134 7-7 7h-72c-3.866 0-7-3.134-7-7v-71c0-3.866 3.134-7 7-7z"/></g></g><path style="color:#f1f2f2" d="m11 10a1.0001 1.0001 0 0 0 -1 1v1.4707a1.0001 1.0001 0 0 0 0.29297 0.70703l0.35547 0.35352-0.35547 0.35547a1.0001 1.0001 0 0 0 -0.293 0.707v1.406a1.0001 1.0001 0 0 0 1 1h1.4375a1.0001 1.0001 0 0 0 0.70703 -0.29297l0.355-0.355 0.355 0.355a1.0001 1.0001 0 0 0 0.707 0.293h1.438a1.0001 1.0001 0 0 0 1 -1v-1.406a1.0001 1.0001 0 0 0 -0.303 -0.717l-0.355-0.346 0.355-0.345a1.0001 1.0001 0 0 0 0.303 -0.717v-1.469a1.0001 1.0001 0 0 0 -1 -1h-1.4062a1.0001 1.0001 0 0 0 -0.70703 0.29297l-0.39648 0.39648-0.41797-0.40625a1.0001 1.0001 0 0 0 -0.698 -0.283z" transform="translate(-1,-1)" fill="#333"/><path style="color:#f1f2f2" fill="#c00" overflow="visible" d="m10 10h1.375l1.125 1.094 1.093-1.094h1.407v1.469l-1.094 1.062 1.094 1.063v1.406h-1.438l-1.062-1.063-1.063 1.063h-1.437v-1.406l1.062-1.063-1.062-1.061z"/></svg>
