<?xml version="1.0" encoding="UTF-8" standalone="no"?>
<svg xmlns="http://www.w3.org/2000/svg" version="1.1" xmlns:xlink="http://www.w3.org/1999/xlink" viewBox="-3 -3 22 22">
 <defs>
  <linearGradient id="linearGradient147" y2="62.786" xlink:href="#SVGID_1_" gradientUnits="userSpaceOnUse" x2="37.868" gradientTransform="matrix(1.0059 0 0 -.9942 9.9104 69.418)" y1="-22.713" x1="37.868"/>
  <linearGradient id="linearGradient981" y2="62.786" xlink:href="#SVGID_1_" gradientUnits="userSpaceOnUse" x2="37.868" gradientTransform="matrix(1.0059 0 0 -.9942 9.9104 69.418)" y1="-22.713" x1="37.868"/>
 </defs>
 <g opacity=".5" transform="rotate(90,8,8)" fill="#f1f2f2">
  <path style="color:#000000" d="m1 2.998v10h9.1523c-0.099-0.158-0.151-0.341-0.152-0.527v-0.473h-8v-7.998l10-0.00195v2h2v4h-2v0.002h0.375c0.26043 0.000015 0.51058 0.10162 0.69727 0.2832l0.41797 0.40625 0.39648-0.39648c0.188-0.188 0.443-0.293 0.708-0.293h0.25977c0.07163-0.17803 0.11674-0.36801 0.11719-0.56445h0.029v-2.9688c0-0.49-0.22775-0.79625-0.46875-1.0312-0.24-0.235-0.527-0.4375-1-0.4375h-0.531v-2zm2 2v6h2v-6zm3 0v6h2v-6z" transform="rotate(-90,8,8)"/>
 </g>
 <g display="none" transform="translate(-21.966 -78.551)">
  <g opacity=".9" filter="url(#filter3218)" display="inline">
   <linearGradient id="SVGID_1_" y2="62.786" gradientUnits="userSpaceOnUse" x2="37.868" gradientTransform="matrix(1.0059 0 0 -.9942 9.9104 69.418)" y1="-22.713" x1="37.868">
    <stop offset="0"/>
    <stop stop-opacity=".5882" offset="1"/>
   </linearGradient>
   <path fill="url(#linearGradient981)" d="m12 7h72c3.866 0 7 3.134 7 7v71c0 3.866-3.134 7-7 7h-72c-3.866 0-7-3.134-7-7v-71c0-3.866 3.134-7 7-7z"/>
  </g>
 </g>
 <g display="none" transform="translate(9.6266 -79.161)">
  <g opacity=".9" filter="url(#filter3218-5)" display="inline">
   <path fill="url(#linearGradient147)" d="m12 7h72c3.866 0 7 3.134 7 7v71c0 3.866-3.134 7-7 7h-72c-3.866 0-7-3.134-7-7v-71c0-3.866 3.134-7 7-7z"/>
  </g>
 </g>
 <circle cy="11.5" cx="11.5" r="4.5" fill="#333"/>
 <path style="color:#f1f2f2" d="m11.5 8a3.5 3.5 0 1 0 0 7 3.5 3.5 0 0 0 0 -7zm-2.5 2.969h5v1.031h-5z" class="error" overflow="visible" fill="#c00"/>
</svg>
