<?xml version="1.0" encoding="UTF-8" standalone="no"?>
<svg xmlns="http://www.w3.org/2000/svg" version="1.1" viewBox="-3 -3 22 22">
 <g opacity=".5" fill="#f1f2f2">
  <path style="text-decoration-line:none;text-transform:none;text-indent:0" font-family="Sans" d="m6.875 0.01a1 1 0 0 0 -0.875 1v3.562l-1.281-1.281a1.016 1.016 0 1 0 -1.439 1.437l2.72 2.72v1.124l-2.72 2.719a1.016 1.016 0 1 0 1.438 1.437l1.28-1.28v3.562a1 1 0 0 0 1.72 0.718l4-4a1 1 0 0 0 0 -1.437l-2.281-2.281 2.282-2.282a1 1 0 0 0 0 -1.437l-4-4a1 1 0 0 0 -0.844 -0.281zm1.125 3.437l1.562 1.563-1.562 1.562zm0 6l1.562 1.563-1.562 1.562z" overflow="visible" font-weight="400"/>
  <path style="" d="m3 3.01h1v1h-1zm0 9h1v1h-1zm3 3h1v1h-1zm0-15h1v1h-1z"/>
 </g>
</svg>
