<?xml version="1.0" encoding="UTF-8" standalone="no"?>
<svg xmlns="http://www.w3.org/2000/svg" viewBox="-3 -3 22 22" version="1.1">
 <title>Gnome Symbolic Icon Theme</title>
 <path style="color:#bebebe;text-transform:none;text-indent:0" fill="#f1f2f2" d="m8 1c-3.1532 0-5.8195 2.1257-6.6875 5h2.0937c0.7734-1.765 2.5382-3 4.5938-3 2.056 0 3.82 1.235 4.594 3h0.808c-0.227 0.0287-0.532 0.0313-0.97 0.0312h-1.438c-0.523 0.0001-0.9998 0.4765-0.9999 1-0.008 0.0726-0.008 0.1462 0 0.2188v0.7812h2.0269a4.5 4.5 0 0 1 0.479 -0.0312 4.5 4.5 0 0 1 0.502 0.0312h2.992v-5c0.006-0.0622 0.006-0.1251 0-0.1874v-0.8126h-0.812c-0.092-0.0236-0.187-0.0342-0.282-0.0312-0.042 0.008-0.084 0.0182-0.125 0.0312-0.447 0.1002-0.792 0.542-0.781 1v1.4395c-1.217-2.0615-3.437-3.4707-5.994-3.4707zm-8 7v5c-0.006 0.062-0.006 0.125 0 0.188v0.812h0.8125c0.0916 0.024 0.18665 0.034 0.2813 0.031 0.0422-0.008 0.084-0.018 0.125-0.031 0.4471-0.1 0.7922-0.542 0.7812-1v-1.482c1.2157 2.068 3.438 3.482 6 3.482 0.245 0 0.4802-0.036 0.7188-0.061a4.5 4.5 0 0 1 -0.6856 -1.941c-0.0113 0-0.0219 0.002-0.0332 0.002-2.0531 0-3.815-1.233-4.5898-2.994 0.0632 0 0.0909-0.004 0.1601-0.004h1.4375c0.5236 0 1-0.4765 1-1 0.008-0.0726 0.008-0.1462 0-0.2188v-0.7812l-6.0078-0.002z"/>
 <circle cx="11.5" cy="11.5" r="4.5" fill="#333"/>
 <path style="color:#f1f2f2" d="m11.5 8a3.5 3.5 0 1 0 0 7 3.5 3.5 0 0 0 0 -7zm-2.5 2.969h5v1.031h-5z" class="error" overflow="visible" fill="#c00"/>
</svg>
