<?xml version="1.0" encoding="UTF-8" standalone="no"?>
<svg xmlns="http://www.w3.org/2000/svg" version="1.1" viewBox="-3 -3 22 22">
 <g fill="#f1f2f2">
  <path style="color:#f1f2f2;text-decoration-line:none;text-transform:none;text-indent:0" d="m9 0a1.0001 1.0001 0 0 0 -1 1v0.78125l0.025391-0.2207c-0.16579 0.73419 0.17058 1.3672 0.6875 1.834l-0.7109 0.6504-1.6211-1.4863c-0.3859-0.3707-0.903-0.5701-1.4336-0.5586h-0.9473a1.0001 1.0001 0 0 0 -1 1v0.75l0.00195-0.046875c-0.00291 0.062666-0.00291 0.12483 0 0.1875l0.0117-0.2109c-0.1057 0.6378 0.1039 1.2897 0.5605 1.7461a1.0001 1.0001 0 0 0 0.0449 0.043l3.7188 3.2812a1.0001 1.0001 0 0 0 1.3281 -0.00391l2.8418-2.5312c0.369 0.4549 0.87 0.7851 1.492 0.7851h1a1.0001 1.0001 0 0 0 1 -1v-0.8438l-0.0039 0.078125c0.0083-0.10457 0.0083-0.20793 0-0.3125l0.004 0.0782v-4a1.0001 1.0001 0 0 0 -1 -1h-3.953c-0.016-0.00024316-0.031-0.00012158-0.047 0z" fill="#333"/>
  <path style="color:#f1f2f2;text-decoration-line:none;text-transform:none;text-indent:0" d="m9 1v0.781c-0.14634 0.64804 0.36763 1.2562 1.031 1.22h0.594l-2.625 2.399-2.313-2.12c-0.1926-0.185-0.451-0.2858-0.718-0.28h-0.969v0.75c-0.00144 0.030983-0.00144 0.062017 0 0.093-0.053 0.3199 0.0517 0.6457 0.281 0.875l3.719 3.282 4-3.563v0.563c0 0.55228 0.44772 1 1 1h1v-0.844c0.0041-0.051921 0.0041-0.10408 0-0.156v-4h-3.969c-0.01-0.00016-0.021-0.00016-0.031 0z" font-size="xx-small" overflow="visible" font-weight="400" fill="#f60"/>
  <path stroke-width="1.0051" d="m1.2603 13.689c-0.344-0.34547-0.35-1.0859 0-1.4364l0.04-0.04041c4.267-4.29 9.167-4.283 13.425 0.01818l0.02 0.0202c0.35 0.35355 0.318 1.0808-0.02 1.4576l-1.93 2.0172c-0.35504 0.36082-0.93296 0.36082-1.288 0l-1.287-1.299c-0.35653-0.35852-0.35653-0.94152 0-1.3l0.302-0.30405c-2.226-1.075-2.814-1.075-5.04 0l0.303 0.30405c0.35653 0.35852 0.35653 0.94152 0 1.3l-1.287 1.3011c-0.35386 0.36366-0.93414 0.36366-1.288 0z"/>
 </g>
</svg>
