<?xml version="1.0" encoding="UTF-8" standalone="no"?>
<svg xmlns="http://www.w3.org/2000/svg" version="1.1" viewBox="-3 -3 22 22">
 <g font-family="Sans" font-weight="400" fill="#f60">
  <path style="text-decoration-line:none;text-transform:none;text-indent:0" fill="#333" d="m3 12v0.53125c0 0.321 0.1473 0.469 0.4707 0.469h1.5293v3h-1.5312c-0.9083 0-1.8109-0.373-2.4532-1.016-0.64222-0.642-1.0159-1.544-1.0156-2.453v-0.531z"/>
  <path style="text-decoration-line:none;text-transform:none;text-indent:0" d="m3.4688 0c-0.9081-0.00046557-1.8108 0.37376-2.4532 1.0156-0.6428 0.6423-1.0178 1.5444-1.0176 2.4532v9.0625c-0.00027791 0.90919 0.37418 1.8127 1.0176 2.4551 0.643 0.642 1.5466 1.015 2.4551 1.014h9.0603c0.90827 0.000276 1.8109-0.37338 2.4531-1.0156 0.643-0.642 1.016-1.544 1.016-2.453v-9.0603c0-0.9085-0.373-1.8126-1.016-2.4551-0.642-0.64241-1.546-1.0161-2.455-1.0156h-9.0583zm0 3h9.0624c0.01136 0 0.0087 0.01324 0.01953 0.013672l-4.0432 3.9551-1.2383-1.2383a1.0001 1.0001 0 0 0 -1.4141 0l-2.125 2.125a1.0001 1.0001 0 0 0 0 1.4141l3 3 0.7305 0.73h-3.9902l0.019531 2c0.086276-0.0017-0.57315-0.05465-0.48828-0.03906 0.084873 0.01559-0.55075-0.16894-0.4707-0.13672 0.080051 0.03222-0.50755-0.27607-0.43555-0.22852 0.072005 0.04756-0.43996-0.37152-0.37891-0.31055 0.0611 0.061-0.3582-0.451-0.3106-0.379 0.0477 0.072-0.2608-0.513-0.2285-0.433 0.0324 0.08-0.1524-0.556-0.1367-0.471s-0.0394-0.575-0.041-0.488l2 0.01758v-9.0613c0-0.3217 0.1482-0.4697 0.4688-0.4707zm9.5312 6.4648v3.0662c0 0.321-0.147 0.469-0.471 0.469h-2.9899l0.73047-0.73047a1.0001 1.0001 0 0 0 0.0098 -0.0098z" fill="#333"/>
  <path style="text-decoration-line:none;text-transform:none;text-indent:0" d="m3.4688 1a2.468 2.468 0 0 0 -2.4708 2.4688l0.00005 9.0622a2.468 2.468 0 0 0 2.4726 2.469h9.0604a2.468 2.468 0 0 0 2.469 -2.469v-9.0603a2.468 2.468 0 0 0 -2.471 -2.4707h-9.0602zm0 1h0.0019 9.0603c0.687 0 1.234 0.4375 1.407 1.0566l-5.438 5.3184-1.9375-1.9375-2.125 2.125 3 2.9995 1.0625 1.063 1.0625-1.063 4.4375-4.5581v5.5271c0 0.832-0.638 1.469-1.471 1.469h-9.0583a1.443 1.443 0 0 1 -1.4707 -1.469v-9.0603c0-0.8323 0.6367-1.4697 1.4688-1.4707z"/>
  <path d="m-30.562-13c-1.9075 0-3.5 1.5515-3.5 3.4688v9.0625c0 1.9178 1.593 3.4688 3.5 3.4688h9.125c1.9075 0 3.5-1.5515 3.5-3.4688v-9.0603c0-1.9184-1.592-3.4707-3.5-3.4707zm0.0332 3h9.0913c0.33867 0 0.5 0.16729 0.5 0.46875v9.0625c0 0.29982-0.16212 0.46875-0.5 0.46875h-9.125c-0.33707 0-0.5-0.1681-0.5-0.46875v-9.0603c0-0.29901 0.16372-0.46875 0.5-0.46875a1.0001 1.0001 0 0 0 0.0337 -0.002z" style="color:#000000;text-decoration-line:none;text-transform:none;text-indent:0" fill="#333"/>
 </g>
</svg>
