<?xml version="1.0" encoding="UTF-8" standalone="no"?>
<svg xmlns="http://www.w3.org/2000/svg" viewBox="-3 -3 22 22" version="1.1">
 <path style="text-decoration-line:none;text-transform:none;text-indent:0" fill="#f1f2f2" d="m3.4688 1a2.468 2.468 0 0 0 -2.4708 2.4688l0.00005 9.0622a2.468 2.468 0 0 0 2.4726 2.469h3.5294v-1h-3.5293a1.443 1.443 0 0 1 -1.4707 -1.469v-9.0603c0-0.833 0.6368-1.4707 1.4688-1.4707h9.0602c0.687 0 1.235 0.4376 1.409 1.0566l-4.0318 3.9434h5.0958v-3.5293a2.468 2.468 0 0 0 -2.475 -2.4707h-9.0582zm3.0937 5.4375l-2.125 2.125 2.5625 2.5625v-3.625c0-0.1711 0.0904-0.3142 0.2207-0.4043l-0.6582-0.6582z"/>
 <rect ry="1" height="9" width="9" y="7" x="7" fill="#333"/>
 <path style="color:#f1f2f2" d="m8.8755 8.0615c-0.48317-0.0084-0.87845 0.38276-0.875 0.866v5.1955c-0.0046 0.48402 0.39104 0.87646 0.875 0.868h5.249c0.48396 0.0085 0.87958-0.38398 0.875-0.868v-5.1945c0.0046-0.48402-0.39104-0.87646-0.875-0.868zm2.1245 0.99h1v2.9665h-1zm0 3.9575h1v0.991h-1z" class="warning" overflow="visible" fill="#f60"/>
</svg>
