<?xml version="1.0" encoding="UTF-8" standalone="no"?>
<svg xmlns="http://www.w3.org/2000/svg" height="16" width="16" version="1.1" viewBox="-3 -3 16 16">
 <path id="fill-rule-nonzero" d="m3.5234 1c-4.5661 0-2.9294 14 4.4766 14 7.278 0 9.019-14 4.494-14-1.408 0-3.0632 0.8524-4.4725 2.0293 0.7879 0.948 1.5179 1.9681 2.0355 3.0312 0.77 1.5838 1.116 3.1482 0.859 4.2035-0.128 0.527-0.385 0.932-0.836 1.236-0.4509 0.304-1.1152 0.5-2.0507 0.5-0.9488 0-1.6281-0.195-2.0879-0.5-0.4597-0.305-0.7211-0.713-0.8535-1.24-0.2647-1.0542 0.0769-2.6161 0.8476-4.1995 0.5164-1.0607 1.2482-2.079 2.0372-3.0253-1.3985-1.1795-3.0448-2.0352-4.4493-2.0352z" transform="translate(-3,-3)" stroke-width="0.7" fill="#f1f2f2"/>
</svg>
