<?xml version="1.0" encoding="UTF-8" standalone="no"?>
<svg xmlns="http://www.w3.org/2000/svg" height="16" width="16" version="1.1" viewBox="-3 -3 16 16">
 <path fill="#f1f2f2" d="m-0.5-2c-0.831 0-1.5 0.669-1.5 1.5v11c0 0.831 0.669 1.5 1.5 1.5h11c0.831 0 1.5-0.669 1.5-1.5v-11c0-0.831-0.669-1.5-1.5-1.5zm0 1h11c0.294 0 0.5 0.2057 0.5 0.5v11c0 0.294-0.206 0.5-0.5 0.5h-11c-0.2943 0-0.5-0.206-0.5-0.5v-11c0-0.2943 0.2057-0.5 0.5-0.5z"/>
 <rect ry="1" height="8" width="8" y="1" x="1" fill="#f1f2f2"/>
</svg>
