<?xml version="1.0" encoding="UTF-8" standalone="no"?>
<svg
   xmlns:dc="http://purl.org/dc/elements/1.1/"
   xmlns:cc="http://creativecommons.org/ns#"
   xmlns:rdf="http://www.w3.org/1999/02/22-rdf-syntax-ns#"
   xmlns:svg="http://www.w3.org/2000/svg"
   xmlns="http://www.w3.org/2000/svg"
   id="svg6"
   viewBox="-3 -3 22 22"
   version="1.1">
  <metadata
     id="metadata12">
    <rdf:RDF>
      <cc:Work
         rdf:about="">
        <dc:format>image/svg+xml</dc:format>
        <dc:type
           rdf:resource="http://purl.org/dc/dcmitype/StillImage" />
        <dc:title></dc:title>
      </cc:Work>
    </rdf:RDF>
  </metadata>
  <defs
     id="defs10" />
  <path
     style="fill:#f1f2f2"
     id="path2"
     d="M 8,1 A 7,7 0 0 0 1,8 7,7 0 0 0 8,15 7,7 0 0 0 15,8 7,7 0 0 0 8,1 Z m 0,0.998 c 1.571,0 3.133,0.6469 4.244,1.7579 1.111,1.1109 1.758,2.673 1.758,4.2441 0,1.571 -0.647,3.133 -1.758,4.244 C 11.133,13.355 9.571,14.002 8,14.002 6.4289,14.002 4.8668,13.355 3.7559,12.244 2.6449,11.133 1.998,9.571 1.998,8 1.998,6.4289 2.6449,4.8668 3.7559,3.7559 4.8668,2.6449 6.4289,1.998 8,1.998 Z" />
  <path
     style="opacity:0.5;fill:#f1f2f2"
     id="path4"
     d="M 4.5156,3.123 C 4.2463,3.3139 3.9894,3.5223 3.7559,3.7559 2.6449,4.8668 1.998,6.4289 1.998,8 H 8 Z M 8,8 h 6.002 c 0,-1.5711 -0.647,-3.1332 -1.758,-4.2441 -0.233,-0.2336 -0.49,-0.442 -0.76,-0.6329 z m 0,0 -3.4844,4.877 c 1.0118,0.717 2.2435,1.125 3.4844,1.125 1.241,0 2.473,-0.408 3.484,-1.125 z" />
</svg>
