<?xml version="1.0" encoding="UTF-8" standalone="no"?>
<svg
   xmlns:dc="http://purl.org/dc/elements/1.1/"
   xmlns:cc="http://creativecommons.org/ns#"
   xmlns:rdf="http://www.w3.org/1999/02/22-rdf-syntax-ns#"
   xmlns:svg="http://www.w3.org/2000/svg"
   xmlns="http://www.w3.org/2000/svg"
   xmlns:sodipodi="http://sodipodi.sourceforge.net/DTD/sodipodi-0.dtd"
   xmlns:inkscape="http://www.inkscape.org/namespaces/inkscape"
   viewBox="-3 -3 22 22"
   version="1.1"
   id="svg8"
   sodipodi:docname="printer-error.svg"
   inkscape:version="0.92.2 (5c3e80d, 2017-08-06)">
  <metadata
     id="metadata14">
    <rdf:RDF>
      <cc:Work
         rdf:about="">
        <dc:format>image/svg+xml</dc:format>
        <dc:type
           rdf:resource="http://purl.org/dc/dcmitype/StillImage" />
        <dc:title></dc:title>
      </cc:Work>
    </rdf:RDF>
  </metadata>
  <defs
     id="defs12" />
  <sodipodi:namedview
     pagecolor="#ffffff"
     bordercolor="#666666"
     borderopacity="1"
     objecttolerance="10"
     gridtolerance="10"
     guidetolerance="10"
     inkscape:pageopacity="0"
     inkscape:pageshadow="2"
     inkscape:window-width="1743"
     inkscape:window-height="480"
     id="namedview10"
     showgrid="true"
     inkscape:zoom="14.75"
     inkscape:cx="-0.6779661"
     inkscape:cy="8"
     inkscape:window-x="0"
     inkscape:window-y="27"
     inkscape:window-maximized="0"
     inkscape:current-layer="svg8">
    <inkscape:grid
       type="xygrid"
       id="grid829" />
  </sodipodi:namedview>
  <path
     d="M2 4c-.5 0-1 .5-1 1v4c0 .5.5 1 1 1h1V8l12 .004V5c0-.5-.5-1-1-1zm2-3v2h8V1z"
     fill="#f1f2f2"
     id="path2" />
  <path
     d="M4 9v5h4l-.006-5z"
     fill="#f1f2f2"
     id="path4" />
  <circle
     style="opacity:1;fill:#333333;fill-opacity:1;stroke:none;stroke-linecap:round;stroke-linejoin:round"
     id="path834"
     cx="11.500001"
     cy="11.5"
     r="4.5" />
  <path
     style="color:#f1f2f2;overflow:visible;fill:#cc0000"
     d="M 11.5,8.0000003 A 3.5,3.5 0 1 0 11.5,15 3.5,3.5 0 0 0 11.5,8.0000003 Z M 9.0000003,10.969 H 14 V 12 H 9.0000003 Z"
     class="error"
     overflow="visible"
     id="path17"
     inkscape:connector-curvature="0" />
</svg>
