<?xml version="1.0" encoding="UTF-8" standalone="no"?>
<svg xmlns="http://www.w3.org/2000/svg" version="1.1" viewBox="-3 -3 22 22">
 <path opacity=".5" stroke-width=".875" d="m2.334 1c-0.739 0-1.334 0.596-1.334 1.334v11.332c0 0.739 0.595 1.334 1.334 1.334h6.428a4.5 4.5 0 0 1 -0.762 -2.5 4.5 4.5 0 0 1 0.508 -2.068l-0.508-0.71-1.685 2.36a1.001 1.001 0 1 1 -1.63 -1.164l1.37-1.918h-2.055c-0.554 0-1-0.446-1-1s0.446-1 1-1h2.055l-1.37-1.918a1 1 0 0 1 0.772 -1.594 1 1 0 0 1 0.857 0.43l1.686 2.36 1.685-2.36a1 1 0 0 1 0.829 -0.43 1 1 0 0 1 0.8 1.594l-1.369 1.918h2.055c0.554 0 1 0.446 1 1 0 0.01-0.006 0.019-0.006 0.03a4.5 4.5 0 0 1 2.006 0.73v-6.426c0-0.738-0.595-1.334-1.334-1.334h-11.332zm5.666 6c-0.554 0-1 0.446-1 1s0.446 1 1 1 1-0.446 1-1-0.446-1-1-1z" fill="#f1f2f2"/>
 <circle cx="11.5" cy="11.5" r="4.5" fill="#333"/>
 <path style="color:#f1f2f2" d="m11.5 8a3.5 3.5 0 1 0 0 7 3.5 3.5 0 0 0 0 -7zm-2.5 2.969h5v1.031h-5z" class="error" overflow="visible" fill="#c00"/>
</svg>
