<?xml version="1.0" encoding="UTF-8" standalone="no"?>
<svg xmlns="http://www.w3.org/2000/svg" version="1.1" viewBox="-3 -3 22 22">
 <g fill="#f1f2f2">
  <path style="color:#000000;text-decoration-line:none;text-transform:none;text-indent:0" d="m10 8.9434a1.0575 1.0575 0 0 0 -1.0566 1.0566v5a1.0575 1.0575 0 0 0 1.0566 1.057h0.54102c0.26213 0.0039 0.52574-0.05275 0.76562-0.17188a1.0575 1.0575 0 0 0 0.01172 -0.0059l3.8906-1.9941c0.557-0.27718 0.84766-0.8527 0.84766-1.3848 0-0.52982-0.28938-1.1078-0.84766-1.3848l-3.892-1.9939a1.0575 1.0575 0 0 0 -0.01172 -0.00586c-0.24-0.1197-0.504-0.176-0.767-0.1718h-0.0332z" stroke-width=".52796" fill="#333"/>
  <path d="m4.281 14a4.454 4.454 0 0 1 -3.031 -1.188c-0.836-0.78-1.25-1.788-1.25-2.812s0.414-2.032 1.25-2.813c1.24-1.157 3.058-1.432 4.594-0.875l4.436-4.312h1.281l0.438 0.406v1.844l-0.749 0.75h-0.75l-0.75 1.5h-0.75v1.5l-0.75 0.563c0.597 1.433 0.302 3.092-0.938 4.25a4.454 4.454 0 0 1 -3.029 1.187zm-0.781-1a1.5 1.5 0 1 0 0 -3 1.5 1.5 0 0 0 0 3z" overflow="visible"/>
  <path style="color:#000000;text-decoration-line:none;text-transform:none;text-indent:0" stroke-width=".52796" d="m10 9.9999v5h0.55748a0.55748 0.5 0 0 0 0.27874 -0.0625l3.9023-2c0.173-0.087 0.262-0.262 0.262-0.438s-0.088-0.352-0.261-0.438l-3.9023-2a0.55525 0.498 0 0 0 -0.27874 -0.0625h-0.0524z" overflow="visible" font-weight="400" fill="#690"/>
 </g>
</svg>
