<?xml version="1.0" encoding="UTF-8" standalone="no"?>
<svg xmlns="http://www.w3.org/2000/svg" version="1.1" viewBox="-3 -3 22 22">
 <g fill="#f1f2f2">
  <rect ry=".5" height="7" width="7" y="9" x="9" fill="#333"/>
  <path d="m4.281 14a4.454 4.454 0 0 1 -3.031 -1.188c-0.836-0.78-1.25-1.788-1.25-2.812s0.414-2.032 1.25-2.813c1.24-1.157 3.058-1.432 4.594-0.875l4.436-4.312h1.281l0.438 0.406v1.844l-0.749 0.75h-0.75l-0.75 1.5h-0.75v1.5l-0.75 0.563c0.597 1.433 0.302 3.092-0.938 4.25a4.454 4.454 0 0 1 -3.029 1.187zm-0.781-1a1.5 1.5 0 1 0 0 -3 1.5 1.5 0 0 0 0 3z" overflow="visible"/>
  <path style="color:#f1f2f2;text-decoration-line:none;text-transform:none;text-indent:0" fill="#c00" d="m10 10v5h3 2v-5h-2-3z"/>
 </g>
</svg>
