<?xml version="1.0" encoding="UTF-8" standalone="no"?>
<svg xmlns="http://www.w3.org/2000/svg" viewBox="-3 -3 22 22" version="1.1">
 <path style="text-decoration-color:#000000;isolation:auto;mix-blend-mode:normal;text-indent:0;text-decoration-line:none;text-transform:none;text-decoration-style:solid" fill="#f1f2f2" d="m3 1c-1 0-2 1-2 2.0801v11.197c0 0.448 0.3596 0.743 0.8086 0.743h7.1914v-1.02h-7v-9h12v4h1.016l-0.016-6c-0.003-1-1-2-2-2h-10zm6.0234 2.0723h3.9766v0.9277h-3.9766v-0.9277z"/>
 <path d="m11 8a1.0099 1.0099 0 0 0 -1.0098 1.0098v0.9863h-0.9902a1.0099 1.0099 0 0 0 -1.0098 1.0098v1.998a1.0099 1.0099 0 0 0 1.0098 1.0098h0.9902v0.986a1.0099 1.0099 0 0 0 1.0098 1.01h2a1.0099 1.0099 0 0 0 1.01 -1.01v-0.986h0.99a1.0099 1.0099 0 0 0 1.01 -1.0098v-1.998a1.0099 1.0099 0 0 0 -1.01 -1.0099h-0.99v-0.9863a1.0099 1.0099 0 0 0 -1.01 -1.0098z" fill="#333"/>
 <path d="m11 9.01v1.996h-2v1.997h2v1.997h2v-1.997h2v-1.997h-2v-1.996z" fill="#690"/>
</svg>
