<?xml version="1.0" encoding="UTF-8" standalone="no"?>
<svg xmlns="http://www.w3.org/2000/svg" viewBox="-3 -3 22 22" version="1.1">
 <path style="text-decoration-color:#000000;isolation:auto;mix-blend-mode:normal;text-indent:0;text-decoration-line:none;text-transform:none;text-decoration-style:solid" fill="#f1f2f2" d="m3 1c-1-3e-8 -2 1-2 2.0801v11.197c0 0.448 0.35959 0.74219 0.80859 0.74219h12.38c0.449 0 0.79183-0.2945 0.80859-0.74219v-2.277h0.02539l-0.023-9c-0.003-1-1-2-2-2l-3.6348 2e-7zm6.0234 2.0723h3.9766v0.9277h-3.9766zm-7.0234 1.9277h12v9h-12z"/>
 <path fill="#f1f2f2" d="m6.9707 7c-0.255 0.0076-0.4975 0.1124-0.6777 0.293l-2 2c-0.3904 0.3905-0.3904 1.024 0 1.414l2 2c0.63 0.63 1.7067 0.184 1.707-0.707v-1h1 2c0.554 0 1-0.446 1-1s-0.446-1-1-1h-2-1v-1c0.0002-0.5639-0.4656-1.0165-1.0293-1z"/>
</svg>
