<?xml version="1.0" encoding="UTF-8" standalone="no"?>
<svg xmlns="http://www.w3.org/2000/svg" version="1.1" viewBox="0 0 16 16">
 <path style="color:#000000" d="m7 5.9453a1.0544 1.0544 0 0 0 -0.7461 1.8008l1.7637 1.7637c-0.4676 0.3104-0.9979 0.7672-1.3438 0.8382-0.5849 0.12-1.0247 0.013-1.4863-0.268-0.9232-0.5615-1.7851-2.0266-2.1738-3.373a1.0544 1.0544 0 0 0 -2.0664 0.334c0.12 3.092 1.5458 5.931 3.832 7.398 2.0563 1.3196 4.8409 1.1756 7.3711-0.79688l2.1035 2.1035a1.0544 1.0544 0 0 0 1.801 -0.746v-8a1.0544 1.0544 0 0 0 -1.055 -1.0547z" fill-opacity=".99491" display="block" stroke-width=".5" fill="#333"/>
 <path style="color:#000000" d="m2 7c0.2161 5.568 5.2909 10.148 10.264 5.264l2.736 2.736v-8h-8l2.6855 2.6855c-4.0827 3.9985-6.8089 0.3505-7.6855-2.6855z" display="block" stroke-width=".5" fill="#f1f2f2"/>
</svg>
