<?xml version="1.0" encoding="UTF-8" standalone="no"?>
<svg xmlns="http://www.w3.org/2000/svg" xmlns:osb="http://www.openswatchbook.org/uri/2009/osb" version="1.1" viewBox="0 0 16 16" width="32" height="32">
 <g id="snap-text-baseline" transform="translate(.07434)">
  <g transform="rotate(90 7.9257 7)">
   <g fill="#f1f2f2" transform="rotate(-90 8.4257 7.5)">
    <rect transform="matrix(0 1 1 0 -.07434 -6.9257)" height="15" width="1" y="1" x="13.926" stroke-width=".79057"/>
    <rect transform="matrix(0 1 1 0 -.07434 -6.9257)" height="3" width="6" y="2" x="6.9257" stroke-width=".47434"/>
    <rect transform="matrix(0 1 1 0 -.07434 -6.9257)" height="3" width="5" y="6" x="7.9257" stroke-width=".70711"/>
    <rect transform="rotate(-90 -3.5 -3.4257)" height="3" width="6" y="8" x="-21.926" stroke-width=".47434"/>
    <rect transform="rotate(-90 -3.5 -3.4257)" height="3" width="5" y="12" x="-20.926" stroke-width=".70711"/>
    <path d="m12.926 6 3-3h-6z"/>
    <rect transform="matrix(0,-1,-1,0,0,0)" height="2" width="4" y="-13.926" x="-4" stroke-width=".66667"/>
    <g transform="rotate(180 8.4257 7.5)">
     <path d="m12.926 6 3-3h-6z"/>
     <rect transform="matrix(0,-1,-1,0,0,0)" height="2" width="4" y="-13.926" x="-4" stroke-width=".66667"/>
    </g>
   </g>
  </g>
 </g>
</svg>
