<?xml version="1.0" encoding="UTF-8" standalone="no"?>
<svg xmlns="http://www.w3.org/2000/svg" version="1.1" viewBox="0 0 16 16" width="32" height="32">
 <rect ry="1" height="9" width="9" y="7" x="7" fill="#333"/>
 <g fill="#f1f2f2">
  <path opacity=".7" style="color:#000000;text-decoration-line:none;text-transform:none;text-indent:0" d="m3.8008 5.0508l-0.7774 0.7793 1.2735 1.2754a5.0532 4.6324 45.425 0 1 2.7031 1.2129v-0.3184c0-0.554 0.446-1 1-1h0.4004a7.1794 6.5817 45.425 0 0 -4.5996 -1.9492z"/>
  <path opacity=".9" style="color:#000000;text-decoration-line:none;text-transform:none;text-indent:0" stroke-width=".86813" d="m3.6504 8.125a1.107 0.92245 45.205 0 0 -0.0566 0.002l-0.5684 0.5683 1.6836 1.6857c0.3857 0.208 0.7084 0.532 0.916 0.918l1.375 1.377v-2.627a4.1216 3.4346 45.205 0 0 -3.248 -1.9142 1.107 0.92245 45.205 0 0 -0.1016 -0.0098z"/>
  <path opacity=".269" style="color:#000000;text-decoration-line:none;text-transform:none;text-indent:0" d="m3.9727 2.0176l-0.9532 0.9551 1.0254 1.0273a8.1881 7.6119 45.507 0 1 5.8555 3h2.3746a10.234 9.5142 45.507 0 0 -8.3023 -4.9824z"/>
  <path stroke-width="1.0104" d="m4.4476 14.408a2.0196 2.0222 0 0 1 -2.8561 0 2.0196 2.0222 0 0 1 0 -2.8598 2.0196 2.0222 0 0 1 2.8561 0 2.0196 2.0222 0 0 1 0 2.8598z"/>
 </g>
 <path style="color:#f1f2f2" d="m8.8755 8.0615c-0.4832-0.0084-0.8784 0.3828-0.875 0.866v5.1955c-0.00458 0.48402 0.39103 0.87646 0.875 0.868h5.249c0.48396 0.0085 0.87958-0.38398 0.875-0.868v-5.1945c0.005-0.484-0.391-0.8765-0.875-0.868zm2.1245 0.99h1v2.9665h-1zm0 3.9575h1v0.991h-1z" class="warning" overflow="visible" fill="#f60"/>
</svg>
