<?xml version="1.0" encoding="UTF-8" standalone="no"?>
<svg xmlns="http://www.w3.org/2000/svg" version="1.1" viewBox="0 0 16 16" width="32" height="32">
 <path style="text-decoration-line:none;text-transform:none;text-indent:0" font-family="Sans" d="m6.5 0c-3.578 0-6.5 2.922-6.5 6.5s2.922 6.5 6.5 6.5c0.17 0 0.333-0.018 0.5-0.031v-2.031c-0.167 0.018-0.327 0.062-0.5 0.062a4.485 4.485 0 0 1 -4.5 -4.5c0-2.497 2.003-4.5 4.5-4.5s4.5 2.003 4.5 4.5c0 0.173-0.044 0.333-0.063 0.5h2.032c0.013-0.167 0.031-0.33 0.031-0.5 0-3.578-2.922-6.5-6.5-6.5z" overflow="visible" font-weight="400" fill="#f1f2f2"/>
 <path style="text-decoration-line:none;text-transform:none;text-indent:0" font-family="Sans" d="m6.406 3a0.5 0.5 0 0 0 -0.406 0.5v2.5h-1.5a0.5 0.5 0 1 0 0 1h2a0.5 0.5 0 0 0 0.5 -0.5v-3a0.5 0.5 0 0 0 -0.594 -0.5z" overflow="visible" font-weight="400" fill="#f1f2f2"/>
 <rect ry="1" height="9" width="9" y="7" x="7" fill="#333"/>
 <path style="color:#f1f2f2" d="m8.8755 8.0615c-0.48317-0.0084-0.87844 0.38276-0.875 0.866v5.1955c-0.0046 0.48402 0.39104 0.87646 0.875 0.868h5.249c0.48396 0.0085 0.87958-0.38398 0.875-0.868v-5.1945c0.0046-0.48402-0.39104-0.87646-0.875-0.868zm2.1245 0.99h1v2.9665h-1zm0 3.9575h1v0.991h-1z" class="warning" overflow="visible" fill="#f60"/>
</svg>
