<?xml version="1.0" encoding="UTF-8" standalone="no"?>
<svg xmlns="http://www.w3.org/2000/svg" version="1.1" viewBox="0 0 16 16" width="32" height="32">
 <defs>
  <clipPath id="a">
   <path stroke-linejoin="round" d="m21 281h14v11h-14z" color="#f1f2f2" stroke="#fff" stroke-linecap="round" overflow="visible" stroke-width="2" fill="none"/>
  </clipPath>
 </defs>
 <g fill="#f1f2f2">
  <path d="m5.5 0.987c1.385 0 2.5 1.115 2.5 2.5v5.013c0 1.385-1.115 2.5-2.5 2.5a2.495 2.495 0 0 1 -2.5 -2.5v-5.013c0-1.385 1.115-2.5 2.5-2.5z" color="#f1f2f2" overflow="visible"/>
  <path style="text-decoration-line:none;text-transform:none;text-indent:0" font-family="Sans" d="m27.969 273.62a4.531 4.531 0 0 0 -4.532 4.531v5.813a4.531 4.531 0 0 0 9.063 0v-5.813a4.531 4.531 0 0 0 -4.531 -4.531zm0 1a3.514 3.514 0 0 1 3.531 3.531v5.813a3.514 3.514 0 0 1 -3.531 3.531 3.514 3.514 0 0 1 -3.532 -3.531v-5.813a3.514 3.514 0 0 1 3.532 -3.531z" clip-path="url(#a)" color="#f1f2f2" transform="matrix(.99397 0 0 1 -22.293 -275.49)" overflow="visible" font-weight="400"/>
  <path d="m2 5.5a0.5 0.5 0 0 1 -0.5 0.5 0.5 0.5 0 0 1 -0.5 -0.5 0.5 0.5 0 0 1 0.5 -0.5 0.5 0.5 0 0 1 0.5 0.5zm8 0a0.5 0.5 0 0 1 -0.5 0.5 0.5 0.5 0 0 1 -0.5 -0.5 0.5 0.5 0 0 1 0.5 -0.5 0.5 0.5 0 0 1 0.5 0.5z" color="#f1f2f2" overflow="visible"/>
  <path style="text-decoration-line:none;text-transform:none;text-indent:0" font-family="Sans" d="m1.906 14a1.001 1.001 0 1 0 0.094 2h7a1 1 0 1 0 0 -2h-7a1 1 0 0 0 -0.094 0z" color="#f1f2f2" overflow="visible" font-weight="400"/>
  <path d="m1 15h9v1h-9z" color="#f1f2f2" overflow="visible"/>
  <path d="m4 12h3v4h-3z" color="#f1f2f2" overflow="visible"/>
  <path opacity=".5" style="text-decoration-line:none;text-transform:none;text-indent:0" font-family="Sans" d="m13 0.992c-1.098 0-2.008 0.91-2.008 2.008 0 1.099 0.91 2.008 2.008 2.008 1.099 0 2.008-0.91 2.008-2.008 0-1.099-0.91-2.008-2.008-2.008zm0 1.016a0.98 0.98 0 0 1 0.992 0.992 0.979 0.979 0 0 1 -0.992 0.992 0.979 0.979 0 0 1 -0.992 -0.992 0.98 0.98 0 0 1 0.992 -0.992zm0 3.984c-1.098 0-2.008 0.91-2.008 2.008 0 1.099 0.91 2.008 2.008 2.008 1.099 0 2.008-0.91 2.008-2.008 0-1.099-0.91-2.008-2.008-2.008zm0 1.016a0.98 0.98 0 0 1 0.992 0.992 0.979 0.979 0 0 1 -0.992 0.992 0.979 0.979 0 0 1 -0.992 -0.992 0.98 0.98 0 0 1 0.992 -0.992z" overflow="visible" font-weight="400"/>
 </g>
 <path style="color:#f1f2f2" d="m11 10a1.0001 1.0001 0 0 0 -1 1v1.4707a1.0001 1.0001 0 0 0 0.29297 0.70703l0.35547 0.35352-0.35547 0.35547a1.0001 1.0001 0 0 0 -0.293 0.707v1.406a1.0001 1.0001 0 0 0 1 1h1.4375a1.0001 1.0001 0 0 0 0.70703 -0.29297l0.355-0.355 0.355 0.355a1.0001 1.0001 0 0 0 0.707 0.293h1.438a1.0001 1.0001 0 0 0 1 -1v-1.406a1.0001 1.0001 0 0 0 -0.303 -0.717l-0.355-0.346 0.355-0.345a1.0001 1.0001 0 0 0 0.303 -0.717v-1.469a1.0001 1.0001 0 0 0 -1 -1h-1.4062a1.0001 1.0001 0 0 0 -0.70703 0.29297l-0.39648 0.39648-0.41797-0.40625a1.0001 1.0001 0 0 0 -0.698 -0.283z" transform="translate(-1,-1)" fill="#333"/>
 <path style="color:#f1f2f2" d="m10 10h1.375l1.125 1.094 1.094-1.094h1.406v1.469l-1.094 1.062 1.094 1.063v1.406h-1.437l-1.063-1.063-1.062 1.063h-1.438v-1.406l1.063-1.063-1.063-1.061z" overflow="visible" fill="#c00"/>
</svg>
