<?xml version="1.0" encoding="UTF-8" standalone="no"?>
<svg xmlns="http://www.w3.org/2000/svg" version="1.1" viewBox="0 0 16 16" width="32" height="32">
 <path opacity=".5" style="text-decoration-color:#000;isolation:auto;mix-blend-mode:normal;text-indent:0;text-decoration-line:none;text-transform:none;text-decoration-style:solid" font-family="sans-serif" d="m6 0v4.586l-1.293-1.293c-0.238-0.247-0.592-0.287-0.922-0.287h-0.76v0.701c0 0.366 0 0.743 0.268 1l2.707 2.707v1.172l-2.707 2.707c-0.238 0.229-0.293 0.56-0.293 0.887v0.814h0.793c0.338 0 0.678-0.042 0.914-0.287l1.293-1.293v4.586h0.994a0.998 0.998 0 0 0 0.713 -0.293l2.293-2.293v-3.414h1.414l-2-2 2.293-2.293a1 1 0 0 0 0 -1.414l-4-4a1 1 0 0 0 -0.713 -0.293zm2 3.414l1.586 1.586-1.586 1.586zm0 6l1.586 1.586-1.586 1.586z" white-space="normal" overflow="visible" font-weight="400" fill="#f1f2f2"/>
 <path style="color:#f1f2f2" d="m11 10a1.0001 1.0001 0 0 0 -1 1v1.4707a1.0001 1.0001 0 0 0 0.29297 0.70703l0.35547 0.35352-0.35547 0.35547a1.0001 1.0001 0 0 0 -0.293 0.707v1.406a1.0001 1.0001 0 0 0 1 1h1.4375a1.0001 1.0001 0 0 0 0.70703 -0.29297l0.355-0.355 0.355 0.355a1.0001 1.0001 0 0 0 0.707 0.293h1.438a1.0001 1.0001 0 0 0 1 -1v-1.406a1.0001 1.0001 0 0 0 -0.303 -0.717l-0.355-0.346 0.355-0.345a1.0001 1.0001 0 0 0 0.303 -0.717v-1.469a1.0001 1.0001 0 0 0 -1 -1h-1.4062a1.0001 1.0001 0 0 0 -0.70703 0.29297l-0.39648 0.39648-0.41797-0.40625a1.0001 1.0001 0 0 0 -0.698 -0.283z" transform="translate(-1,-1)" fill="#333"/>
 <path style="color:#f1f2f2" d="m10 10h1.375l1.125 1.094 1.094-1.094h1.406v1.469l-1.094 1.062 1.094 1.063v1.406h-1.437l-1.063-1.062-1.062 1.062h-1.438v-1.406l1.063-1.063-1.063-1.061z" overflow="visible" fill="#c00"/>
</svg>
