<?xml version="1.0" encoding="UTF-8" standalone="no"?>
<svg id="svg6" xmlns="http://www.w3.org/2000/svg" version="1.1" viewBox="0 0 16 16" width="32" height="32"><path id="path2" style="fill:#f1f2f2;text-decoration-line:none;text-transform:none;text-indent:0" d="m3.4688 1a2.468 2.468 0 0 0 -2.4708 2.4688l0.00005 9.0622a2.468 2.468 0 0 0 2.4726 2.469h3.5294v-1h-3.5293a1.443 1.443 0 0 1 -1.4707 -1.469v-9.0603c0-0.833 0.6368-1.4707 1.4688-1.4707h9.0602c0.687 0 1.235 0.4376 1.409 1.0566l-4.0318 3.9434h5.0958v-3.5293a2.468 2.468 0 0 0 -2.475 -2.4707h-9.0563-0.0019zm3.0937 5.4375l-2.125 2.125 2.5625 2.5625v-3.625c0-0.1711 0.0904-0.3142 0.2207-0.4043l-0.6582-0.6582z"/><path id="path890" style="color:#f1f2f2;fill:#ff6600" d="m8.875 8.062a0.86 0.86 0 0 0 -0.875 0.866v6.195a0.86 0.86 0 0 0 0.875 0.868h6.25a0.86 0.86 0 0 0 0.875 -0.868v-6.194a0.86 0.86 0 0 0 -0.875 -0.868zm2.125 0.99h2v3.966h-2zm0 4.957h2v0.991h-2z" class="warning" overflow="visible"/></svg>
