<?xml version="1.0" encoding="UTF-8" standalone="no"?>
<svg id="svg4" xmlns="http://www.w3.org/2000/svg" viewBox="0 0 16 16" width="32" height="32" version="1.1"><path id="path4798" style="fill:#f1f2f2;text-decoration-line:none;text-transform:none;text-indent:0" d="m1.8125 1c-0.1139 0.0226-0.2229 0.0649-0.3223 0.125-0.0043 0.0026-0.00947 0.00316-0.013672 0.00586-0.0958 0.0588-0.18095 0.1335-0.25195 0.2207-0.0708 0.0877-0.12626 0.18677-0.16406 0.29297-0.0014 0.0041-0.00251 0.00772-0.00391 0.011719-0.0388 0.1104-0.058 0.2268-0.0566 0.3438v13c-0.00016 0.133 0.026425 0.26567 0.078125 0.38867 0.05 0.118 0.12229 0.22541 0.21289 0.31641 0.0013 0.001 0.00261 0.0029 0.00391 0.0039 0.089 0.088 0.19369 0.15803 0.30859 0.20703 0.0055 0.002 0.010225 0.0058 0.015625 0.0078 0.1208 0.05 0.2502 0.076 0.3809 0.076h11c0.133 0 0.26567-0.02613 0.38867-0.07813 0.118-0.05 0.22541-0.12189 0.31641-0.21289l0.0039-0.0039c0.088-0.089 0.15803-0.19359 0.20703-0.30859 0.002-0.005 0.0058-0.01062 0.0078-0.01563 0.05-0.121 0.076-0.25 0.076-0.381v-8h-1v7.4004c0 0.333-0.267 0.6-0.6 0.6h-9.8004c-0.3324 0-0.5996-0.267-0.5996-0.6v-6.8004c0-0.0353 0.0137-0.066 0.0195-0.0996-0.0058-0.0336-0.0195-0.0643-0.0195-0.0996v-4.8008c0-0.3324 0.2672-0.5996 0.5996-0.5996h6.4004v-1h-7c-0.0312-0.00147-0.0624-0.00147-0.0938 0-0.0312-0.00147-0.0625-0.00147-0.0937 0z"/><path id="path1429" style="fill:#669900" d="m12 0.004v1.996h-2v1.997h2v1.997h2v-1.997h2v-1.997h-2v-1.996z"/></svg>
