<?xml version="1.0" encoding="UTF-8" standalone="no"?>
<svg xmlns="http://www.w3.org/2000/svg" viewBox="0 0 16 16" width="32" height="32" version="1.1">
 <path opacity=".5" fill="#f1f2f2" d="m0.81445 3c-0.451 0-0.81445 0.3824-0.81445 0.8594v8.2816c0 0.477 0.36345 0.859 0.81445 0.859h9.1856v-1h-6v-2h12v-6.1406c0-0.477-0.363-0.8594-0.814-0.8594h-14.372zm0.18555 1h2v2h-2v-2zm3 0h2v2h-2v-2zm3 0h2v2h-2v-2zm3 0h2v2h-2v-2zm3 0h2v2h-2v-2zm-12 3h2v2h-2v-2zm3 0h2v2h-2v-2zm3 0h2v2h-2v-2zm3 0h2v2h-2v-2zm3 0h2v2h-2v-2zm-12 3h2v2h-2v-2z"/>
 <path style="color:#f1f2f2" d="m11 10a1.0001 1.0001 0 0 0 -1 1v1.4707a1.0001 1.0001 0 0 0 0.29297 0.70703l0.35547 0.35352-0.35547 0.35547a1.0001 1.0001 0 0 0 -0.293 0.707v1.406a1.0001 1.0001 0 0 0 1 1h1.4375a1.0001 1.0001 0 0 0 0.70703 -0.29297l0.355-0.355 0.355 0.355a1.0001 1.0001 0 0 0 0.707 0.293h1.438a1.0001 1.0001 0 0 0 1 -1v-1.406a1.0001 1.0001 0 0 0 -0.303 -0.717l-0.355-0.346 0.355-0.345a1.0001 1.0001 0 0 0 0.303 -0.717v-1.469a1.0001 1.0001 0 0 0 -1 -1h-1.4062a1.0001 1.0001 0 0 0 -0.70703 0.29297l-0.39648 0.39648-0.41797-0.40625a1.0001 1.0001 0 0 0 -0.698 -0.283z" transform="translate(-1,-1)" fill="#333"/>
 <path style="color:#f1f2f2" fill="#c00" overflow="visible" d="m10 10h1.375l1.125 1.094 1.094-1.094h1.406v1.469l-1.094 1.062 1.094 1.063v1.406h-1.437l-1.063-1.062-1.062 1.062h-1.438v-1.406l1.063-1.063-1.063-1.061z"/>
</svg>
