<?xml version="1.0" encoding="UTF-8" standalone="no"?>
<svg xmlns="http://www.w3.org/2000/svg" viewBox="0 0 16 16" width="32" height="32" version="1.1">
 <path style="color:#000000;text-transform:none;text-indent:0" d="m4.0801-0.0019531c-0.0878-0.0007584-0.1766 0.0046463-0.2637 0.015625-0.9635 0.12173-1.7546 1.0529-1.7168 2.0234v11.949c-0.014666 1.037 0.92574 1.9902 1.9629 1.9902 1.0371 0 1.9776-0.95319 1.9629-1.9902v-3.892l6.4376-3.2327a0.96313 0.96313 0 0 0 0.531 -0.8613v-1a0.96313 0.96313 0 0 0 -0.623 -0.9004l-6.3456-2.3906v0.3281c0.0408-1.046-0.8967-2.0284-1.9434-2.0391z" fill="#333"/>
 <g fill="#c00" transform="translate(-31.976 -220.36)">
  <path d="m3.9375 0.96875a1.0001 1.0001 0 0 0 -0.875 1.0312v12a1.0001 1.0001 0 1 0 2 0v-4.5l6.9685-3.5v-1l-6.9685-2.625v-0.375a1.0001 1.0001 0 0 0 -1.125 -1.0312z" style="block-progression:tb;color:#000000;text-transform:none;text-indent:0" fill="#c00" transform="translate(31.976 220.36)"/>
 </g>
</svg>
