<?xml version="1.0" encoding="UTF-8" standalone="no"?>
<svg xmlns="http://www.w3.org/2000/svg" version="1.1" viewBox="0 0 16 16" width="32" height="32">
 <g fill="#f1f2f2">
  <path d="m2 2c-0.554 0-1 0.446-1 1v11c0 0.554 0.446 1 1 1h7.9902v-0.986h-0.9902c-0.053-0.001-0.1059-0.005-0.1582-0.014h-5.8418c-0.554 0-1-0.446-1-1v-7c0-0.554 0.446-1 1-1h10c0.554 0 1 0.446 1 1v2.8789c0.0061 0.043362 0.0094 0.087074 0.0098 0.13086v0.9863h0.99v-4.9961c0-0.554-0.446-1.0039-1-1h-3.77l-2.23-2z"/>
  <path d="m11 0a1.0099 1.0099 0 0 0 -1.0098 1.0098v0.9863h-0.9902a1.0099 1.0099 0 0 0 -1.0098 1.0098v1.998a1.0099 1.0099 0 0 0 1.0098 1.0098h0.9902v0.9863a1.0099 1.0099 0 0 0 1.0098 1.0098h2a1.0099 1.0099 0 0 0 1.01 -1.0098v-0.9863h0.99a1.0099 1.0099 0 0 0 1.01 -1.0098v-1.998a1.0099 1.0099 0 0 0 -1.01 -1.0098h-0.99v-0.9863a1.0099 1.0099 0 0 0 -1.01 -1.0098z" transform="translate(0,8)" fill="#333"/>
  <path fill="#690" d="m11 9.01v1.996h-2v1.997h2v1.997h2v-1.997h2v-1.997h-2v-1.996z"/>
 </g>
</svg>
