<?xml version="1.0" encoding="UTF-8" standalone="no"?>
<svg xmlns="http://www.w3.org/2000/svg" version="1.1" viewBox="0 0 16 16" width="32" height="32">
 <g color="#f1f2f2" fill="#c00">
  <path style="text-decoration-line:none;text-transform:none;text-indent:0" d="m5.6875 1a1.0001 1.0001 0 0 0 -0.6699 0.2559l-0.3125 0.28125a1.0001 1.0001 0 0 0 -0.033203 0.033203l-3.0957 3.0625a1.0001 1.0001 0 0 0 -0.042969 0.044922l-0.2793 0.3125a1.0001 1.0001 0 0 0 -0.2539 0.6659v4.625a1.0001 1.0001 0 0 0 0.25586 0.66992l0.28125 0.3125a1.0001 1.0001 0 0 0 0.033203 0.0332l3.0938 3.125a1.0001 1.0001 0 0 0 0.041016 0.04102l0.3125 0.28125a1.0001 1.0001 0 0 0 0.6698 0.256h4.625a1.0001 1.0001 0 0 0 0.66992 -0.25586l0.3125-0.28125a1.0001 1.0001 0 0 0 0.04102 -0.04102l3.0938-3.125a1.0001 1.0001 0 0 0 0.03516 -0.03711l0.2793-0.3125a1.0001 1.0001 0 0 0 0.25391 -0.66602v-4.625a1.0001 1.0001 0 0 0 -0.253 -0.6668l-0.2793-0.3125a1.0001 1.0001 0 0 0 -0.04297 -0.044922l-3.0938-3.0625a1.0001 1.0001 0 0 0 -0.0332 -0.033203l-0.3125-0.28125a1.0001 1.0001 0 0 0 -0.67 -0.2558h-4.2182zm1.2539 4h2.1445l1.9141 1.9141v2.1406l-1.9453 1.9453h-2.1113l-1.9434-1.9453v-2.1367z" fill="#333"/>
  <path style="text-decoration-line:none;text-transform:none;text-indent:0" font-family="Sans" d="m5.687 2l-0.312 0.281-3.095 3.063-0.28 0.312v4.625l0.281 0.313 3.094 3.125 0.312 0.281h4.625l0.313-0.281 3.094-3.125 0.28-0.313v-4.625l-0.28-0.312-3.094-3.063-0.313-0.281h-4.218zm0.844 2h2.969l2.5 2.5v2.969l-2.531 2.531h-2.939l-2.53-2.531v-2.969z" overflow="visible" font-weight="400"/>
  <path overflow="visible" d="m6.856 5l-1.856 1.84v2.288l1.856 1.872h2.29l1.854-1.872v-2.288l-1.855-1.84z"/>
 </g>
</svg>
