<?xml version="1.0" encoding="UTF-8" standalone="no"?>
<svg xmlns="http://www.w3.org/2000/svg" version="1.1" viewBox="0 0 16 16" width="32" height="32">
 <g color="#f1f2f2" opacity=".5" fill="#f1f2f2">
  <path style="text-decoration-line:none;text-transform:none;text-indent:0" font-family="Sans" d="m3.031 1a3.038 3.038 0 0 0 -3.03 3.031v7.938a3.038 3.038 0 0 0 3.029 3.031h8.938a3.038 3.038 0 0 0 3.032 -3.031v-7.939a3.038 3.038 0 0 0 -3.03 -3.03zm0 2h8.938c0.596 0 1.031 0.435 1.031 1.031v5.969h-11v-5.969c0-0.596 0.436-1.031 1.031-1.031zm-1.03 8h5v2h-3.971c-0.595 0-1.03-0.435-1.03-1.031zm6 0h5v0.969c0 0.596-0.436 1.031-1.032 1.031h-3.969z" overflow="visible" font-weight="400"/>
  <path opacity=".35" d="m2 3h11v7h-11z" overflow="visible"/>
 </g>
</svg>
