<?xml version="1.0" encoding="UTF-8" standalone="no"?>
<svg xmlns="http://www.w3.org/2000/svg" viewBox="0 0 16 16" width="32" height="32" version="1.1">
 <g style="color:#000000" font-weight="400" fill="#f1f2f2" transform="translate(-3)">
  <path style="text-decoration-line:none;text-transform:none;text-indent:0" overflow="visible" d="m8 0c-2.75 0-5 2.25-5 5 0 1.586 0.845 2.903 2 3.813v3.187h6v-3.188c1.155-0.909 2-2.226 2-3.812 0-2.75-2.25-5-5-5zm0 2c1.669 0 3 1.331 3 3 0 1.116-0.595 2.038-1.5 2.563l-0.5 0.312v2.125h-2v-2.125l-0.5-0.313c-0.905-0.524-1.5-1.445-1.5-2.562 0-1.669 1.331-3 3-3zm-2 13v1h4v-1zm-1-2v1h6v-1z"/>
  <path style="text-decoration-line:none;text-transform:none;text-indent:0" overflow="visible" d="m7 5v1h2v-1z"/>
 </g>
 <path opacity=".5" style="color:#000000;text-decoration-line:none;text-transform:none;text-indent:0" d="m13 0.992c-1.098 0-2.008 0.91-2.008 2.008 0 1.099 0.91 2.008 2.008 2.008 1.099 0 2.008-0.91 2.008-2.008 0-1.099-0.91-2.008-2.008-2.008zm0 1.016a0.98 0.98 0 0 1 0.992 0.992 0.979 0.979 0 0 1 -0.992 0.992 0.979 0.979 0 0 1 -0.992 -0.992 0.98 0.98 0 0 1 0.992 -0.992zm0 3.984c-1.098 0-2.008 0.91-2.008 2.008 0 1.099 0.91 2.008 2.008 2.008 1.099 0 2.008-0.91 2.008-2.008 0-1.099-0.91-2.008-2.008-2.008zm0 1.016a0.98 0.98 0 0 1 0.992 0.992 0.979 0.979 0 0 1 -0.992 0.992 0.979 0.979 0 0 1 -0.992 -0.992 0.98 0.98 0 0 1 0.992 -0.992z" overflow="visible" font-weight="400" fill="#f1f2f2"/>
 <path style="color:#f1f2f2" d="m11 10a1.0001 1.0001 0 0 0 -1 1v1.4707a1.0001 1.0001 0 0 0 0.29297 0.70703l0.35547 0.35352-0.35547 0.35547a1.0001 1.0001 0 0 0 -0.293 0.707v1.406a1.0001 1.0001 0 0 0 1 1h1.4375a1.0001 1.0001 0 0 0 0.70703 -0.29297l0.355-0.355 0.355 0.355a1.0001 1.0001 0 0 0 0.707 0.293h1.438a1.0001 1.0001 0 0 0 1 -1v-1.406a1.0001 1.0001 0 0 0 -0.303 -0.717l-0.355-0.346 0.355-0.345a1.0001 1.0001 0 0 0 0.303 -0.717v-1.469a1.0001 1.0001 0 0 0 -1 -1h-1.4062a1.0001 1.0001 0 0 0 -0.70703 0.29297l-0.39648 0.39648-0.41797-0.40625a1.0001 1.0001 0 0 0 -0.698 -0.283z" transform="translate(-1,-1)" fill="#333"/>
 <path style="color:#f1f2f2" fill="#c00" overflow="visible" d="m10 10h1.375l1.125 1.094 1.094-1.094h1.406v1.469l-1.094 1.062 1.094 1.063v1.406h-1.437l-1.063-1.063-1.062 1.063h-1.438v-1.406l1.063-1.063-1.063-1.061z"/>
</svg>
