<?xml version="1.0" encoding="UTF-8" standalone="no"?>
<svg xmlns="http://www.w3.org/2000/svg" version="1.1" viewBox="0 0 16 16" width="32" height="32">
 <path opacity=".5" d="m5 1c-2.216 0-4 1.784-4 4v6c0 2.216 1.784 4 4 4h3.436c-3.592-3.185-4.913-7.35-4.913-7.35a0.5 0.5 0 0 1 0.127 -0.507s3.978-3.872 9.288-5.645a3.994 3.994 0 0 0 -1.938 -0.498h-6zm9.801 2.752c-4.378 0.922-6.429 3.75-6.725 4.188 0.087 0.307 0.64 2.089 1.924 3.908v-1.848h0.223c-0.513-1.068-0.711-1.89-0.711-1.89a0.5 0.5 0 0 1 0.09 -0.413s1.884-2.484 5.332-3.41a3.983 3.983 0 0 0 -0.133 -0.535zm0.199 3.398a3.298 3.298 0 0 0 -1.438 1c0.031 0.173 0.202 0.974 0.6 1.85h0.838v-2.85z" fill="#f1f2f2"/>
 <path style="color:#f1f2f2" d="m11 10a1.0001 1.0001 0 0 0 -1 1v1.4707a1.0001 1.0001 0 0 0 0.29297 0.70703l0.35547 0.35352-0.35547 0.35547a1.0001 1.0001 0 0 0 -0.293 0.707v1.406a1.0001 1.0001 0 0 0 1 1h1.4375a1.0001 1.0001 0 0 0 0.70703 -0.29297l0.355-0.355 0.355 0.355a1.0001 1.0001 0 0 0 0.707 0.293h1.438a1.0001 1.0001 0 0 0 1 -1v-1.406a1.0001 1.0001 0 0 0 -0.303 -0.717l-0.355-0.346 0.355-0.345a1.0001 1.0001 0 0 0 0.303 -0.717v-1.469a1.0001 1.0001 0 0 0 -1 -1h-1.4062a1.0001 1.0001 0 0 0 -0.70703 0.29297l-0.39648 0.39648-0.41797-0.40625a1.0001 1.0001 0 0 0 -0.698 -0.283z" transform="translate(-1,-1)" fill="#333"/>
 <path style="color:#f1f2f2" d="m10 10h1.375l1.125 1.094 1.094-1.094h1.406v1.469l-1.094 1.062 1.094 1.063v1.406h-1.438l-1.062-1.063-1.063 1.063h-1.437v-1.406l1.063-1.063-1.063-1.061z" overflow="visible" fill="#c00"/>
</svg>
