<?xml version="1.0" encoding="UTF-8" standalone="no"?>
<svg xmlns="http://www.w3.org/2000/svg" version="1.1" viewBox="0 0 16 16" width="32" height="32">
 <path style="color:#000000;text-decoration-line:none;text-transform:none;text-indent:0" d="m3.438 1c-1.373 0-2.5 1.101-2.5 2.469v9.062c0 1.369 1.126 2.469 2.5 2.469h4.562v-1h-4.563c-0.843 0-1.5-0.64-1.5-1.469v-9.061c0-0.828 0.657-1.469 1.5-1.469h9.126c0.843 0 1.5 0.64 1.5 1.469v7.83h0.937c0.022 0 0.04 0.01 0.063 0.012v-7.843c0-1.369-1.129-2.469-2.5-2.469z" overflow="visible" font-weight="400" fill="#f1f2f2"/>
 <path style="color:#f1f2f2" d="m11.5 8c-1.33 0-2.5 1.0302-2.5 2.385v0.88476c-0.54 0.209-1 0.626-1 1.261v2.469a1.0001 1.0001 0 0 0 1 1h6a1.0001 1.0001 0 0 0 1 -1v-2.4688c0-0.63555-0.46001-1.0518-1-1.2617v-0.884c0-1.355-1.171-2.385-2.5-2.385z" fill="#333"/>
 <path d="m11.5 9c-0.822 0-1.5 0.626-1.5 1.385v1.685h-0.5c-0.277 0-0.5 0.205-0.5 0.461v2.469h6v-2.469c0-0.256-0.223-0.461-0.5-0.461h-0.5v-1.685c0-0.76-0.678-1.385-1.5-1.385zm0 0.923h1c0.286 0 0.5 0.198 0.5 0.462v1.685h-2v-1.685c0-0.264 0.214-0.462 0.5-0.462z" color="#f1f2f2" overflow="visible" fill="#f60"/>
</svg>
