<?xml version="1.0" encoding="UTF-8" standalone="no"?>
<svg xmlns="http://www.w3.org/2000/svg" height="16" width="16" version="1.1" viewBox="-3 -3 16 16">
 <path d="m5-2a7 7 0 0 0 -7 7 7 7 0 0 0 7 7 7 7 0 0 0 7 -7 7 7 0 0 0 -7 -7zm0 0.998c1.571 0 3.133 0.6469 4.244 1.7579 1.111 1.1109 1.758 2.673 1.758 4.2441 0 1.571-0.647 3.133-1.758 4.244s-2.673 1.758-4.244 1.758c-1.5711 0-3.1332-0.647-4.2441-1.758-1.111-1.111-1.7579-2.673-1.7579-4.244 0-1.5711 0.6469-3.1332 1.7579-4.2441 1.1109-1.111 2.673-1.7579 4.2441-1.7579z" fill="#f1f2f2"/>
 <path opacity=".5" d="m1.5156 0.123c-0.2693 0.1909-0.5262 0.3993-0.7597 0.6329-1.111 1.1109-1.7579 2.673-1.7579 4.2441h6.002zm3.4844 4.877h6.002c0-1.5711-0.647-3.1332-1.758-4.2441-0.233-0.2336-0.49-0.442-0.76-0.6329zl-3.4844 4.877c1.0118 0.717 2.2435 1.125 3.4844 1.125 1.241 0 2.473-0.408 3.484-1.125z" fill="#f1f2f2"/>
</svg>
