<?xml version="1.0" encoding="UTF-8" standalone="no"?>
<svg
   xmlns:dc="http://purl.org/dc/elements/1.1/"
   xmlns:cc="http://creativecommons.org/ns#"
   xmlns:rdf="http://www.w3.org/1999/02/22-rdf-syntax-ns#"
   xmlns:svg="http://www.w3.org/2000/svg"
   xmlns="http://www.w3.org/2000/svg"
   id="svg13"
   viewBox="0 0 16 16" width="32" height="32"
   version="1.1">
  <metadata
     id="metadata17">
    <rdf:RDF>
      <cc:Work
         rdf:about="">
        <dc:format>image/svg+xml</dc:format>
        <dc:type
           rdf:resource="http://purl.org/dc/dcmitype/StillImage" />
        <dc:title></dc:title>
      </cc:Work>
    </rdf:RDF>
  </metadata>
  <defs
     id="defs7">
    <linearGradient
       x1="2"
       y1="8"
       x2="14"
       gradientUnits="userSpaceOnUse"
       y2="8"
       id="linearGradient872">
      <stop
         id="stop2"
         offset="0"
         stop-color="#f1f2f2" />
      <stop
         style="stop-color:#f1f2f2;stop-opacity:0"
         stop-color="#f1f2f2"
         offset="0.5"
         id="stop4513" />
      <stop
         style="stop-opacity:1"
         id="stop4"
         offset="1"
         stop-opacity="0"
         stop-color="#f1f2f2" />
    </linearGradient>
  </defs>
  <path
     id="path9"
     fill="#f1f2f2"
     d="m2.5 1c-0.831 0-1.5 0.669-1.5 1.5v11c0 0.831 0.669 1.5 1.5 1.5h11c0.831 0 1.5-0.669 1.5-1.5v-11c0-0.831-0.669-1.5-1.5-1.5h-11zm0 1h11c0.294 0 0.5 0.2057 0.5 0.5v11c0 0.294-0.206 0.5-0.5 0.5h-11c-0.2943 0-0.5-0.206-0.5-0.5v-11c0-0.2943 0.2057-0.5 0.5-0.5z" />
  <path
     style="fill:url(#linearGradient872)"
     id="path11"
     fill="url(#linearGradient872)"
     d="m2.5 2c-0.2943 0-0.5 0.2057-0.5 0.5v11c0 0.294 0.2057 0.5 0.5 0.5h11c0.294 0 0.5-0.206 0.5-0.5v-11c0-0.2943-0.206-0.5-0.5-0.5z"
     opacity=".5" />
</svg>
