<?xml version="1.0" encoding="UTF-8" standalone="no"?>
<svg xmlns="http://www.w3.org/2000/svg" version="1.1" viewBox="0 0 16 16" width="32" height="32">
 <g opacity=".5" fill="#f1f2f2">
  <path style="" d="m1.332 1c-0.1845 0-0.332 0.1475-0.332 0.332v13.336c0 0.184 0.1475 0.332 0.332 0.332h13.336c0.184 0 0.332-0.148 0.332-0.332v-13.336c0-0.1845-0.148-0.332-0.332-0.332h-1.668v1.668c0 0.1845-0.148 0.332-0.332 0.332h-1.336c-0.184 0-0.332-0.1475-0.332-0.332v-1.668h-6v1.668c0 0.1845-0.1475 0.332-0.332 0.332h-1.336c-0.1845 0-0.332-0.1475-0.332-0.332v-1.668h-1.668zm1 3h11.336c0.184 0 0.332 0.1475 0.332 0.332v9.336c0 0.184-0.148 0.332-0.332 0.332h-11.336c-0.1845 0-0.332-0.148-0.332-0.332v-9.336c0-0.1845 0.1475-0.332 0.332-0.332z"/>
  <path style="" stroke-width=".5" d="m7 11h5v1h-5z"/>
  <circle style="" stroke-width=".86603" cy="6.5" cx="4.5" r="1.5"/>
  <circle r="1.5" style="" cy="11.5" cx="4.5" stroke-width=".86603"/>
  <path style="" stroke-width=".5" d="m7 6h5v1h-5z"/>
 </g>
 <path style="color:#f1f2f2" fill="#333" d="m10 9a1.0001 1.0001 0 0 0 -1 1v1.4707a1.0001 1.0001 0 0 0 0.29297 0.70703l0.35547 0.35352-0.35547 0.35547a1.0001 1.0001 0 0 0 -0.293 0.707v1.406a1.0001 1.0001 0 0 0 1 1h1.4375a1.0001 1.0001 0 0 0 0.70703 -0.29297l0.355-0.355 0.355 0.355a1.0001 1.0001 0 0 0 0.707 0.293h1.438a1.0001 1.0001 0 0 0 1 -1v-1.406a1.0001 1.0001 0 0 0 -0.303 -0.717l-0.355-0.346 0.355-0.345a1.0001 1.0001 0 0 0 0.303 -0.717v-1.469a1.0001 1.0001 0 0 0 -1 -1h-1.407a1.0001 1.0001 0 0 0 -0.707 0.2927l-0.396 0.3965-0.418-0.4062a1.0001 1.0001 0 0 0 -0.698 -0.283z"/>
 <path style="color:#f1f2f2" d="m10 10h1.375l1.125 1.094 1.094-1.094h1.406v1.469l-1.094 1.062 1.094 1.063v1.406h-1.438l-1.062-1.063-1.063 1.063h-1.437v-1.406l1.063-1.063-1.063-1.061z" overflow="visible" fill="#c00"/>
</svg>
