<?xml version="1.0" encoding="UTF-8" standalone="no"?>
<svg xmlns="http://www.w3.org/2000/svg" xmlns:osb="http://www.openswatchbook.org/uri/2009/osb" height="17.067" width="17.067" version="1.1" xmlns:xlink="http://www.w3.org/1999/xlink" viewBox="0 0 15.999999 16">
 <g id="tools" transform="translate(66.423 -346.23)">
  <g id="gimp-tool-smudge" transform="translate(-207.42 129.23)">
   <g fill="#bebebe" transform="matrix(.13819 0 0 -.14730 68.005 246.72)">
    <path d="m591.03 194.97c-15.24-0.00001-27.835-5.5145-38.1-14.612-6.0536-4.8879-5.9161-12.729 0-14.612-2.5548-2.3634-3.2288-5.9359-1.479-9.4527l1.479-2.1689c1.9433-2.0041 5.0006-2.7616 5.0006-2.7616-2.5548-2.8478-3.2674-8.2076-0.3066-10.668l1.1906-1.1415c2.9607-2.46 7.4464-2.1628 10.001 0.68492 0 0-0.50323-0.5819 0 0l-24.458-27.231c-8.3907-7.503 5.6272-19.245 14.049-10.274l34.052 36.072 6.1912 6.3925c11.91 15.516 27.427-7.5723 10.33-13.433 0 0-7.0792-0.51711-14.526-0.22831-5.8869 0.22831-10.428-15.126 9.2868-13.111 29.718-0.40817 33.008 25.402 33.008 39.786-0.00004 29.451-22.86 36.757-45.72 36.757z" fill="#f1f2f2"/>
   </g>
   <rect transform="translate(241 217)" height="16" width="16" y="0" x="-100" fill="none"/>
  </g>
 </g>
</svg>
