<?xml version="1.0" encoding="UTF-8" standalone="no"?>
<svg xmlns="http://www.w3.org/2000/svg" version="1.1" viewBox="0 0 16 16" width="32" height="32">
 <path style="font-variant-ligatures:normal;shape-padding:0;font-variant-alternates:normal;text-decoration-color:#000;font-variant-position:normal;font-variant-numeric:normal;mix-blend-mode:normal;text-indent:0;text-orientation:mixed;text-decoration-line:none;font-feature-settings:normal;font-variant-caps:normal;isolation:auto;text-transform:none;text-decoration-style:solid" d="m1.143 0a1.14 1.14 0 0 0 -1.143 1.143v13.714c0 0.633 0.51 1.143 1.143 1.143h13.714a1.14 1.14 0 0 0 1.143 -1.143v-13.714a1.14 1.14 0 0 0 -1.143 -1.143h-13.714zm1.714 2h10.286c0.474 0 0.857 0.383 0.857 0.857v4.694h-0.559l-1.785-3.215a0.75 0.75 0 0 0 -1.379 0.164l-0.509 1.836-1.111-2a0.75 0.75 0 0 0 -0.684 -0.385 0.75 0.75 0 0 0 -0.69 0.531l-1.453 4.801-1.16-2.318a0.75 0.75 0 0 0 -0.67 -0.415h-2v-3.693c0-0.474 0.383-0.857 0.858-0.857zm5.346 4.611l1.14 2.053a0.75 0.75 0 0 0 1.38 -0.164l0.509-1.836 1.112 2a0.75 0.75 0 0 0 0.656 0.387h1v4.092a0.856 0.856 0 0 1 -0.857 0.857h-10.286a0.856 0.856 0 0 1 -0.857 -0.857v-5.092h1.537l1.793 3.584a0.75 0.75 0 0 0 1.387 -0.117l1.486-4.907z" white-space="normal" fill="#f1f2f2"/>
</svg>
