<?xml version="1.0" encoding="UTF-8" standalone="no"?>
<svg xmlns="http://www.w3.org/2000/svg" version="1.1" viewBox="0 0 16 16" width="32" height="32">
 <path opacity=".9314" d="m3.5 1c-1.3819-0.00277-2.5028 1.1181-2.5 2.5v5.5117c0.0195-0.0023 0.0365-0.0117 0.0566-0.0117h13.943v-5.5c0-1.385-1.115-2.5-2.5-2.5h-9zm-2.5 8.9883v1.5117c0 1.385 1.115 2.5 2.5 2.5h9c1.385 0 2.5-1.115 2.5-2.5v-1.5h-13.943c-0.0205 0-0.0375-0.0094-0.057-0.0117z" fill="#f1f2f2"/>
 <rect ry="1" height="9" width="9" y="7" x="7" fill="#333"/>
 <path style="color:#f1f2f2" d="m8.8755 8.0615c-0.4832-0.0084-0.8784 0.3828-0.875 0.866v5.1955c-0.0046 0.48402 0.39104 0.87646 0.875 0.868h5.249c0.48396 0.0085 0.87958-0.38398 0.875-0.868v-5.1945c0.005-0.484-0.391-0.8765-0.875-0.868zm2.1245 0.99h1v2.9665h-1zm0 3.9575h1v0.991h-1z" class="warning" overflow="visible" fill="#f60"/>
</svg>
