<?xml version="1.0" encoding="UTF-8" standalone="no"?>
<svg xmlns:rdf="http://www.w3.org/1999/02/22-rdf-syntax-ns#" xmlns="http://www.w3.org/2000/svg" version="1.1" xmlns:cc="http://creativecommons.org/ns#" xmlns:dc="http://purl.org/dc/elements/1.1/" viewBox="-4 -4 24 24">
 <metadata>
  <rdf:RDF>
   <cc:Work rdf:about="">
    <dc:format>image/svg+xml</dc:format>
    <dc:type rdf:resource="http://purl.org/dc/dcmitype/StillImage"/>
    <dc:title/>
   </cc:Work>
  </rdf:RDF>
 </metadata>
 <path d="m8 1c-1.6487 0.0012-3.2917 0.6084-4.5449 1.6797-1.1446 0.9785-1.8962 2.3553-2.2246 3.8242-0.6923 0.4577-1.2294 1.1599-1.2305 1.9941a1.0001 1.0001 0 0 0 0 0.002c0.000036134 0.9638 0.70876 1.728 1.5742 2.133 1.0551 2.537 3.6696 4.364 6.4238 4.367a1.0001 1.0001 0 0 0 0.00391 0c1.3548-0.003 2.6701-0.47 3.8031-1.213 0.235 0.072 0.449 0.213 0.695 0.213 1.309 0 2.5-1.191 2.5-2.5a1.0001 1.0001 0 0 0 0 -0.002c-0.001-0.421-0.299-0.749-0.502-1.117 0.281-0.7656 0.499-1.5615 0.502-2.3771a1.0001 1.0001 0 0 0 0 -0.00586c-0.003-1.3547-0.47-2.6704-1.213-3.8027 0.072-0.2353 0.213-0.4493 0.213-0.6953 0-1.309-1.191-2.5-2.5-2.5a1.0001 1.0001 0 0 0 -0.002 0c-0.421 0.0007-0.749 0.2988-1.117 0.502-0.7656-0.2815-1.5615-0.4993-2.3771-0.502a1.0001 1.0001 0 0 0 -0.0039 0zm0 2.998c0.25412 0 0.50328 0.11304 0.75781 0.16602l-0.6836 0.9727c-0.5757 0.1137-1.0486 0.4133-1.4238 0.8653l-2.0156 0.2089c0.1838-0.352 0.2601-0.766 0.5351-1.041 0.7316-0.7315 1.7953-1.1719 2.8301-1.1719zm3.4453 2.4316c0.239 0.5174 0.557 1.0176 0.557 1.5704 0 0.15447-0.07972 0.30563-0.09961 0.46094l-0.91016-0.90625c0.000429-0.017805 0.0078-0.034924 0.0078-0.052734a1.0001 1.0001 0 0 0 0 -0.00586c0-0.1148-0.052-0.2221-0.068-0.3358zm-4.1032 3.0177c0.3727 0.2174 0.6993 0.5332 1.1309 0.539l1.3652 1.3637c-0.5867 0.321-1.1908 0.652-1.8379 0.652-1.0349 0-2.0986-0.44022-2.8301-1.1719-0.2957-0.296-0.4917-0.694-0.6836-1.0878z" fill="#333"/>
 <path opacity=".5" fill="#f1f2f2" d="m8 2a6 6 0 0 0 -5.9219 5.0625 1.5 1.5 0 0 0 -1.0781 1.4375 1.5 1.5 0 0 0 1.3477 1.4922 6 6 0 0 0 5.6523 4.0078 6 6 0 0 0 3.662 -1.256 1.5 1.5 0 0 0 0.838 0.256 1.5 1.5 0 0 0 1.5 -1.5 1.5 1.5 0 0 0 -0.502 -1.117 6 6 0 0 0 0.502 -2.383 6 6 0 0 0 -1.256 -3.6621 1.5 1.5 0 0 0 0.256 -0.8379 1.5 1.5 0 0 0 -1.5 -1.5 1.5 1.5 0 0 0 -1.117 0.502 6 6 0 0 0 -2.383 -0.502zm0 0.998c0.6894 0 1.3725 0.157 2.004 0.4336a1.5 1.5 0 0 0 -0.004 0.0684 1.5 1.5 0 0 0 0.09 0.5098l-1.4084 2.0019a1.5 1.5 0 0 0 -0.1816 -0.0117 1.5 1.5 0 0 0 -1.3965 0.959l-3.6562 0.3789a1.5 1.5 0 0 0 -0.3594 -0.2168c0.1823-0.9971 0.6579-1.9411 1.375-2.6582 0.9258-0.9258 2.2278-1.4649 3.5371-1.4649zm3.924 1.9395c0.676 0.8728 1.078 1.9577 1.078 3.0625 0 0.6894-0.157 1.3725-0.434 2.004a1.5 1.5 0 0 0 -0.068 -0.004 1.5 1.5 0 0 0 -0.414 0.059l-2.1465-2.141a1.5 1.5 0 0 0 0.0605 -0.418 1.5 1.5 0 0 0 -0.1211 -0.584l1.3651-1.9394a1.5 1.5 0 0 0 0.256 0.0234 1.5 1.5 0 0 0 0.424 -0.0625zm-4.59 3.5059a1.5 1.5 0 0 0 1.166 0.5566 1.5 1.5 0 0 0 0.3555 -0.0449l2.1895 2.1839a1.5 1.5 0 0 0 -0.045 0.361 1.5 1.5 0 0 0 0.062 0.424c-0.872 0.676-1.9572 1.078-3.062 1.078-1.3093 0-2.6113-0.539-3.5371-1.465-0.5039-0.504-0.8807-1.124-1.1309-1.7909a1.5 1.5 0 0 0 0.6407 -0.9551l3.3613-0.3476z"/>
</svg>
