<?xml version="1.0" encoding="UTF-8" standalone="no"?>
<svg xmlns="http://www.w3.org/2000/svg" version="1.1" viewBox="-4 -4 24 24">
 <g stroke-width=".24915" transform="translate(8,8)">
  <path style="color:#000000" d="m0.99023 2.0195a0.98063 0.98063 0 0 0 -0.9707 1.0176c0.062669 1.615 0.62633 3.1571 1.7969 4.0723 0.5853 0.4576 1.3701 0.7235 2.1777 0.6172 0.5093-0.0671 0.9772-0.4766 1.4571-0.793l0.8965 0.7988a0.98063 0.98063 0 0 0 1.6328 -0.7402l-0.029297-4a0.98063 0.98063 0 0 0 -0.9805 -0.9727h-3.9707a0.98063 0.98063 0 0 0 -0.9727 0.8711c-0.0218-0.0649-0.0677-0.0991-0.0859-0.1621a0.98063 0.98063 0 0 0 -0.95117 -0.709zm1.6465 2.0312 0.43945 0.47266c-0.0733 0.001-0.1226 0.004-0.2402-0.0938-0.0654-0.0542-0.1262-0.2772-0.1994-0.3788z" display="block" fill="#333"/>
  <path style="color:#000000" d="m1 3c0.1077 2.7745 2.1399 5.2025 4.6179 2.7689l1.3821 1.2311-0.0292-4h-3.9708l1.6155 1.7373c-2.0344 1.9923-3.1787-0.2243-3.6155-1.7373z" display="block" fill="#f1f2f2"/>
 </g>
</svg>
