/* XPM */
static char * titleIB_xpm[] = {
"2 48 3 1",
" 	c None",
".	c #323131",
"+	c #141313",
"..",
"..",
"..",
"..",
"..",
"..",
"..",
"..",
"..",
"..",
"..",
"..",
"..",
"..",
"..",
"..",
"..",
"..",
"..",
"..",
"..",
"..",
"..",
"..",
"..",
"..",
"..",
"..",
"..",
"..",
"..",
"..",
"..",
"..",
"..",
"..",
"..",
"..",
"..",
"..",
"..",
"..",
"..",
"..",
"..",
"..",
"++",
"++"};
