/* XPM */
static char * windows_xpm[] = {
"32 32 25 1",
" 	c None",
".	c #141313",
"+	c #504F4F",
"@	c #D3D4D4",
"#	c #F1F2F2",
"$	c #D2D3D3",
"%	c #4F4E4E",
"&	c #DBDCDC",
"*	c #D7D7D7",
"=	c #191818",
"-	c #EBECEC",
";	c #222121",
">	c #4B4C4C",
",	c #D0D1D1",
"'	c #1C1B1B",
")	c #E2E3E3",
"!	c #D4D5D5",
"~	c #EFF0F0",
"{	c #242323",
"]	c #151414",
"^	c #DCDDDD",
"/	c #1A1919",
"(	c #EAEBEB",
"_	c #1B1A1A",
":	c #F0F1F1",
"................................",
"................................",
"..............+@############$%..",
"..............&##############*..",
".............=################..",
".............=################..",
".............=################..",
".............=################..",
".............=###-;;;;;;;;####..",
".............=###-........####..",
".............=###-........####..",
".............=###-........####..",
".............=###-........####..",
".............=###-........####..",
"..>,######'..=####))))))))####..",
"..!#######'..=################..",
"..~#######'..=################..",
"..~#######'..=################..",
"..~#######'...;;;;;;;;;;;;;;;;..",
"..~#######'.....................",
"..~###{;;;......................",
"..~###].........................",
"..~###].......^)))/.............",
"..~###].......(###_.............",
"..~###].......(###_.............",
"..~###].......(###_.............",
"..~###)))))))):###_.............",
"..~###############_.............",
"..~###############_.............",
"..~###############_.............",
"..;;;;;;;;;;;;;;;;..............",
"................................"};
